<svg width="806" height="352" viewBox="0 0 806 352" fill="none" xmlns="http://www.w3.org/2000/svg">
<path opacity="0.504511" fill-rule="evenodd" clip-rule="evenodd" d="M713.094 236.515C722.131 304.315 502.974 348.538 314.34 317.676C125.707 286.813 39.1707 166.292 129.184 102.073C219.196 37.8548 704.058 168.715 713.094 236.515Z" fill="#F2F2F2"/>
<g opacity="0.5">
<path opacity="0.5" fill-rule="evenodd" clip-rule="evenodd" d="M92.4094 3.97668C84.1254 4.07002 75.8454 4.37658 67.5777 4.90138C59.7154 5.40103 51.1846 5.02172 43.4504 6.55039C41.2542 6.98414 38.2876 8.99187 41.2077 11.2C43.2603 12.7525 50.7698 10.9666 53.2208 10.8157C62.2471 10.2593 71.278 9.59263 80.317 9.27234C88.8742 8.96899 97.4309 8.86192 105.992 8.77636C107.299 8.76355 109.469 8.34306 110.771 8.72374C112.641 9.27097 112.197 9.41967 112.337 11.8008C112.591 16.115 112.521 20.4448 112.436 24.7631C112.353 28.9419 112.199 33.1202 112.214 37.3008C112.225 40.2836 111.274 46.2107 112.766 48.8009C114.914 52.5294 117.142 48.4797 117.303 46.002C117.61 41.2632 117.472 36.4663 117.474 31.7215C117.475 27.2677 117.506 22.8139 117.35 18.3625C117.237 15.1468 117.695 9.5336 115.968 6.61033C114.209 3.63306 109.974 4.275 106.884 4.13316C102.063 3.91079 97.234 3.92635 92.4094 3.97668Z" fill="#89C5CC"/>
<path opacity="0.5" fill-rule="evenodd" clip-rule="evenodd" d="M39.702 9.35084C39.7111 17.7189 38.7459 26.0312 38.4755 34.3897C38.3515 38.2327 38.0999 42.4526 39.0691 46.2251C40.0475 50.0342 43.1551 50.8596 43.513 46.6072C44.2379 37.9961 44.0601 29.0671 44.6245 20.3869C44.8238 17.3222 46.1204 11.7058 44.9099 8.83609C43.844 6.30814 39.6974 5.8236 39.702 9.35084Z" fill="#89C5CC"/>
<path opacity="0.5" fill-rule="evenodd" clip-rule="evenodd" d="M117.384 46.2365C102.997 48.1468 87.9571 47.4504 73.468 47.7505C66.5165 47.8946 59.5665 47.9038 52.6142 47.9765C50.1878 48.0017 44.026 47.0761 41.9269 48.4442C38.5855 50.6221 42.211 52.3027 44.4231 52.3507C58.1431 52.6522 72.0159 52.0194 85.7331 51.5678C91.8963 51.3651 98.0795 51.2659 104.226 50.7406C108.01 50.4171 112.146 50.1037 115.82 49.0838C116.603 48.866 118.308 48.9113 118.483 47.8402C118.591 47.1777 118.395 46.0965 117.384 46.2365Z" fill="#89C5CC"/>
<path opacity="0.5" fill-rule="evenodd" clip-rule="evenodd" d="M57.5601 58.4002C53.5616 58.4235 41.5126 56.5609 39.8567 60.4715C37.6491 65.6871 46.261 64.4696 48.5771 64.4101C53.8375 64.2747 59.0942 64.26 64.356 64.2623C69.5189 64.2646 74.6812 64.2312 79.8432 64.1081C81.3386 64.072 84.8195 64.6947 85.6799 62.8883C86.3337 61.5157 85.8171 60.4326 84.6112 59.7061C81.7097 57.9568 74.172 58.9712 70.7749 58.8138C66.3767 58.6107 61.9638 58.4002 57.5601 58.4002Z" fill="#89C5CC"/>
<path opacity="0.5" fill-rule="evenodd" clip-rule="evenodd" d="M106.204 59.3659C103.919 59.5022 99.2967 58.5574 97.2496 59.6061C94.9231 60.7984 95.7428 62.6652 97.7516 63.4856C99.1426 64.0534 104.849 63.7556 106.204 63.0976C107.616 62.4113 109.213 59.1801 106.204 59.3659Z" fill="#89C5CC"/>
<path opacity="0.5" fill-rule="evenodd" clip-rule="evenodd" d="M131.256 10.1719C128.815 10.8436 129.556 24.7407 129.493 26.9438C129.32 32.9798 128.644 40.5714 130.643 46.3846C131.919 50.0902 134.368 49.5878 133.951 45.6863C133.584 42.262 132.955 38.8771 132.683 35.4304C132.068 27.6315 131.23 19.3128 131.811 11.5075C132.059 11.9609 134.374 16.1676 134.919 15.8537C134.754 15.9516 132.249 9.90926 131.256 10.1719Z" fill="#89C5CC"/>
<path opacity="0.5" fill-rule="evenodd" clip-rule="evenodd" d="M158.709 5.05339C153.77 5.1266 148.831 5.21445 143.893 5.35171C139.967 5.46152 133.798 4.81455 130.198 6.47087C125.911 8.44291 127.945 12.8372 131.971 12.9301C135.534 13.0124 139.332 12.2067 142.927 12.0832C152.636 11.7496 162.362 11.6787 172.075 11.5954C180.86 11.5195 190.018 12.4593 198.726 11.136C200.017 22.6393 196.524 34.191 197.712 45.8264C197.896 47.6324 197.814 50.1841 200.107 50.5955C203 51.1148 203.119 48.24 203.229 46.1815C203.542 40.3038 203.373 34.4216 203.802 28.5361C204.199 23.0822 204.982 17.5079 204.321 12.0452C203.507 5.32288 200.296 5.86188 194.619 5.58231C182.628 4.99254 170.712 4.87678 158.709 5.05339Z" fill="#89C5CC"/>
<path opacity="0.5" fill-rule="evenodd" clip-rule="evenodd" d="M142.156 45.9001C139.639 45.9637 135.46 45.1859 133.847 47.6063C132.169 50.1247 134.16 52.3213 136.599 52.8384C139.487 53.4501 143.253 52.6114 146.25 52.6023C149.371 52.5931 152.493 52.6279 155.614 52.6403C168.996 52.6929 182.435 52.896 195.807 52.341C197.675 52.2637 202.975 52.8919 204.267 51.0951C205.415 49.5015 204.612 48.0721 203.102 47.2604C200.623 45.9285 195.533 46.435 192.776 46.3293C189.372 46.1993 185.964 46.1568 182.557 46.1037C169.113 45.8955 155.599 45.5666 142.156 45.9001Z" fill="#89C5CC"/>
<path opacity="0.5" fill-rule="evenodd" clip-rule="evenodd" d="M153.476 57.5425C148.468 57.628 143.125 57.4075 138.167 58.1693C133.807 58.8392 133.271 63.066 137.964 63.5606C142.276 64.0154 147.505 63.1657 151.838 62.8866C153.377 62.7874 155.167 62.9283 155.905 61.2216C156.675 59.4386 155.203 57.7287 153.476 57.5425Z" fill="#89C5CC"/>
<path opacity="0.5" fill-rule="evenodd" clip-rule="evenodd" d="M191.335 57.9862C188.662 58.053 180.855 56.9005 179.531 59.9624C177.327 65.0604 187.896 63.1236 189.924 63.0486C192.479 62.9543 202.439 64.4509 202.441 60.3705C202.443 56.3693 193.783 57.9254 191.335 57.9862Z" fill="#89C5CC"/>
<path opacity="0.5" fill-rule="evenodd" clip-rule="evenodd" d="M39.2697 83.3183C39.2761 92.5924 38.7007 101.953 39.5441 111.204C39.8929 115.03 39.8332 122.359 42.0426 125.602C43.6109 127.905 45.7861 127.743 46.6428 124.979C47.2155 123.131 46.2995 119.434 46.1974 117.457C46.0989 115.56 45.984 113.663 45.8965 111.765C45.6717 106.876 45.6895 101.994 45.7565 97.102C45.814 92.9058 46.8211 87.3539 45.8714 83.3183C44.986 79.5573 39.2697 78.6779 39.2697 83.3183Z" fill="#69A1AC"/>
<path opacity="0.5" fill-rule="evenodd" clip-rule="evenodd" d="M132.194 75.1598C116.152 75.5634 100.075 75.2028 84.0471 75.9994C76.1428 76.392 68.2695 77.2545 60.4049 78.1142C56.541 78.537 52.6793 78.9726 48.8222 79.4493C47.6583 79.593 37.9864 79.9691 41.6242 83.6583C43.2126 85.2693 48.2674 83.5865 50.2675 83.349C54.1401 82.8905 58.0204 82.4906 61.8985 82.0793C69.278 81.2964 76.6667 80.5548 84.0777 80.1434C101.532 79.1734 119.058 79.4644 136.529 78.8179C141.255 78.6431 145.967 78.5178 150.695 78.7044C151.936 78.7534 161.059 79.2183 157.098 75.8388C155.225 74.2401 148.164 75.0651 145.823 75.017C141.28 74.9228 136.735 75.0454 132.194 75.1598Z" fill="#69A1AC"/>
<path opacity="0.5" fill-rule="evenodd" clip-rule="evenodd" d="M157.178 124.087C157.176 124.091 157.173 124.094 157.17 124.098C156.296 125.39 153.067 125.031 151.652 125.127C147.348 125.421 143.124 125.916 138.858 126.557C130.357 127.835 121.931 128.621 113.339 128.834C96.3452 129.255 79.2815 128.861 62.3135 130.029C58.5554 130.288 54.8542 130.732 51.1576 131.441C48.5178 131.949 43.4307 133.685 43.122 129.311C42.7495 124.04 55.9347 124.049 59.7047 123.697C75.8922 122.187 92.3459 122.505 108.583 122.732C116.435 122.841 124.272 123.082 132.118 122.601C139.956 122.12 148.059 122.246 155.84 121.401C154.837 117.504 154.984 112.63 154.703 108.649C153.981 98.4256 154.174 88.1674 153.709 77.9339C153.504 73.4252 159.627 72.7421 161.443 76.3915C163.277 80.0779 162.086 87.3923 162.204 91.4796C162.479 100.943 164.228 111.536 162.38 120.895C161.737 124.15 159 125.861 157.178 124.087Z" fill="#69A1AC"/>
<path opacity="0.5" fill-rule="evenodd" clip-rule="evenodd" d="M167.045 81.2362C164.878 81.5317 163.071 83.3921 164.038 85.7517C165.257 88.7226 168.886 87.5618 171.284 87.3737C178.905 86.7748 186.862 87.9708 194.391 87.0685C196.448 86.8219 199.431 85.6986 197.585 82.9273C196.197 80.8445 191.141 81.2101 188.991 81.0106C181.641 80.3284 174.386 80.5105 167.045 81.2362Z" fill="#C1DEE2"/>
<path opacity="0.5" fill-rule="evenodd" clip-rule="evenodd" d="M179.908 94.1976C176.952 94.3971 170.072 94.2402 168.826 97.6132C166.592 103.664 175.343 101.532 178.007 101.188C181.103 100.788 188.399 101.859 190.047 98.8482C192.994 93.4646 182.5 94.0183 179.908 94.1976Z" fill="#C1DEE2"/>
<path opacity="0.5" fill-rule="evenodd" clip-rule="evenodd" d="M172.307 107.477C170.905 108.884 170.903 111.397 172.307 112.804C174.026 114.526 177.772 114.169 180.031 114.294C183.182 114.471 192.232 116.142 193.797 112.421C195.907 107.4 187.713 107.505 185.017 107.22C181.902 106.891 174.889 104.886 172.307 107.477Z" fill="#C1DEE2"/>
<path opacity="0.5" fill-rule="evenodd" clip-rule="evenodd" d="M61.8535 21.5301C61.8535 26.9282 70.2593 26.9282 70.2593 21.5301C70.2593 16.1612 61.8535 16.0793 61.8535 21.5301Z" fill="#89C5CC"/>
<path opacity="0.5" fill-rule="evenodd" clip-rule="evenodd" d="M77.7988 21.5915C77.7988 27.7629 87.3732 27.7506 87.3732 21.5915C87.3732 15.4416 77.7988 15.3789 77.7988 21.5915Z" fill="#89C5CC"/>
<path opacity="0.5" fill-rule="evenodd" clip-rule="evenodd" d="M68.1527 29.7969C63.4986 31.0858 67.7861 35.0418 69.9472 35.9454C73.3816 37.3821 78.0689 38.4409 81.5043 36.2872C82.8711 35.4302 83.9809 34.2914 82.9792 32.6282C81.9119 30.8575 80.4507 31.6449 78.8258 31.8083C76.7673 32.016 75.1036 31.984 73.1158 31.3219C71.6322 30.8277 69.7707 29.3503 68.1527 29.7969Z" fill="#89C5CC"/>
<path opacity="0.5" fill-rule="evenodd" clip-rule="evenodd" d="M152.572 21.872C152.572 25.5232 158.225 25.5232 158.225 21.872C158.225 18.2207 152.572 18.2207 152.572 21.872Z" fill="#89C5CC"/>
<path opacity="0.5" fill-rule="evenodd" clip-rule="evenodd" d="M165.073 22.4215C165.073 26.4782 171.353 26.4786 171.353 22.4215C171.353 18.3645 165.073 18.3649 165.073 22.4215Z" fill="#89C5CC"/>
<path opacity="0.5" fill-rule="evenodd" clip-rule="evenodd" d="M164.608 31.2252C161.31 31.6517 151.769 32.6217 151.236 36.6998C150.412 42.9915 160.865 37.8995 163.251 37.4053C166.29 36.7762 169.004 36.9405 172.037 37.0626C173.703 37.1294 175.918 37.4003 175.744 34.8554C175.457 30.6766 167.491 30.8546 164.608 31.2252Z" fill="#89C5CC"/>
<path opacity="0.5" fill-rule="evenodd" clip-rule="evenodd" d="M81.6731 89.2469C79.2822 89.8866 76.1546 94.0324 77.7996 96.5695C80.4968 100.731 81.6863 94.3417 82.8151 93.7268C84.8691 92.6076 86.5364 96.6967 88.6828 94.5517C92.0699 91.1673 83.8054 88.6741 81.6731 89.2469Z" fill="#69A1AC"/>
<path opacity="0.5" fill-rule="evenodd" clip-rule="evenodd" d="M109.068 86.1708C106.233 86.1969 100.247 90.2234 99.823 93.196C99.5714 94.9626 100.739 96.6597 102.637 96.6835C105.222 96.7151 106.044 93.3438 108.285 92.6387C110.702 91.8783 110.343 93.6293 112.431 94.5371C113.959 95.2019 115.87 94.9237 116.4 93.0396C117.401 89.4858 111.982 86.115 109.068 86.1708Z" fill="#69A1AC"/>
<path opacity="0.5" fill-rule="evenodd" clip-rule="evenodd" d="M87.3649 103.193C82.8298 105.858 90.2919 111.572 92.8788 112.287C96.7842 113.365 104.644 111.352 105.57 106.567C105.938 104.663 104.75 102.938 102.655 103.279C100.93 103.56 99.8234 105.73 98.2254 106.508C96.0684 107.557 94.1508 107.486 92.318 105.906C90.8249 104.619 90.0252 101.637 87.3649 103.193Z" fill="#69A1AC"/>
<path opacity="0.5" fill-rule="evenodd" clip-rule="evenodd" d="M90.652 142.578C86.6002 143.445 82.4814 142.863 78.4101 143.678C74.2584 144.51 71.7773 146.083 67.9202 144.498C67.7388 144.421 67.5578 144.344 67.3768 144.267C64.3914 142.978 61.2624 142.596 58.1376 144.651C56.2883 145.868 50.6746 150.075 51.3512 152.642C52.8174 158.208 59.1342 149.48 60.745 148.63C63.8165 147.008 65.9224 149.08 69.0847 149.665C72.8724 150.365 75.9203 148.358 79.4883 147.558C83.6613 146.623 88.356 146.297 92.6015 145.797C94.2788 145.599 100.632 146.93 101.206 144.836C102.191 141.239 92.2445 142.239 90.652 142.578Z" fill="#C1DEE2"/>
<path opacity="0.5" fill-rule="evenodd" clip-rule="evenodd" d="M119.884 153.787C120.149 153.988 119.937 153.827 119.884 153.787V153.787ZM131.232 142.36C134.701 142.007 145.799 139.522 148.078 143.117C149.562 145.459 147.206 154.101 144.959 155.219C143.164 156.112 138.981 155.125 137.01 155.055C133.344 154.925 129.669 154.868 126.007 154.639C124.779 154.562 120.826 154.788 119.863 153.698C118.726 152.41 118.777 145.547 118.509 143.844C121.698 144.88 127.898 142.7 131.232 142.36ZM138.639 138.836C134.197 139.029 129.755 139.364 125.346 139.961C122.888 140.294 120.398 141.18 118.128 141.6C117.396 141.735 116.208 141.36 115.311 141.795C112.689 143.065 114.985 151.655 115.617 153.95C116.588 157.476 119.033 158.047 122.457 158.379C126.968 158.817 131.571 158.68 136.096 158.624C140.458 158.57 146.34 159.54 148.787 155.15C150.369 152.312 152.066 145.702 150.714 142.539C148.935 138.377 142.292 138.682 138.639 138.836Z" fill="#C1DEE2"/>
<path opacity="0.5" fill-rule="evenodd" clip-rule="evenodd" d="M188.387 156.148C188.149 156.454 188.149 156.454 188.387 156.148V156.148ZM189.36 154.971C189.287 155.083 188.946 155.444 189.36 154.971V154.971ZM178.766 154.648C180.724 154.278 182.683 153.913 184.644 153.554C182.787 156.161 180.832 155.083 177.661 154.856C178.029 154.787 178.397 154.717 178.766 154.648ZM169.423 153.726C169.92 153.559 170.416 153.392 170.912 153.226C170.897 153.605 170.978 153.96 171.156 154.29C170.306 154.198 169.457 154.099 168.609 153.995C168.88 153.905 169.152 153.815 169.423 153.726ZM165.094 150.519C165.066 149.835 166.091 150.304 166.679 150.259C165.546 151.259 165.018 151.346 165.094 150.519ZM180.577 142.762C180.726 142.571 180.924 142.581 181.169 142.791C180.901 142.881 179.869 143.32 180.577 142.762ZM190.618 141.578C190.645 141.578 191.202 142.332 190.618 141.578V141.578ZM190.337 141.331C190.483 141.442 190.483 141.442 190.337 141.331V141.331ZM189.083 141.184C191.136 141.531 190.98 143.948 189.083 141.184V141.184ZM164.963 141.019C164.546 141.366 164.688 141.029 164.963 141.019V141.019ZM172.814 135.874C169.329 136.077 162.931 135.872 160.02 137.735C156.221 140.167 158.22 148.536 158.56 152.205C159.062 157.628 161.606 159.173 166.699 159.742C172.776 160.421 179.019 160.548 185.128 160.387C190.629 160.242 193.762 158.344 194.77 152.534C195.078 150.757 195.862 148.007 195.837 146.305C195.82 145.124 195.233 144.585 195.011 143.581C193.748 137.863 191.635 137.185 185.793 136.936C181.492 136.752 177.034 135.652 172.814 135.874Z" fill="#89C5CC"/>
</g>
<g opacity="0.5">
<path opacity="0.5" fill-rule="evenodd" clip-rule="evenodd" d="M570.057 30.124C568.51 31.673 569.111 37.1782 569.079 39.2155C569.029 42.3871 569.226 45.5303 569.49 48.6905C569.667 50.8064 570.666 70.9987 573.444 69.4479C575.011 68.5741 574.029 62.7329 574.026 60.8854C574.019 56.7779 573.849 52.6805 573.576 48.5821C573.322 44.7773 573.163 41.0168 573.309 37.2047C573.345 36.2743 574.213 25.9484 570.057 30.124Z" fill="#89C5CC"/>
<path opacity="0.5" fill-rule="evenodd" clip-rule="evenodd" d="M637.418 27.6348C624.13 27.7409 610.847 28.3983 597.564 28.8011C591.173 28.995 584.786 29.2414 578.401 29.5966C576.225 29.7178 571.559 29.0192 569.747 30.1819C565.723 32.7632 572.212 33.3667 573.942 33.3036C600.228 32.3476 626.523 31.0885 652.83 31.0291C665.736 31.0002 678.634 31.3688 691.541 31.286C696.475 31.2545 701.938 29.1225 703.184 34.8823C704.59 41.3819 702.974 48.6185 702.534 55.1496C702.241 59.5095 702.345 63.7788 702.541 68.135C702.667 70.9258 702.34 74.0704 702.832 76.809C703.305 79.4462 705.195 81.0276 706.928 78.0736C707.963 76.3084 707.448 71.9499 707.517 69.9048C707.61 67.1507 707.522 64.3974 707.522 61.6428C707.521 54.9192 708.468 48.2221 708.343 41.4999C708.262 37.1651 708.033 29.3068 702.582 28.2653C696.58 27.1182 689.202 28.2717 683.059 28.2013C667.839 28.0271 652.644 27.5155 637.418 27.6348Z" fill="#89C5CC"/>
<path opacity="0.5" fill-rule="evenodd" clip-rule="evenodd" d="M600.803 69.6891C595.792 69.6891 590.781 69.7193 585.771 69.8025C581.474 69.8738 574.717 68.9754 570.718 70.5176C567.98 71.5733 567.253 74.6392 570.718 75.4558C574.497 76.3469 580.193 74.8903 584.148 74.8203C603.976 74.4692 623.995 74.0115 643.796 75.2693C662.35 76.4475 681.261 77.59 699.842 76.3464C701.405 76.2417 709.379 75.9235 705.74 72.9257C703.618 71.176 695.015 72.3267 692.256 72.2431C682.527 71.9486 672.787 71.8832 663.061 71.5134C653.461 71.1481 643.904 70.0654 634.301 69.7975C623.144 69.4861 611.963 69.6891 600.803 69.6891Z" fill="#89C5CC"/>
<path opacity="0.5" fill-rule="evenodd" clip-rule="evenodd" d="M595.789 41.1031C603.599 41.4451 611.326 52.8056 603.424 58.2962C596.011 63.4479 582.117 57.8019 586.239 47.8121C585.647 49.2564 586.989 46.243 587.005 46.2229C587.789 45.2966 589.197 44.2711 590.163 43.5409C591.269 42.7052 592.42 41.7853 593.753 41.3665C594.629 41.0917 594.491 42.1259 595.789 41.1031ZM591.986 37.0057C588.33 38.4372 586.662 40.052 584.15 42.974C582.412 44.9962 580.196 46.0601 580.216 48.7928C580.22 49.3977 580.995 50.0624 581.129 50.6449C581.314 51.45 581.099 52.4815 581.246 53.3369C582.758 62.1636 593.258 65.1395 600.944 63.473C607.639 62.0214 612.646 55.5754 611.095 48.566C609.534 41.51 599.102 34.214 591.986 37.0057Z" fill="#89C5CC"/>
<path opacity="0.5" fill-rule="evenodd" clip-rule="evenodd" d="M588.729 49.3278C588.729 52.5031 593.73 52.5031 593.73 49.3278C593.73 46.1887 588.729 46.0538 588.729 49.3278Z" fill="#89C5CC"/>
<path opacity="0.5" fill-rule="evenodd" clip-rule="evenodd" d="M594.986 48.6852C594.986 51.2085 598.96 51.2085 598.96 48.6852C598.96 46.1907 594.986 46.0842 594.986 48.6852Z" fill="#89C5CC"/>
<path opacity="0.5" fill-rule="evenodd" clip-rule="evenodd" d="M596.217 53.8889C594.944 54.3795 593.33 53.3622 592.286 54.0325C590.436 55.2203 592.29 56.2951 593.282 56.7725C597.747 58.9213 598.541 52.996 596.217 53.8889Z" fill="#89C5CC"/>
<path opacity="0.5" fill-rule="evenodd" clip-rule="evenodd" d="M664.403 46.8514C664.27 46.9081 663.796 47.1093 664.403 46.8514V46.8514ZM644.959 44.0012C641.618 44.7579 638.796 47.8879 635.166 47.4691C632.383 47.1482 630.5 44.4552 627.753 44.0639C624.239 43.5628 614.677 51.6022 619.704 52.9816C622.638 53.7867 624.265 48.41 626.856 48.1243C628.906 47.8984 631.694 50.4199 633.818 50.7788C637.781 51.4486 640.503 49.2591 643.982 47.8472C647.762 46.3129 649.913 47.6945 653.201 49.3999C655.796 50.7459 658.24 51.6223 661.209 51.0668C663.996 50.5461 667.497 47.6717 670.302 47.9665C673.05 48.2555 675.011 51.1313 677.837 51.3983C679.002 51.508 680.736 51.9062 680.541 50.103C680.384 48.6592 678.778 48.9038 677.773 48.3789C675.189 47.0293 672.772 44.6386 669.653 44.8425C667.307 44.9961 665.171 46.6494 663.01 47.4403C655.929 50.0304 651.949 42.4289 644.959 44.0012Z" fill="#89C5CC"/>
<path opacity="0.5" fill-rule="evenodd" clip-rule="evenodd" d="M650.874 89.7359C637.216 89.8616 623.513 90.0651 609.893 91.1633C606.665 91.4234 573.695 94.5457 573.758 94.7706C573.873 95.1867 578.114 95.8222 578.087 95.9205C577.802 95.2095 577.148 94.9151 576.128 95.0381C607.396 95.0381 638.566 92.2299 669.875 92.7351C677.742 92.8618 685.639 92.8087 693.501 93.0575C695.463 93.1196 700.326 94.5306 701.868 93.6418C705.913 91.3087 698.564 91.0394 697.347 90.9415C681.939 89.7053 666.325 89.5814 650.874 89.7359Z" fill="#69A1AC"/>
<path opacity="0.5" fill-rule="evenodd" clip-rule="evenodd" d="M569.711 96.3917C567.669 98.445 569.549 105.832 569.629 108.608C569.746 112.621 569.65 116.664 570.001 120.667C570.402 125.24 571.024 130.112 572.22 134.548C572.879 136.993 575.191 140.877 576.107 136.436C576.762 133.264 575.768 129.056 575.423 125.824C574.96 121.501 574.848 117.235 574.831 112.891C574.815 109.106 574.743 105.305 574.433 101.532C574.273 99.5729 573.29 92.8205 569.711 96.3917Z" fill="#69A1AC"/>
<path opacity="0.5" fill-rule="evenodd" clip-rule="evenodd" d="M621.08 134.009C611.388 134.176 601.675 134.405 591.999 135.012C588.034 135.261 584.071 135.632 580.12 136.053C579.314 136.138 570.39 136.502 574.377 139.805C576.177 141.296 583.581 139.234 586.026 139.019C590.139 138.658 594.251 138.423 598.375 138.248C607.932 137.841 617.518 137.481 627.084 137.648C644.555 137.952 661.913 138.088 679.389 137.697C681.872 137.641 701.324 138.163 701.984 135.572C702.517 133.484 695.561 134.441 694.292 134.479C689.639 134.619 684.986 134.586 680.332 134.563C660.614 134.461 640.782 133.675 621.08 134.009Z" fill="#69A1AC"/>
<path opacity="0.5" fill-rule="evenodd" clip-rule="evenodd" d="M698.692 92.9272C699 101.583 700.469 110.228 700.939 118.909C701.154 122.878 701.407 126.842 701.6 130.812C701.663 132.093 701.148 135.179 702.658 135.915C704.729 136.926 705.008 134.89 705.396 133.512C706.516 129.535 705.758 124.368 705.656 120.282C705.558 116.326 705.551 112.362 705.26 108.413C704.962 104.378 704.152 100.42 703.777 96.3992C703.618 94.6989 704.173 91.8693 702.374 90.8141C700.818 89.902 698.625 91.0514 698.692 92.9272Z" fill="#69A1AC"/>
<path opacity="0.5" fill-rule="evenodd" clip-rule="evenodd" d="M603.429 107.325C603.466 107.353 603.502 107.382 603.539 107.411C603.502 107.382 603.465 107.354 603.429 107.325ZM595.193 104.761C598.264 105.641 600.786 105.313 603.72 107.555C606.152 109.415 608.647 112.135 609.454 115.141C611.317 122.088 604.999 125.894 599.076 125.969C593.008 126.046 584.028 124.634 584.339 116.834C584.577 110.841 588.94 104.993 595.193 104.761ZM595.409 100.835C587.445 101.233 581.02 110.204 581.089 117.755C581.173 126.907 591.511 129.264 598.856 129.328C607.144 129.399 615.41 123.659 613.189 114.309C611.409 106.819 603.068 100.436 595.409 100.835Z" fill="#69A1AC"/>
<path opacity="0.5" fill-rule="evenodd" clip-rule="evenodd" d="M587.397 113.123C587.397 115.675 591.417 115.675 591.417 113.123C591.417 110.6 587.397 110.492 587.397 113.123Z" fill="#69A1AC"/>
<path opacity="0.5" fill-rule="evenodd" clip-rule="evenodd" d="M595.83 112.003C595.83 114.575 599.882 114.575 599.882 112.003C599.882 109.46 595.83 109.351 595.83 112.003Z" fill="#69A1AC"/>
<path opacity="0.5" fill-rule="evenodd" clip-rule="evenodd" d="M591.182 117.824C588.566 120.444 597.758 125.038 599.926 121.392C601.706 118.399 597.829 119.391 596.455 119.229C594.962 119.053 592.401 116.605 591.182 117.824Z" fill="#69A1AC"/>
<path opacity="0.5" fill-rule="evenodd" clip-rule="evenodd" d="M664.673 112.056C664.421 112.162 664.421 112.162 664.673 112.056V112.056ZM630.155 107.79C627.506 108.288 618.811 111.23 618.693 114.383C618.479 120.114 626.994 114.244 628.843 113.49C633.866 111.443 636.506 115.62 641.552 115.84C645.934 116.032 649.964 112.27 654.092 112.715C658.417 113.18 660.498 117.796 665.491 115.345C668.133 114.049 668.066 112.051 665.101 111.862C663.309 111.748 662.077 112.491 660.209 111.718C657.286 110.509 656.109 108.54 652.612 108.853C649.973 109.089 647.588 110.581 645.012 111.158C639.114 112.48 635.842 106.722 630.155 107.79Z" fill="#69A1AC"/>
<path opacity="0.5" fill-rule="evenodd" clip-rule="evenodd" d="M685.022 114.544C684.84 114.621 684.84 114.621 685.022 114.544V114.544ZM685.691 112.158C685.72 112.171 685.92 112.449 685.691 112.158V112.158ZM682.653 110.336C682.539 110.425 682.539 110.425 682.653 110.336V110.336ZM682.72 110.314C683.309 110.667 688.044 113.915 684.604 114.68C682.858 115.068 681.414 111.544 682.72 110.314ZM681.152 106.716C673.567 110.185 681.729 122.598 687.682 117.555C690.186 115.432 690.516 111.143 688.079 108.932C686.619 107.607 683.134 105.808 681.152 106.716Z" fill="#69A1AC"/>
<path opacity="0.5" fill-rule="evenodd" clip-rule="evenodd" d="M609.95 155.632C600.486 155.635 590.938 155.435 581.486 155.998C579.896 156.093 573.836 155.789 573.017 157.457C571.517 160.508 577.752 158.993 578.658 158.902C597.478 157.012 617.136 158.099 636.018 158.638C651.46 159.078 666.82 159.352 682.244 160.15C686.298 160.36 690.348 160.592 694.4 160.837C695.72 160.917 699.044 161.795 699.322 159.679C699.58 157.721 695.434 158.163 694.399 158.109C686.163 157.674 677.933 157.218 669.7 156.753C649.883 155.633 629.799 155.628 609.95 155.632Z" fill="#89C5CC"/>
<path opacity="0.5" fill-rule="evenodd" clip-rule="evenodd" d="M572.713 159.024C570.946 160.787 571.774 167.517 571.725 169.742C571.639 173.633 571.455 177.52 571.373 181.41C571.288 185.475 571.407 189.56 571.646 193.619C571.747 195.324 573.142 203.561 575.338 198.847C576.319 196.74 575.314 190.873 575.329 188.486C575.356 184.141 575.589 179.815 575.805 175.477C575.99 171.748 575.997 168.015 576.159 164.284C576.211 163.095 576.351 155.364 572.713 159.024Z" fill="#89C5CC"/>
<path opacity="0.5" fill-rule="evenodd" clip-rule="evenodd" d="M700.915 193.777C691.704 194.724 682.346 194.277 673.1 194.976C665.132 195.579 657.171 195.825 649.182 195.995C631.091 196.378 612.97 196.751 594.933 198.263C590.822 198.608 586.716 198.973 582.594 199.158C580.533 199.25 571.883 198.309 571.238 200.489C570.141 204.201 579.392 202.732 581.387 202.674C585.774 202.547 590.141 202.229 594.517 201.894C612.909 200.489 631.371 200.069 649.803 199.484C659.827 199.167 669.781 198.432 679.783 197.762C684.768 197.429 689.767 197.418 694.752 197.095C696.056 197.01 700.673 197.177 701.611 196.124C702.256 195.401 702.419 193.636 700.915 193.777Z" fill="#89C5CC"/>
<path opacity="0.5" fill-rule="evenodd" clip-rule="evenodd" d="M697.793 159.655C698.109 168.515 698.608 177.367 698.907 186.227C698.996 188.891 698.194 193.666 699.673 196.015C702.051 199.793 703.908 195.795 704.343 193.441C705.718 186.011 704.24 177.803 703.856 170.327C703.71 167.475 704.593 161.128 703.219 158.575C701.91 156.144 697.676 156.388 697.793 159.655Z" fill="#89C5CC"/>
<path opacity="0.5" fill-rule="evenodd" clip-rule="evenodd" d="M682.329 172.274C685.858 173.233 686.373 180.928 682.392 181.497C676.465 182.344 679.057 173.86 682.329 172.274ZM681.341 169.214C680.264 169.18 677.78 168.882 677.116 169.761C676.561 170.497 677.122 172.048 677.057 172.748C676.824 175.252 674.795 176.698 675.702 179.653C676.318 181.66 677.967 183.545 679.977 184.241C690.582 187.918 690.453 167.364 681.341 169.214Z" fill="#89C5CC"/>
<path opacity="0.5" fill-rule="evenodd" clip-rule="evenodd" d="M585.588 170.594C585.561 170.628 585.535 170.662 585.509 170.696C585.535 170.662 585.561 170.628 585.588 170.594ZM593.918 166.149C593.876 165.793 593.835 165.437 593.793 165.081C599.544 167.803 604.119 172.868 602.21 179.666C600.753 184.852 595.489 186.691 590.585 185.411C585.157 183.993 582.563 179.505 584.026 173.994C584.702 171.451 586.775 168.035 589.456 167.217C590.704 166.837 593.463 167.807 593.918 166.149ZM590.555 163.996C589.101 164.094 587.685 164.702 586.498 165.533C587.609 164.591 589.09 164.029 590.555 163.996ZM590.597 160.646C587.004 160.757 584.649 162.938 582.518 165.559C581.849 166.381 579.588 168.561 579.868 169.67C580.089 170.546 580.668 171.827 581.888 170.85C575.499 183.623 592.005 194.517 602.082 185.635C611.486 177.346 602.156 160.258 590.597 160.646Z" fill="#89C5CC"/>
<path opacity="0.5" fill-rule="evenodd" clip-rule="evenodd" d="M587.332 172.511C587.332 174.212 589.965 174.212 589.965 172.511C589.965 170.811 587.332 170.811 587.332 172.511Z" fill="#89C5CC"/>
<path opacity="0.5" fill-rule="evenodd" clip-rule="evenodd" d="M591.824 172.802C591.824 174.53 594.499 174.53 594.499 172.802C594.499 171.073 591.824 171.073 591.824 172.802Z" fill="#89C5CC"/>
<path opacity="0.5" fill-rule="evenodd" clip-rule="evenodd" d="M593.864 178.872C592.613 178.974 588.032 178.548 587.228 179.647C585.885 181.484 588.029 181.548 589.082 181.747C590.031 181.926 594.155 181.824 594.736 180.98C595.25 180.233 595.13 178.764 593.864 178.872Z" fill="#89C5CC"/>
<path opacity="0.5" fill-rule="evenodd" clip-rule="evenodd" d="M649.054 174.108C648.839 174.197 648.839 174.197 649.054 174.108V174.108ZM631.746 172.838C628.926 173.046 626.538 174.673 623.842 175.322C620.964 176.015 619.718 174.741 617.102 173.906C614.38 173.038 612.443 173.381 610.256 175.246C609.016 176.302 606.296 178.734 607.071 180.611C608.845 184.907 612.861 177.918 614.75 177.593C617.697 177.086 620.318 179.67 623.716 178.93C626.795 178.261 629.527 176.14 632.743 176.118C635.432 176.098 637.967 177.574 640.622 177.931C644.674 178.477 647.336 177.033 651.082 175.962C654.331 175.033 656.609 176.258 659.665 177.289C661.062 177.759 665.722 179.472 664.864 176.367C664.622 175.49 658.48 173.922 657.528 173.62C654.171 172.556 652.045 172.971 648.846 174.194C646.179 175.214 643.936 175.711 641.076 175.15C637.925 174.531 635.06 172.586 631.746 172.838Z" fill="#89C5CC"/>
</g>
<path fill-rule="evenodd" clip-rule="evenodd" d="M515.927 128.801C514.987 134.892 514.384 148.415 516.744 150.262L530.201 148.752C530.2 148.728 530.199 148.704 530.197 148.68C535.123 147.567 538.53 142.89 537.956 137.739L536.866 127.965C536.25 122.438 531.283 118.458 525.773 119.076L524.845 119.181C519.841 119.742 516.109 123.902 515.927 128.801Z" fill="#FFE39C"/>
<path fill-rule="evenodd" clip-rule="evenodd" d="M532.52 136.459C534.378 133.702 535.481 130.454 534.854 127.024C533.046 117.141 519.466 120.883 517.338 126.212C515.209 131.541 516.951 144.258 520.526 144.767C521.952 144.97 524.807 143.761 527.61 141.607L527.216 155.203L538.353 153.953L532.52 136.459Z" fill="#D4A181"/>
<path fill-rule="evenodd" clip-rule="evenodd" d="M529.322 135.114C529.425 140.7 530.335 146.991 532.031 148.318L545.489 146.808C544.782 133.657 538.099 139.53 536.728 127.227C536.226 126.835 535.751 126.445 535.286 126.114L535.261 125.751C532.397 121.227 529.174 119.166 525.591 119.568C520.217 120.171 518.801 122.869 517.594 125.161C519.088 128.756 523.341 128.837 527.323 130.736C527.722 130.329 528.258 130.052 528.868 129.984C530.277 129.825 531.548 130.843 531.705 132.257C531.863 133.671 530.848 134.945 529.438 135.104C529.4 135.108 529.361 135.111 529.322 135.114Z" fill="#FFE39C"/>
<path fill-rule="evenodd" clip-rule="evenodd" d="M565.661 236.232C554.877 240.604 545.446 243.243 537.369 244.149C529.292 245.055 521.522 243.492 514.058 239.46C524.594 235.032 533.388 232.423 540.437 231.632C547.486 230.841 555.894 232.375 565.661 236.232Z" fill="#CAB5A8"/>
<path fill-rule="evenodd" clip-rule="evenodd" d="M528.234 249.732C528.323 249.558 528.394 249.372 528.445 249.173C529.492 245.059 548.579 199.804 550.086 191.753L523.251 194.763C522.106 200.885 518.122 238.941 517.804 246.48C515.5 258.575 512.292 297.267 511.636 299.996C510.946 302.867 516.88 305.112 517.998 301.552C519.776 295.888 523.782 280.318 525.291 270.916C526.705 262.102 527.775 254.195 528.234 249.732Z" fill="#BA8B72"/>
<path fill-rule="evenodd" clip-rule="evenodd" d="M550.768 252.468C561.973 254.008 602.388 254.531 605.211 255.007C608.115 255.497 609.933 249.404 606.315 248.534C600.557 247.149 584.792 244.227 575.336 243.374C567.73 242.687 560.806 242.208 556.169 241.992C555.124 229.113 553.454 198.111 551.555 191.588L527.812 194.252C529.632 200.507 544.197 246.006 546.458 250.47C547.197 252.072 548.929 252.622 550.768 252.468Z" fill="#D4A181"/>
<path fill-rule="evenodd" clip-rule="evenodd" d="M605.89 247.013C607.314 246.578 608.372 246.383 609.063 246.427C609.904 246.48 611.121 246.698 612.715 247.081C612.654 248.059 612.1 256.847 611.053 273.445C608.752 273.987 607.558 273.514 607.471 272.026C607.384 270.539 607.299 269.302 607.215 268.317L602.541 255.718C602.451 255.475 602.574 255.206 602.816 255.116C602.82 255.114 602.824 255.113 602.829 255.111L604.783 254.444C605.505 253.118 605.893 252.028 605.947 251.174C605.99 250.48 605.771 249.503 605.29 248.245L605.29 248.245C605.105 247.762 605.345 247.22 605.827 247.035C605.847 247.027 605.868 247.019 605.89 247.013Z" fill="#E4E4E4"/>
<path fill-rule="evenodd" clip-rule="evenodd" d="M519.879 301.914C520.447 303.295 520.742 304.332 520.765 305.027C520.792 305.871 520.692 307.107 520.465 308.736C519.488 308.768 510.714 309.056 494.142 309.6C493.384 307.354 493.739 306.117 495.206 305.888C496.674 305.658 497.893 305.455 498.863 305.277L510.919 299.405C511.151 299.292 511.431 299.389 511.543 299.621C511.545 299.625 511.547 299.629 511.549 299.633L512.398 301.521C513.783 302.115 514.902 302.398 515.755 302.37C516.448 302.347 517.396 302.035 518.599 301.433L518.599 301.433C519.06 301.202 519.621 301.39 519.851 301.853C519.861 301.873 519.87 301.894 519.879 301.914Z" fill="#E4E4E4"/>
<path fill-rule="evenodd" clip-rule="evenodd" d="M551.479 191.597C540.681 189.768 530.782 190.878 521.78 194.928C520.189 210.158 512.953 216.944 514.107 239.89C530.761 245.984 548.75 230.326 565.847 236.173C569.291 224.926 559.914 199.824 551.479 191.597Z" fill="#E3CDC0"/>
<path fill-rule="evenodd" clip-rule="evenodd" d="M504.404 178.173L485.802 177.722C481.909 176.088 478.383 175.082 475.224 174.703C474.355 174.775 473.012 175.246 475.256 176.732C477.501 178.218 479.796 179.884 479.532 180.841C479.268 181.798 477.321 181.671 477.162 183.116C477.056 184.079 480.171 183.884 486.509 182.531L502.035 186.775L504.404 178.173ZM562.436 175.97L552.278 177.148C566.225 201.049 573.503 213.565 574.113 214.698C575.484 217.247 573.665 221.567 572.937 223.86C576.26 224.926 575.337 219.703 579.537 221.118C583.37 222.41 586.486 225.18 590.406 222.102C590.888 221.724 591.32 220.454 589.845 219.665C586.169 217.7 580.79 214.142 579.974 212.864C578.862 211.121 573.016 198.823 562.436 175.97Z" fill="#D4A181"/>
<path fill-rule="evenodd" clip-rule="evenodd" d="M530.998 146.767L523.101 148.191C523.124 166.192 513.703 178.62 489.383 177.498L488.761 200.752C511.419 201.142 530.006 189.976 531.313 165.243C531.651 158.84 531.743 152.206 530.998 146.767Z" fill="#B0D9EE"/>
<path fill-rule="evenodd" clip-rule="evenodd" d="M534.665 144.007L522.92 148.128C525.238 168.924 520.113 182.933 518.43 198.603L550.987 194.951C552.035 200.183 552.922 205.582 553.69 211.142L578.068 208.408C569.257 179.548 555.054 158.048 535.461 143.91L534.671 143.998L534.665 144.007Z" fill="#B7E6FE"/>
<path fill-rule="evenodd" clip-rule="evenodd" d="M542.541 165.859C544.825 178.724 545.434 188.669 544.369 195.694L550.986 194.951C548.91 184.587 546.205 174.877 542.541 165.859L542.541 165.859Z" fill="black" fill-opacity="0.1"/>
<path fill-rule="evenodd" clip-rule="evenodd" d="M129.729 124.98C127.751 122.157 126.547 118.811 127.134 115.243C128.825 104.965 142.975 108.592 145.281 114.076C147.587 119.561 146.017 132.776 142.319 133.37C140.844 133.606 137.861 132.406 134.916 130.226L135.576 144.312L124.005 143.224L129.729 124.98Z" fill="#57331F"/>
<path fill-rule="evenodd" clip-rule="evenodd" d="M136.708 117.296C136.573 123.524 137.455 126.728 139.356 126.907C142.206 127.175 144.795 125.588 146.046 125.705C146.957 125.791 146.647 126.916 145.963 127.708C145.399 128.361 142.908 128.807 142.806 129.892C142.705 130.977 144.702 130.318 144.642 130.962C144.542 132.026 144.692 134.059 142.85 133.886C140.985 133.711 135.702 132.527 135.046 129.665C134.622 127.819 134.586 124.071 134.939 118.423C134.828 118.399 134.713 118.382 134.596 118.371C132.999 118.22 131.582 119.397 131.432 120.999C131.356 121.813 131.621 122.579 132.11 123.156C131.352 124.041 130.509 124.96 129.554 125.9C126.507 123.654 124.642 117.741 128.31 112.575C129.433 109.98 131.542 108.736 133.937 108.292C135.901 107.677 137.872 107.772 139.483 108.403C142.704 108.987 145.51 110.253 146.277 110.92C145.989 114.002 145.308 114.86 140.228 114.301C138.916 114.846 137.849 115.895 136.708 117.296Z" fill="#191847"/>
<path fill-rule="evenodd" clip-rule="evenodd" d="M119.337 183.145L137.387 245.43L148.512 297.698L154.779 298.288L140.876 185.17L119.337 183.145Z" fill="#3D2216"/>
<path fill-rule="evenodd" clip-rule="evenodd" d="M114.573 182.697C112.348 203.779 106.017 231.848 105.307 233.109C104.833 233.949 90.2783 243.832 61.6418 262.757L65.5255 267.795C98.6678 252.377 116.081 243.511 117.764 241.197C120.289 237.726 130.552 204.568 138.141 184.913L114.573 182.697Z" fill="#57331F"/>
<path fill-rule="evenodd" clip-rule="evenodd" d="M61.2079 261.156C59.7102 261.534 58.6661 261.927 58.0754 262.337C57.357 262.834 56.3914 263.681 55.1786 264.876C55.7545 265.711 60.9301 273.223 70.7054 287.409C73.0392 286.657 73.8484 285.597 73.133 284.229C72.4176 282.86 71.8344 281.716 71.3834 280.796L68.8224 267.096C68.7731 266.833 68.5201 266.659 68.2572 266.709C68.2527 266.709 68.2483 266.71 68.2438 266.711L66.1515 267.166C64.8034 266.375 63.8778 265.614 63.3746 264.884C62.9658 264.291 62.6402 263.306 62.3977 261.93L62.3977 261.93C62.3047 261.401 61.8023 261.049 61.2756 261.142C61.2529 261.146 61.2303 261.151 61.2079 261.156Z" fill="#E4E4E4"/>
<path fill-rule="evenodd" clip-rule="evenodd" d="M145.928 296.259C145.377 297.706 145.099 298.79 145.095 299.51C145.089 300.385 145.227 301.664 145.507 303.346C146.52 303.352 155.624 303.409 172.819 303.518C173.544 301.17 173.142 299.897 171.614 299.699C170.086 299.502 168.817 299.325 167.806 299.167L155.148 293.412C154.904 293.302 154.617 293.41 154.507 293.654C154.505 293.658 154.503 293.662 154.501 293.667L153.673 295.646C152.253 296.3 151.101 296.624 150.216 296.618C149.496 296.613 148.505 296.316 147.242 295.726L147.242 295.726C146.757 295.499 146.181 295.709 145.955 296.196C145.945 296.217 145.936 296.238 145.928 296.259Z" fill="#E4E4E4"/>
<path fill-rule="evenodd" clip-rule="evenodd" d="M125.376 290.247L155.477 289.806L142.962 185.366L116.272 182.856L125.376 290.247Z" fill="#69A1AC"/>
<path fill-rule="evenodd" clip-rule="evenodd" d="M68.5025 255.863L85.8797 280.901C108.574 260.29 121.952 246.706 126.012 240.151C130.073 233.595 134.886 215.255 140.453 185.13L110.406 182.305C106.418 208.893 104.107 222.784 103.472 223.979C102.837 225.174 91.1806 235.802 68.5025 255.863Z" fill="#89C5CC"/>
<path fill-rule="evenodd" clip-rule="evenodd" d="M162.071 181.115L174.48 195.76C178.295 197.834 181.376 200.017 183.722 202.31C184.228 203.054 184.726 204.435 182.096 203.591C179.465 202.746 176.661 201.976 176.074 202.805C175.488 203.633 176.849 205.115 175.809 206.174C175.116 206.879 173.252 204.252 170.217 198.292L156.799 188.56L162.071 181.115ZM96.4143 162.743L106.968 163.775C96.4853 189.143 90.9383 202.42 90.3273 203.605C88.9525 206.273 90.9187 210.717 91.7162 213.081C88.29 214.247 89.1512 208.816 84.8223 210.361C80.8712 211.772 77.692 214.701 73.5707 211.583C73.064 211.2 72.5918 209.892 74.1072 209.047C77.8826 206.941 83.3937 203.153 84.2158 201.812C85.3369 199.985 89.403 186.962 96.4143 162.743Z" fill="#57331F"/>
<path fill-rule="evenodd" clip-rule="evenodd" d="M131.392 135.736L135.628 135.411C140.019 159.309 172.28 178.35 173.538 187.248C173.999 190.511 171.558 191.909 172.65 192.992L166.86 196.46C166.042 195.3 163.9 197.08 159.939 195.322C155.978 193.564 128.815 163.301 131.392 135.736Z" fill="#191847"/>
<path fill-rule="evenodd" clip-rule="evenodd" d="M138.117 139.491C134.755 170.266 151.788 179.799 146.675 191.791C142.452 201.694 110.145 209.728 105.667 199.211C103.855 194.953 103.318 189.96 103.704 184.623C101.938 188.585 100.514 192.005 99.4331 194.884C97.5682 199.849 92.1095 200.153 91.926 202.116L85.0175 199.486C85.7478 196.864 82.5259 195.251 83.9792 189.377C90.4912 163.059 103.092 144.722 121.781 134.368L122.207 131.779C122.381 130.721 123.377 130.004 124.433 130.178L137.334 132.31C138.389 132.485 139.104 133.484 138.93 134.543L138.117 139.491Z" fill="#2F3676"/>
<g opacity="0.5">
<path opacity="0.5" fill-rule="evenodd" clip-rule="evenodd" d="M342.668 8.97436C342.666 14.6243 342.383 20.3913 343.412 25.9734C343.724 27.6633 343.97 30.9003 345.732 31.7773C347.502 32.658 349.217 31.6685 349.657 29.8328C350.17 27.697 349.045 24.5006 348.931 22.2583C348.775 19.1952 348.764 16.1284 348.763 13.0616C348.762 10.8469 349.482 7.28395 346.898 6.14457C344.977 5.29706 342.668 6.87265 342.668 8.97436Z" fill="#C1DEE2"/>
<path opacity="0.5" fill-rule="evenodd" clip-rule="evenodd" d="M430.942 0.0384858C412.442 1.91748 393.676 2.30804 375.11 3.28788C366.527 3.74069 356.155 3.16292 348.069 6.52437C346.569 7.1487 341.191 10.6231 345.556 12.0378C346.917 12.4791 348.299 10.9957 349.417 10.4986C351.278 9.67186 353.432 9.41595 355.416 9.09317C372.287 6.35191 389.934 6.82916 406.978 5.54821C411.345 5.2199 415.715 4.88192 420.073 4.44802C423.187 4.13816 429.731 1.86722 432.605 3.02874C437.515 5.01333 437.4 17.9085 437.497 22.3434C437.547 24.637 435.347 32.87 439.721 32.0354C443.221 31.3672 441.954 22.8142 441.681 20.4746C440.965 14.3419 439.744 -0.863894 430.942 0.0384858Z" fill="#C1DEE2"/>
<path opacity="0.5" fill-rule="evenodd" clip-rule="evenodd" d="M437.764 31.7381C421.695 33.2063 405.255 31.7658 389.12 32.3431C380.663 32.6465 372.214 33.1284 363.755 33.411C360.097 33.5337 356.435 33.5387 352.775 33.565C351.024 33.577 343.058 34.6509 347.986 38.1627C350.168 39.7175 357.122 38.4652 359.626 38.4347C363.387 38.39 367.146 38.2318 370.904 38.0829C379.609 37.7385 388.309 37.2612 397.018 37.0228C405.35 36.7946 413.685 36.7457 422.016 36.5175C426.161 36.4036 430.363 36.2749 434.472 35.6626C435.399 35.5242 438.41 35.4145 439.054 34.3683C439.662 33.3792 439.235 31.5947 437.764 31.7381Z" fill="#89C5CC"/>
<path opacity="0.5" fill-rule="evenodd" clip-rule="evenodd" d="M358.787 19.5305C358.701 19.7375 358.701 19.7375 358.787 19.5305V19.5305ZM365.746 17.3905C366 17.4993 366 17.4993 365.746 17.3905V17.3905ZM365.42 17.331C369.17 21.1987 363.403 25.8153 359.891 22.0407C356.162 18.0346 363.006 17.3439 365.42 17.331ZM361.443 11.4796C348.526 13.8054 353.099 31.2245 365.163 28.7069C370.46 27.6021 373.489 22.203 371.666 17.017C370.954 14.9909 369.401 12.767 367.239 12.1284C366.161 11.8102 365.208 12.311 364.181 12.1938C363.202 12.0823 362.658 11.2578 361.443 11.4796Z" fill="#C1DEE2"/>
<path opacity="0.5" fill-rule="evenodd" clip-rule="evenodd" d="M410.878 16.3825C403.089 16.4074 395.298 16.7421 387.51 16.8915C385.121 16.9372 378.981 15.8554 378.972 19.666C378.961 23.7375 385.8 22.2339 388.076 22.179C395.801 21.9922 403.546 21.6496 411.241 20.9054C413.184 20.7173 419.912 21.0419 419.905 18.3675C419.898 15.534 412.447 16.3825 410.878 16.3825Z" fill="#C1DEE2"/>
<path opacity="0.5" fill-rule="evenodd" clip-rule="evenodd" d="M429.481 42.9578C410.217 43.4807 390.982 43.6628 371.733 44.6606C364.533 45.0337 357.343 45.3112 350.133 45.3112C348.744 45.3112 345.948 44.7671 344.641 45.652C341.094 48.052 345.133 50.1123 347.445 50.2418C363.258 51.1299 379.299 48.9198 395.103 48.4209C404.355 48.1291 413.609 48.0428 422.856 47.5665C425.378 47.4365 427.901 47.2857 430.42 47.0879C431.868 46.9745 435.698 47.2857 436.869 46.4285C441.98 42.6853 431.204 42.9107 429.481 42.9578Z" fill="#89C5CC"/>
<path opacity="0.5" fill-rule="evenodd" clip-rule="evenodd" d="M341.094 52.4886C340.913 57.5423 340.894 62.5079 341.548 67.5339C341.805 69.5116 341.923 71.7558 344.214 72.2584C346.294 72.7144 347.349 71.1222 347.781 69.3566C348.832 65.0453 347.907 58.8403 347.894 54.3616C347.889 52.1473 347.887 49.6689 345.182 49.1681C343.119 48.7859 341.173 50.2946 341.094 52.4886Z" fill="#89C5CC"/>
<path opacity="0.5" fill-rule="evenodd" clip-rule="evenodd" d="M449.901 64.6724C418.717 66.3352 387.574 67.7867 356.368 69.1216C353.934 69.2258 335.028 69.0174 341.637 75.6887C343.679 77.7489 348.939 76.3536 351.579 76.2226C355.546 76.0253 359.516 75.8745 363.483 75.6702C379.214 74.8601 394.985 74.6415 410.704 73.7322C419.354 73.2319 427.985 72.4489 436.59 71.4294C440.683 70.9448 445.763 70.9951 449.597 69.372C451.569 68.5369 453.697 64.4686 449.901 64.6724Z" fill="#89C5CC"/>
<path opacity="0.5" fill-rule="evenodd" clip-rule="evenodd" d="M431.971 39.0355C429.599 41.4254 430.818 46.1402 430.997 49.094C431.243 53.1591 431.542 57.2265 432.043 61.269C432.37 63.895 432.197 67.9822 433.582 70.2504C435.203 72.9068 438.773 72.6131 440.239 70.0465C441.536 67.777 440.879 63.0013 440.846 60.486C440.799 57.0079 440.585 53.5243 440.381 50.0531C440.21 47.1518 440.86 42.5025 439.283 40.0195C437.681 37.4963 434.193 36.7991 431.971 39.0355Z" fill="#89C5CC"/>
<path opacity="0.5" fill-rule="evenodd" clip-rule="evenodd" d="M360.694 57.5819C360.416 57.7986 360.416 57.7986 360.694 57.5819V57.5819ZM366.233 56.8797C371.401 57.9314 363.044 64.0369 360.403 59.8464C359.991 59.1916 359.776 58.387 360.438 57.818C361.043 57.2983 361.423 58.2182 361.994 57.9711C362.977 57.545 365.184 56.84 366.233 56.8797ZM365.52 51.867C361.992 52.1497 357.14 52.3701 355.394 55.9492C353.047 60.7562 357.06 65.464 361.702 66.1953C366.169 66.8994 372.839 64.3956 373.197 59.1238C373.485 54.8734 369.49 51.541 365.52 51.867Z" fill="#89C5CC"/>
<path opacity="0.5" fill-rule="evenodd" clip-rule="evenodd" d="M394.978 54.4093C391.325 54.4687 384.146 53.3759 380.963 55.1774C377.815 56.9601 379.219 60.1343 382.091 60.8937C383.99 61.3954 387.093 60.5857 389.071 60.5041C391.671 60.3971 394.274 60.3741 396.876 60.3377C401.252 60.2782 405.626 60.3284 410.003 60.3284C414.473 60.3284 419.019 60.452 423.481 60.1196C429.127 59.699 428.975 55.4214 423.454 54.8865C414.074 53.9781 404.389 54.2594 394.978 54.4093Z" fill="#89C5CC"/>
<path opacity="0.5" fill-rule="evenodd" clip-rule="evenodd" d="M385.647 102.318C385.647 104.351 387.43 102.318 387.417 102.318C387.43 102.318 385.647 100.286 385.647 102.318Z" fill="#89C5CC"/>
<path opacity="0.5" fill-rule="evenodd" clip-rule="evenodd" d="M345.334 85.9577C345.449 91.8654 345.525 97.7786 345.774 103.682C345.853 105.548 345.325 109.193 347.561 110.145C350.05 111.204 350.823 108.564 351.11 106.775C352.018 101.107 351.128 94.6352 351.041 88.9C351.011 86.9744 351.423 84.2936 349.262 83.3336C347.499 82.5502 345.299 84.0045 345.334 85.9577Z" fill="#89C5CC"/>
<path opacity="0.5" fill-rule="evenodd" clip-rule="evenodd" d="M441.348 86.0506C441.496 86.4024 441.496 86.4024 441.348 86.0506V86.0506ZM441.557 85.9902C441.676 86.0409 442.16 86.2461 441.557 85.9902V85.9902ZM394.391 81.2154C385.428 81.3575 376.459 81.4654 367.502 81.8536C363.679 82.0196 359.812 82.1533 356.002 82.5181C353.304 82.7763 346.6 82.8837 344.85 85.115C341.239 89.7205 348.897 88.4645 350.547 88.0905C353.549 87.4095 356.613 87.1914 359.68 87.0277C366.335 86.6726 372.993 86.4826 379.656 86.3471C397.725 85.9791 415.807 86.0349 433.879 85.9524C435.629 85.9445 438.791 85.2326 440.407 85.9487C442.026 86.6666 441.934 88.4313 442.103 90.4804C442.327 93.2064 440.549 98.4017 441.903 100.695C444.004 104.252 447.058 101.231 447.525 98.6382C448.17 95.055 447.148 90.7525 446.147 87.3274C444.735 82.495 442.774 82.3027 438.155 81.9251C432.758 81.4838 427.38 81.2164 421.965 81.1657C412.776 81.0803 403.58 81.0711 394.391 81.2154Z" fill="#89C5CC"/>
<path opacity="0.5" fill-rule="evenodd" clip-rule="evenodd" d="M429.84 105.636C410.4 107.92 390.406 106.575 370.861 106.655C366.109 106.675 361.352 106.713 356.604 106.947C354.096 107.069 348.151 106.37 346.433 108.327C342.811 112.454 349.335 113.054 351.717 112.883C356.532 112.537 361.359 112.379 366.187 112.341C383.192 112.208 400.293 113.011 417.284 112.162C424.402 111.807 431.362 110.575 438.349 109.198C439.897 108.892 450.492 106.854 444.45 104.411C440.879 102.968 433.591 105.193 429.84 105.636Z" fill="#89C5CC"/>
<path opacity="0.5" fill-rule="evenodd" clip-rule="evenodd" d="M373.079 98.0821C372.944 98.2582 372.944 98.2582 373.079 98.0821V98.0821ZM372.949 98.0516C372.902 98.178 372.76 98.4901 372.949 98.0516V98.0516ZM371.722 96.4511C371.751 96.488 371.866 96.6379 371.722 96.4511V96.4511ZM371.675 96.4392C372.143 97.0045 372.459 97.6353 372.621 98.3311C368.593 99.4349 367.041 96.1381 371.675 96.4392ZM371.42 96.2847C371.422 96.2856 371.988 96.5268 371.42 96.2847V96.2847ZM364.803 91.3725C362.197 94.6574 360.045 98.4855 363.295 102.238C366.201 105.592 372.048 106.025 375.736 103.785C379.535 101.478 379.207 96.6194 376.556 93.4484C374.85 91.4067 373.467 91.4634 370.991 91.13C369.305 90.9031 366.234 89.577 364.803 91.3725Z" fill="#89C5CC"/>
<path opacity="0.5" fill-rule="evenodd" clip-rule="evenodd" d="M391.752 97.452C391.752 101.826 410.417 99.9433 413.738 99.9387C416.519 99.9346 433.339 101.487 432.132 96.9858C431.14 93.2873 414.573 95.1257 411.044 95.1202C407.995 95.116 391.752 92.9973 391.752 97.452Z" fill="#89C5CC"/>
</g>
<path fill-rule="evenodd" clip-rule="evenodd" d="M226.834 141.663C228.434 146.627 230.759 158.068 228.984 159.945L217.343 160.442C217.341 160.421 217.339 160.401 217.337 160.38C213.001 160.086 209.489 156.56 209.3 152.104L208.951 143.877C208.748 139.096 212.447 135.055 217.214 134.851L218.017 134.817C222.292 134.634 225.974 137.6 226.834 141.663Z" fill="#191847"/>
<path fill-rule="evenodd" clip-rule="evenodd" d="M213.757 150.388C211.815 148.308 210.451 145.716 210.534 142.743C210.774 134.177 222.813 135.545 225.322 139.756C227.832 143.967 228.02 154.913 225.046 155.812C223.86 156.17 221.274 155.527 218.608 154.08L220.727 165.486L211.093 165.898L213.757 150.388Z" fill="#B28B67"/>
<path fill-rule="evenodd" clip-rule="evenodd" d="M216.3 148.834C216.946 153.556 216.998 158.977 215.729 160.318L204.088 160.816C202.963 149.64 209.416 153.71 208.968 143.162C209.343 142.765 209.696 142.374 210.048 142.034L210.022 141.725C211.863 137.536 214.334 135.375 217.433 135.243C222.081 135.044 223.64 137.132 224.967 138.904C224.168 142.131 220.563 142.758 217.426 144.882C217.033 144.591 216.541 144.428 216.014 144.451C214.794 144.503 213.847 145.528 213.899 146.74C213.95 147.952 214.981 148.893 216.2 148.841C216.234 148.839 216.267 148.837 216.3 148.834Z" fill="#191847"/>
<path fill-rule="evenodd" clip-rule="evenodd" d="M185.571 233.872C194.395 238.604 202.22 241.732 209.047 243.258C215.873 244.783 222.663 244.176 229.417 241.435C220.809 236.679 213.527 233.635 207.569 232.304C201.612 230.973 194.279 231.495 185.571 233.872Z" fill="#D6814E"/>
<path fill-rule="evenodd" clip-rule="evenodd" d="M216.348 248.867C216.287 248.711 216.244 248.546 216.219 248.371C215.699 244.768 203.519 204.419 202.968 197.417L225.646 202.485C226.065 207.808 225.986 240.614 225.567 247.069C226.43 257.591 225.629 290.866 225.94 293.254C226.267 295.765 220.985 297.124 220.355 293.986C219.353 288.993 217.353 275.35 216.924 267.196C216.522 259.552 216.331 252.714 216.348 248.867Z" fill="#997659"/>
<path fill-rule="evenodd" clip-rule="evenodd" d="M196.822 249.098C187.097 249.366 152.478 246.042 150.019 246.185C147.491 246.332 146.494 240.969 149.669 240.565C154.72 239.922 168.474 238.902 176.641 239.056C183.21 239.18 189.176 239.417 193.162 239.666C195.237 228.787 199.506 202.522 201.727 197.139L221.794 201.624C219.663 206.785 203.036 244.204 200.692 247.797C199.914 249.093 198.382 249.401 196.822 249.098Z" fill="#B28B67"/>
<path fill-rule="evenodd" clip-rule="evenodd" d="M150.151 239.267C148.972 238.763 148.085 238.497 147.49 238.471C146.766 238.438 145.704 238.512 144.305 238.691C144.267 239.534 143.93 247.103 143.292 261.399C145.211 262.077 146.276 261.783 146.488 260.519C146.7 259.254 146.887 258.204 147.049 257.369L152.211 247.025C152.31 246.826 152.23 246.584 152.032 246.484C152.028 246.483 152.025 246.481 152.021 246.479L150.411 245.727C149.916 244.526 149.685 243.557 149.718 242.821C149.744 242.223 150.022 241.409 150.55 240.377L150.55 240.377C150.753 239.981 150.597 239.495 150.203 239.291C150.186 239.283 150.168 239.275 150.151 239.267Z" fill="#E4E4E4"/>
<path fill-rule="evenodd" clip-rule="evenodd" d="M219.271 294.406C218.806 295.604 218.57 296.501 218.563 297.099C218.554 297.825 218.661 298.887 218.885 300.284C219.726 300.295 227.279 300.39 241.546 300.569C242.159 298.624 241.832 297.565 240.565 297.394C239.299 297.222 238.246 297.068 237.409 296.932L226.935 292.09C226.734 291.997 226.495 292.086 226.402 292.288C226.4 292.291 226.399 292.295 226.397 292.298L225.7 293.937C224.518 294.472 223.561 294.735 222.826 294.725C222.23 294.718 221.409 294.466 220.364 293.969L220.364 293.969C219.962 293.779 219.483 293.951 219.293 294.353C219.285 294.37 219.278 294.388 219.271 294.406Z" fill="#E4E4E4"/>
<path fill-rule="evenodd" clip-rule="evenodd" d="M201.792 197.154C211.196 196.602 219.563 198.472 226.892 202.763C226.857 215.891 232.424 222.349 229.335 241.798C214.531 245.438 200.578 230.416 185.418 233.804C183.502 223.898 193.823 203.379 201.792 197.154Z" fill="#F19259"/>
<path fill-rule="evenodd" clip-rule="evenodd" d="M228.471 175.912L242.743 168.921C245.182 166.279 247.56 164.249 249.877 162.83C250.577 162.575 251.786 162.455 250.573 164.395C249.361 166.336 248.173 168.431 248.718 169.07C249.263 169.709 250.729 168.916 251.367 169.966C251.792 170.666 249.305 171.629 243.906 172.857L233.37 181.654L228.471 175.912ZM250.005 183.317L256.275 180.236C257.279 177.013 258.379 175.418 259.574 175.451C260.51 175.066 258.729 179.116 260.484 178.836C262.239 178.557 266.624 175.596 267.327 176.269C268.367 177.264 267.273 180.127 266.072 181.522C263.826 184.128 262.026 184.973 257.624 185.988C255.322 186.519 252.808 187.677 250.081 189.462L250.005 183.317Z" fill="#997659"/>
<path fill-rule="evenodd" clip-rule="evenodd" d="M221.761 173.911C226.644 174.079 233.197 173.342 240.337 169.254L242.793 175.446C237.792 179.975 230.884 183.571 225.003 183.142C220.368 182.804 218.246 177.095 221.761 173.911Z" fill="#CAB5A8"/>
<path fill-rule="evenodd" clip-rule="evenodd" d="M227.899 183.939C233.022 185.461 241.778 184.33 254.166 180.546C256.912 186.927 258.112 191.443 257.765 194.092C247.061 199.077 237.986 201.107 230.592 200.936C230.631 205.321 229.912 209.46 227.951 213.183C223.917 220.837 202.665 212.628 195.347 213.728C191.461 198.799 200.512 193.209 200.939 183.788C201.406 173.47 210.415 157.961 211.637 158.016L222.774 158.515C223.037 166.423 225.743 175.246 227.899 183.939Z" fill="#E3CDC0"/>
<g opacity="0.5">
<path opacity="0.5" fill-rule="evenodd" clip-rule="evenodd" d="M354.689 264.641C364.037 266.002 373.761 270.411 373.679 281.325C373.611 290.501 365.938 300.267 356.085 299.719C347.219 299.226 338.87 289.5 337.759 281.166C337.184 276.848 338.26 272.199 340.793 268.647C344.111 263.993 349.376 264 354.689 264.641ZM350.274 258.709C343.513 258.746 338.566 261.199 334.382 266.377C332.881 268.233 331.136 270.232 329.994 272.335C328.927 274.3 329.114 279.295 332.775 276.953C331.873 286.625 337.509 296.012 345.61 300.968C354.416 306.355 364.37 305.305 371.699 297.754C378.408 290.842 380.769 279.167 375.861 270.618C370.955 262.074 359.59 258.617 350.274 258.709Z" fill="#89C5CC"/>
<path opacity="0.5" fill-rule="evenodd" clip-rule="evenodd" d="M370.547 256.117C366.219 259.299 362.267 263.489 358.984 267.739C355.775 271.893 353.654 277.08 349.799 280.702C347.853 278.575 345.572 272.832 341.689 275.111C338.467 277.001 340.542 280.253 342.111 282.388C346.164 287.901 350.664 290.119 355.861 284.672C360.581 279.726 363.261 273.127 367.675 267.896C369.611 265.601 372.601 263.323 374.143 260.789C375.54 258.492 373.812 253.71 370.547 256.117Z" fill="#89C5CC"/>
</g>
<path fill-rule="evenodd" clip-rule="evenodd" d="M721.16 208.114L698.166 266.487L682.744 315.837L676.654 315.837L700.231 208.114L721.16 208.114Z" fill="#D2B090"/>
<path fill-rule="evenodd" clip-rule="evenodd" d="M725.79 208.114C726.035 228.626 729.605 256.244 730.176 257.522C730.556 258.375 743.686 269.215 769.565 290.044L765.371 294.546C734.836 276.688 718.862 266.568 717.449 264.187C715.329 260.614 708.429 227.738 702.888 208.114L725.79 208.114Z" fill="#E7C4A3"/>
<path fill-rule="evenodd" clip-rule="evenodd" d="M770.128 288.541C771.537 289.04 772.507 289.514 773.039 289.961C773.686 290.506 774.54 291.409 775.601 292.67C774.971 293.423 769.31 300.191 758.616 312.973C756.436 312.037 755.752 310.942 756.564 309.689C757.377 308.435 758.041 307.386 758.559 306.54L762.259 293.574C762.33 293.324 762.589 293.18 762.838 293.251C762.842 293.252 762.847 293.254 762.851 293.255L764.825 293.883C766.195 293.243 767.155 292.594 767.705 291.936C768.153 291.401 768.555 290.482 768.912 289.178L768.912 289.178C769.05 288.677 769.565 288.383 770.064 288.521C770.086 288.527 770.107 288.533 770.128 288.541Z" fill="#E4E4E4"/>
<path fill-rule="evenodd" clip-rule="evenodd" d="M685.237 313.559C685.761 314.962 686.023 316.012 686.023 316.709C686.023 317.556 685.883 318.793 685.601 320.419C684.621 320.419 675.813 320.419 659.178 320.419C658.491 318.142 658.887 316.913 660.367 316.731C661.846 316.549 663.075 316.385 664.054 316.239L676.335 310.748C676.571 310.642 676.848 310.748 676.954 310.985C676.956 310.99 676.957 310.994 676.959 310.998L677.748 312.918C679.118 313.559 680.231 313.88 681.087 313.88C681.783 313.88 682.744 313.598 683.969 313.034L683.969 313.034C684.44 312.818 684.996 313.025 685.212 313.497C685.221 313.517 685.229 313.538 685.237 313.559Z" fill="#E4E4E4"/>
<path fill-rule="evenodd" clip-rule="evenodd" d="M705.7 310.754L676.745 307.602L698.204 208.114L724.138 208.114L705.7 310.754Z" fill="#69A1AC"/>
<path fill-rule="evenodd" clip-rule="evenodd" d="M763.577 282.78L744.585 305.328C724.58 283.414 712.918 269.115 709.597 262.432C706.276 255.748 703.291 237.642 700.641 208.114L729.838 208.114C731.285 234.091 732.261 247.684 732.765 248.893C733.268 250.102 743.539 261.398 763.577 282.78Z" fill="#89C5CC"/>
<path fill-rule="evenodd" clip-rule="evenodd" d="M712.351 135.699C713.727 132.621 714.265 129.186 713.042 125.871C709.521 116.319 696.612 122.428 695.413 128.121C694.213 133.813 698.16 146.206 701.819 146.089C703.278 146.042 705.918 144.337 708.342 141.696L710.31 155.34L721.213 152.147L712.351 135.699Z" fill="#E7C4A3"/>
<mask id="mask0" mask-type="alpha" maskUnits="userSpaceOnUse" x="695" y="116" width="32" height="24">
<path d="M695.57 126.004C695.493 125.381 695.219 125.145 697.115 122.771C699.011 120.397 702.284 117.294 706.411 117.019C711.767 116.661 714.734 119.404 717.146 120.454C719.319 121.401 721.123 121.057 722.69 122.563C724.257 124.068 726.327 129.114 726.025 131.449C725.609 134.67 723.373 136.16 721.817 137.509C719.148 139.822 714.362 139.606 714.184 139.39C712.813 137.72 706.854 133.618 703.554 132.128C701.127 131.033 695.935 128.926 695.57 126.004Z" fill="white"/>
</mask>
<g mask="url(#mask0)">
<path fill-rule="evenodd" clip-rule="evenodd" d="M716.85 119.304C717.542 124.728 716.776 130.1 714.552 135.417C717.687 131.076 719.073 125.884 718.711 119.84L716.85 119.304ZM719.452 120.689C719.732 126.653 717.782 132.937 713.6 139.542C718.961 133.695 721.57 127.412 721.425 120.694L719.452 120.689Z" fill="black" fill-opacity="0.2"/>
</g>
<path fill-rule="evenodd" clip-rule="evenodd" d="M721.217 146.511C721.102 146.152 720.985 145.791 720.867 145.43L720.449 145.634C720.383 145.567 720.316 145.501 720.249 145.438L707.029 147.659C707.122 155.131 701.283 162.196 697.61 168.258C691.899 177.682 681.658 188.176 688.482 201.982C694.63 214.422 710.262 216.257 735.378 207.488C735.294 200.747 729.684 194.04 729.405 185.845C729.14 178.044 727.388 154.421 721.217 146.511Z" fill="#F19259"/>
<path fill-rule="evenodd" clip-rule="evenodd" d="M705.41 198.219C704.466 193.645 703.853 190.591 703.57 189.057C696.614 197.145 692.588 201.242 691.492 201.348C689.432 201.549 687.885 199.734 687.457 200.255C686.767 202.4 688.86 207.721 692.742 208.449C694.596 208.797 697.409 204.936 698.571 203.566C699.028 203.027 701.308 201.245 705.41 198.219ZM692.913 173.926C691.084 173.949 690.111 174.72 689.048 176.264C687.986 177.808 687.053 185.039 688.79 185.017C690.526 184.995 697.767 182.113 697.743 180.237C697.72 178.362 692.745 177.63 692.727 176.218C692.71 174.806 694.742 173.903 692.913 173.926Z" fill="#E7C4A3"/>
<path fill-rule="evenodd" clip-rule="evenodd" d="M709.191 205.15C709.304 205.539 709.42 205.935 709.538 206.338C730.081 191.547 729.87 173.941 723.458 154.284C728.348 173.653 726.661 190.063 709.191 205.15Z" fill="black" fill-opacity="0.2"/>
<path fill-rule="evenodd" clip-rule="evenodd" d="M700.9 119.437C702.468 118.948 704.746 118.782 705.704 118.894C705.159 117.558 704.943 116.07 705.119 114.62C705.29 113.212 705.905 112.013 706.474 110.757C706.736 110.178 707.033 109.602 707.476 109.159C707.928 108.707 708.499 108.409 709.098 108.267C709.711 108.122 710.352 108.134 710.966 108.266C711.237 108.324 711.481 108.451 711.747 108.522C712.02 108.594 712.152 108.42 712.35 108.244C712.827 107.821 713.527 107.612 714.13 107.538C714.808 107.454 715.51 107.558 716.156 107.786C716.785 108.008 717.389 108.368 717.843 108.893C718.046 109.126 718.229 109.392 718.349 109.685C718.398 109.806 718.406 109.877 718.523 109.921C718.632 109.962 718.759 109.963 718.871 110.002C719.955 110.378 720.882 111.235 721.386 112.335C721.681 112.977 721.82 114.107 721.782 115.373C721.744 116.64 720.626 119.945 719.58 121.151C718.647 122.227 717.275 122.937 715.952 123.248C716.83 124.275 717.415 125.559 717.848 126.865C718.318 128.284 718.608 129.758 718.716 131.26C718.818 132.687 718.827 134.196 718.5 135.592C718.194 136.898 717.54 137.969 716.448 138.649C715.948 138.96 715.41 139.194 714.869 139.408C714.335 139.619 713.8 139.824 713.241 139.942C712.184 140.165 710.965 140.127 710.151 139.266C709.857 138.955 709.534 138.565 709.32 138.186C709.243 138.05 709.197 137.96 709.29 137.827C709.402 137.667 709.584 137.545 709.728 137.42C710.549 136.708 711.057 135.757 711.185 134.627C711.315 133.481 711.014 132.001 709.925 131.501C708.58 130.883 707.099 131.592 705.904 132.253C705.396 130.418 704.353 128.767 702.718 127.925C700.908 126.994 698.832 126.885 696.973 126.087C696.489 125.879 695.995 125.642 695.639 125.218C695.49 125.041 695.315 124.811 695.255 124.577C695.177 124.269 695.371 124.011 695.521 123.771C696.316 122.498 699.331 119.926 700.9 119.437Z" fill="#AE8F53"/>
<path fill-rule="evenodd" clip-rule="evenodd" d="M30.1729 224.266L43.8313 271.474L50.2556 306.918H56.7036L50.2671 224.266H30.1729Z" fill="#D4B190"/>
<path fill-rule="evenodd" clip-rule="evenodd" d="M24.0357 224.266C24.9887 248.79 24.6128 262.166 24.3995 264.394C24.1862 266.623 22.9753 281.545 14.7236 307.666H21.4301C32.3581 282.607 36.173 267.685 37.4263 264.394C38.6797 261.104 42.3814 247.728 47.7857 224.266H24.0357Z" fill="#D4B190"/>
<path fill-rule="evenodd" clip-rule="evenodd" d="M29.8799 224.266C33.4327 240.51 39.5775 266.44 48.3143 302.056H57.7452C58.4418 265.5 55.4786 241.44 50.347 224.266H29.8799Z" fill="#AAD1E4"/>
<path fill-rule="evenodd" clip-rule="evenodd" d="M23.9872 224.266C24.9206 248.79 22.5017 272.951 15.0088 302.438H25.0711C36.0192 277.753 43.866 253.712 49.2288 224.266H23.9872Z" fill="#B7E6FE"/>
<path fill-rule="evenodd" clip-rule="evenodd" d="M13.7666 312.528L14.1366 306.544C16.3032 307.179 19.0168 306.93 22.2776 305.796C25.7837 308.287 30.1974 309.988 35.5187 310.899L35.5187 310.899C35.9247 310.968 36.1977 311.355 36.1284 311.762C36.1239 311.788 36.118 311.814 36.1107 311.84L35.5991 313.65H22.2776H14.5067L13.7666 312.528Z" fill="#E3CDC0"/>
<path fill-rule="evenodd" clip-rule="evenodd" d="M48.8164 312.528L49.1864 306.544C51.353 307.179 54.0666 306.93 57.3274 305.796C60.8335 308.287 65.2472 309.988 70.5685 310.899L70.5685 310.899C70.9745 310.968 71.2475 311.355 71.1782 311.762C71.1737 311.788 71.1678 311.814 71.1605 311.84L70.6489 313.65H57.3274H49.5565L48.8164 312.528Z" fill="#E3CDC0"/>
<path fill-rule="evenodd" clip-rule="evenodd" d="M33.6257 173.18C31.9075 171.157 30.7446 168.678 30.939 165.901C31.4988 157.897 42.6067 159.658 44.7674 163.697C46.9281 167.737 46.6713 177.983 43.8788 178.705C42.7652 178.993 40.3927 178.288 37.9782 176.828L39.4938 187.583H30.5449L33.6257 173.18Z" fill="#D5B190"/>
<path fill-rule="evenodd" clip-rule="evenodd" d="M27.0384 163.236C26.7494 162.949 26.5917 162.539 26.4553 162.15C26.3137 161.745 26.1761 161.337 26.0821 160.916C25.8942 160.074 25.8924 159.107 26.4907 158.454C26.9705 157.93 27.6904 157.695 28.3549 157.644C28.7976 157.61 29.2523 157.672 29.6766 157.812C30.0976 157.951 30.4606 158.227 30.8687 158.399C30.8843 157.493 31.0391 156.544 31.4976 155.77C31.9389 155.025 32.6423 154.608 33.4434 154.497C34.2657 154.383 35.0777 154.576 35.8138 154.976C35.9981 155.076 36.1806 155.181 36.3554 155.299C36.5017 155.398 36.6538 155.518 36.8254 155.558C37.0168 155.603 37.1117 155.493 37.236 155.352C37.3819 155.188 37.5462 155.044 37.72 154.915C38.4888 154.349 39.4974 154.116 40.3881 154.455C40.7984 154.612 41.1974 154.878 41.4758 155.244C41.724 155.571 41.901 156.088 42.2435 156.316C42.3889 156.413 42.4915 156.285 42.6239 156.19C42.8226 156.048 43.0122 155.891 43.2134 155.753C43.496 155.559 43.802 155.414 44.1296 155.338C44.6093 155.226 45.2721 155.252 45.4092 155.882C45.4607 156.119 45.4213 156.372 45.4046 156.611C45.3818 156.938 45.358 157.265 45.3296 157.592C45.3081 157.841 45.2809 158.08 45.2342 158.324C45.2093 158.454 45.1313 158.696 45.1869 158.827C45.2563 158.989 45.5767 158.897 45.7136 158.902C45.984 158.914 46.2556 158.961 46.5056 159.077C46.6993 159.167 46.9031 159.299 46.9849 159.522C47.0351 159.659 47.0219 159.799 46.9981 159.94C46.9696 160.109 47.0022 160.199 47.0235 160.369C47.3867 160.19 48.6452 159.791 48.8035 160.444C48.8562 160.661 48.7362 160.907 48.6446 161.09C48.4839 161.412 48.2733 161.706 48.058 161.986C47.6088 162.571 47.0726 163.075 46.4957 163.506C47.1717 163.808 47.3481 164.697 46.7629 165.226C46.5045 165.46 46.1571 165.512 45.8311 165.497C45.7118 165.492 45.5399 165.446 45.446 165.467C45.3955 165.478 45.3414 165.521 45.2714 165.525C44.8114 165.557 44.2922 165.446 43.8425 165.344C43.0413 165.161 42.2828 164.78 41.6633 164.201C41.5044 164.052 41.3732 163.966 41.1593 163.968C40.9719 163.97 40.788 164.022 40.6007 164.027C40.1053 164.039 39.6586 163.796 39.1985 163.635C39.1704 164.258 38.9934 164.945 38.7391 165.505C38.5318 165.963 38.0989 166.029 37.6734 166.069C36.313 166.198 34.9478 166.054 33.5856 166.056C34.9042 166.355 36.2668 166.478 37.5737 166.83C38.1644 166.989 37.7133 167.389 37.4607 167.665C37.0448 168.121 36.7356 168.686 36.5211 169.281C35.876 168.438 34.7359 167.882 33.7258 168.141C32.6097 168.427 31.8238 169.941 32.5375 171.03C32.9519 171.661 33.7001 171.905 34.3227 172.177C33.837 172.683 33.7195 173.431 33.4272 174.061C33.283 174.372 33.0806 174.723 32.7582 174.832C32.6389 174.872 32.499 174.875 32.4049 174.973C32.2883 175.093 32.2606 175.229 32.1117 175.332C31.5176 175.747 30.5896 175.715 30.0631 175.174C29.5869 174.685 29.7108 173.911 30.1085 173.416C29.4754 173.151 28.3221 172.811 28.5737 171.821C27.2019 171.73 23.8714 169.499 25.7125 167.868C24.7021 167.295 23.7738 165.896 24.4228 164.662C24.9226 163.711 26.0848 163.287 27.0384 163.236Z" fill="#FFE39C"/>
<path fill-rule="evenodd" clip-rule="evenodd" d="M61.887 217.449L74.4914 226.733C77.91 227.658 80.7661 228.809 83.0598 230.186C83.6016 230.681 84.2564 231.684 82.0094 231.511C79.7624 231.338 77.3912 231.257 77.0811 232.025C76.7711 232.794 78.1309 233.713 77.5041 234.751C77.0863 235.442 75.1124 233.708 71.5823 229.549L59.1006 224.358L61.887 217.449ZM13.4923 217.77L21.7498 217.802C16.6512 234.311 13.8987 243.07 13.4923 244.081C12.5779 246.353 14.5128 249.815 15.3402 251.675C12.6453 252.884 12.9325 248.405 9.53293 249.991C6.42998 251.439 4.06957 254.063 0.484557 251.844C0.0438006 251.571 -0.439197 250.544 0.727786 249.742C3.63516 247.742 7.82487 244.243 8.39097 243.091C9.16294 241.52 10.8634 233.08 13.4923 217.77Z" fill="#D4B190"/>
<path fill-rule="evenodd" clip-rule="evenodd" d="M36.9583 183.016L40.3752 182.428C53.0528 193.413 58.2599 214.515 73.7995 225.694L70.0592 230.344C43.1009 226.996 36.419 201.256 36.9583 183.016Z" fill="#D58251"/>
<path fill-rule="evenodd" clip-rule="evenodd" d="M22.0635 226.085C35.7638 226.085 45.8415 226.085 52.2966 226.085C53.6781 226.085 53.4178 224.084 53.2181 223.074C50.9132 211.422 41.9161 198.861 41.9161 182.274L33.1954 180.903C25.9823 192.539 23.4879 206.864 22.0635 226.085Z" fill="#DDE3E9"/>
<path fill-rule="evenodd" clip-rule="evenodd" d="M22.3064 192.34C21.0398 191.975 20.0368 191.123 19.2974 189.785C16.11 184.016 17.2611 180.84 20.6674 179.796C24.0738 178.752 27.1115 180.903 32.5387 180.903C32.8339 180.903 33.1043 180.921 33.3498 180.958L36.0798 181.115C43.9126 207.74 46.0728 225.505 42.5605 234.408H18.7647C17.3548 237.705 16.0057 240.48 14.7173 242.731H8.23335C7.62312 222.941 12.3141 206.144 22.3064 192.34Z" fill="#F19259"/>
<path fill-rule="evenodd" clip-rule="evenodd" d="M23.9463 220.734C24.6947 227.014 25.9111 231.572 27.5954 234.408H18.7646C20.4092 230.562 22.1365 226.004 23.9463 220.734V220.734Z" fill="black" fill-opacity="0.1"/>
<path fill-rule="evenodd" clip-rule="evenodd" d="M629.745 169.186C625.311 169.186 623.698 163.861 621.179 160.938C619.376 158.847 616.3 159.471 615.389 156.544C613.099 149.183 619.228 144.003 627.223 144.003C635.219 144.003 640.61 148.546 641.774 155.376C642.938 162.206 637.741 169.186 629.745 169.186Z" fill="#2B2842"/>
<path fill-rule="evenodd" clip-rule="evenodd" d="M629.256 164.431C631.044 162.326 632.254 159.746 632.052 156.856C631.469 148.527 619.91 150.359 617.662 154.563C615.413 158.766 615.68 169.429 618.586 170.18C619.745 170.48 622.214 169.746 624.727 168.227L623.15 179.418H632.462L629.256 164.431Z" fill="#B28B67"/>
<path fill-rule="evenodd" clip-rule="evenodd" d="M625.33 159.073C625.669 158.893 626.056 158.791 626.468 158.791C627.788 158.791 628.857 159.837 628.857 161.127C628.857 161.653 628.679 162.139 628.378 162.529C628.944 163.465 629.331 164.448 629.457 165.459C631.419 165.459 638.579 158.013 631.446 151.008C624.314 144.003 614.006 154.003 617.103 154.586C618.884 154.921 622.471 156.627 625.33 159.073V159.073Z" fill="#2B2842"/>
<path fill-rule="evenodd" clip-rule="evenodd" d="M635.567 211.72L620.966 259.599L613.893 300.317H608.347L615.821 211.72H635.567Z" fill="#997659"/>
<path fill-rule="evenodd" clip-rule="evenodd" d="M640.79 211.72C639.798 238.008 640.966 251.568 641.188 253.957C641.41 256.345 644.449 271.831 651.645 301.119L645.735 299.083C634.363 272.222 630.488 258.262 629.184 254.735C627.879 251.208 624.415 236.87 618.791 211.72H640.79Z" fill="#B28B67"/>
<path fill-rule="evenodd" clip-rule="evenodd" d="M651.601 299.054C652.035 300.216 652.252 301.086 652.252 301.663C652.252 302.364 652.135 303.389 651.902 304.735C651.091 304.735 643.796 304.735 630.018 304.735C629.449 302.849 629.777 301.831 631.002 301.681C632.228 301.53 633.246 301.395 634.056 301.274L644.228 296.725C644.424 296.638 644.653 296.726 644.74 296.922C644.742 296.926 644.743 296.929 644.745 296.932L645.398 298.523C646.533 299.054 647.454 299.319 648.164 299.319C648.74 299.319 649.535 299.086 650.551 298.619L650.551 298.619C650.94 298.44 651.401 298.612 651.58 299.002C651.587 299.019 651.594 299.036 651.601 299.054Z" fill="#E4E4E4"/>
<path fill-rule="evenodd" clip-rule="evenodd" d="M615.126 299.054C615.56 300.216 615.777 301.086 615.777 301.663C615.777 302.364 615.661 303.389 615.428 304.735C614.616 304.735 607.321 304.735 593.543 304.735C592.974 302.849 593.303 301.831 594.528 301.681C595.753 301.53 596.771 301.395 597.581 301.274L607.753 296.725C607.949 296.638 608.178 296.726 608.266 296.922C608.267 296.926 608.269 296.929 608.27 296.932L608.924 298.523C610.058 299.054 610.98 299.319 611.689 299.319C612.265 299.319 613.061 299.086 614.076 298.619L614.076 298.619C614.466 298.44 614.926 298.612 615.105 299.002C615.113 299.019 615.12 299.036 615.126 299.054Z" fill="#E4E4E4"/>
<path fill-rule="evenodd" clip-rule="evenodd" d="M637.507 211.72L631.299 236.114H612.336L615.164 211.72H637.507Z" fill="#69A1AC"/>
<path fill-rule="evenodd" clip-rule="evenodd" d="M640.999 211.72C643.042 217.862 643.43 225.993 642.163 236.114H622.813L617.492 211.72H640.999Z" fill="#89C5CC"/>
<path fill-rule="evenodd" clip-rule="evenodd" d="M601.404 205.541L590.412 216.296C587.214 217.665 584.594 219.175 582.551 220.829C582.092 221.385 581.592 222.45 583.753 221.973C585.914 221.497 588.209 221.093 588.615 221.798C589.022 222.503 587.825 223.583 588.575 224.506C589.076 225.121 590.759 223.164 593.625 218.636L605.055 211.877L601.404 205.541ZM650.192 207.058L642.083 207.09C647.09 223.301 649.793 231.902 650.192 232.894C651.089 235.126 649.19 238.525 648.377 240.351C651.023 241.539 650.741 237.141 654.08 238.698C657.126 240.12 659.444 242.696 662.965 240.518C663.397 240.25 663.872 239.241 662.726 238.453C659.871 236.49 655.757 233.053 655.201 231.922C654.443 230.38 652.773 222.092 650.192 207.058Z" fill="#B28B67"/>
<path fill-rule="evenodd" clip-rule="evenodd" d="M627.149 172.931L623.793 172.354C618.017 186.828 607.932 199.979 593.538 211.808L604.414 225.062C618.807 208.22 627.678 190.843 627.149 172.931Z" fill="#2B2842"/>
<path fill-rule="evenodd" clip-rule="evenodd" d="M641.774 215.223H611.897C618.819 198.342 622.28 184.002 622.28 172.203L631.293 170.856C638.375 182.282 640.376 196.349 641.774 215.223Z" fill="#DDE3E9"/>
<path fill-rule="evenodd" clip-rule="evenodd" d="M631.484 170.863C631.483 170.86 631.482 170.858 631.48 170.856H630.892C630.188 170.881 629.116 170.924 627.675 170.988L625.498 177.23C625.267 184.84 623.922 200.178 621.462 223.242H641.047C640.996 224.835 640.911 226.443 640.793 228.066H655.355C653.177 203.417 645.222 184.347 631.491 170.856L631.484 170.863V170.863Z" fill="#524F61"/>
<path fill-rule="evenodd" clip-rule="evenodd" d="M639.753 202.86C639.196 212.79 637.8 219.635 635.567 223.396H641.042C641.282 216.252 640.852 209.406 639.753 202.86V202.86Z" fill="black" fill-opacity="0.1"/>
<path fill-rule="evenodd" clip-rule="evenodd" d="M636.688 211.331L627.03 206.828V211.331H636.688Z" fill="white" fill-opacity="0.2"/>
</svg>
