<svg width="842" height="404" viewBox="0 0 842 404" fill="none" xmlns="http://www.w3.org/2000/svg">
<path opacity="0.504511" fill-rule="evenodd" clip-rule="evenodd" d="M726.094 288.515C735.131 356.315 515.974 400.538 327.34 369.676C138.707 338.813 52.1707 218.292 142.184 154.073C232.196 89.8548 717.058 220.715 726.094 288.515Z" fill="#F2F2F2"/>
<g opacity="0.5">
<path opacity="0.5" fill-rule="evenodd" clip-rule="evenodd" d="M87.0579 49.0314C78.7738 49.1247 70.4938 49.4313 62.2262 49.9561C54.3638 50.4557 45.8331 50.0764 38.0989 51.6051C35.9027 52.0388 32.936 54.0466 35.8562 56.2547C37.9087 57.8071 45.4182 56.0213 47.8692 55.8703C56.8955 55.314 65.9264 54.6473 74.9655 54.327C83.5227 54.0237 92.0794 53.9166 100.641 53.831C101.948 53.8182 104.117 53.3977 105.419 53.7784C107.289 54.3257 106.846 54.4744 106.986 56.8554C107.24 61.1697 107.169 65.4994 107.084 69.8178C107.002 73.9966 106.848 78.1749 106.863 82.3555C106.873 85.3383 105.922 91.2654 107.415 93.8555C109.563 97.5841 111.791 93.5343 111.951 91.0567C112.258 86.3179 112.121 81.521 112.122 76.7762C112.123 72.3224 112.155 67.8686 111.999 63.4171C111.885 60.2015 112.343 54.5883 110.616 51.665C108.857 48.6877 104.622 49.3297 101.532 49.1878C96.7115 48.9655 91.8824 48.981 87.0579 49.0314Z" fill="#89C5CC"/>
<path opacity="0.5" fill-rule="evenodd" clip-rule="evenodd" d="M34.3504 54.4055C34.3595 62.7736 33.3943 71.0859 33.124 79.4444C33 83.2873 32.7483 87.5073 33.7176 91.2798C34.696 95.0889 37.8035 95.9143 38.1614 91.6619C38.8863 83.0508 38.7085 74.1217 39.273 65.4416C39.4722 62.3769 40.7688 56.7605 39.5584 53.8908C38.4924 51.3628 34.3458 50.8783 34.3504 54.4055Z" fill="#89C5CC"/>
<path opacity="0.5" fill-rule="evenodd" clip-rule="evenodd" d="M112.032 91.2912C97.6455 93.2014 82.6055 92.5051 68.1164 92.8052C61.165 92.9493 54.2149 92.9585 47.2626 93.0312C44.8362 93.0564 38.6744 92.1308 36.5754 93.4988C33.2339 95.6768 36.8594 97.3574 39.0715 97.4054C52.7915 97.7069 66.6643 97.0741 80.3816 96.6225C86.5447 96.4198 92.7279 96.3205 98.8746 95.7953C102.659 95.4718 106.794 95.1584 110.469 94.1385C111.251 93.9207 112.956 93.966 113.132 92.8949C113.24 92.2324 113.044 91.1512 112.032 91.2912Z" fill="#89C5CC"/>
<path opacity="0.5" fill-rule="evenodd" clip-rule="evenodd" d="M52.2085 103.455C48.2101 103.478 36.161 101.616 34.5051 105.526C32.2975 110.742 40.9094 109.524 43.2255 109.465C48.4859 109.329 53.7427 109.315 59.0045 109.317C64.1673 109.319 69.3297 109.286 74.4916 109.163C75.987 109.127 79.468 109.749 80.3283 107.943C80.9821 106.57 80.4655 105.487 79.2596 104.761C76.3582 103.012 68.8204 104.026 65.4234 103.869C61.0251 103.665 56.6122 103.455 52.2085 103.455Z" fill="#89C5CC"/>
<path opacity="0.5" fill-rule="evenodd" clip-rule="evenodd" d="M100.852 104.421C98.5673 104.557 93.9451 103.612 91.8981 104.661C89.5715 105.853 90.3912 107.72 92.4 108.54C93.791 109.108 99.4973 108.81 100.852 108.152C102.265 107.466 103.862 104.235 100.852 104.421Z" fill="#89C5CC"/>
<path opacity="0.5" fill-rule="evenodd" clip-rule="evenodd" d="M125.904 55.2266C123.464 55.8983 124.204 69.7954 124.141 71.9985C123.969 78.0344 123.292 85.6261 125.292 91.4392C126.567 95.1449 129.016 94.6425 128.599 90.741C128.232 87.3167 127.604 83.9318 127.332 80.4851C126.716 72.6862 125.879 64.3675 126.46 56.5622C126.707 57.0156 129.023 61.2223 129.567 60.9084C129.403 61.0063 126.897 54.9639 125.904 55.2266Z" fill="#89C5CC"/>
<path opacity="0.5" fill-rule="evenodd" clip-rule="evenodd" d="M153.357 50.1081C148.418 50.1813 143.479 50.2691 138.542 50.4064C134.616 50.5162 128.447 49.8692 124.846 51.5256C120.559 53.4976 122.593 57.8919 126.62 57.9848C130.182 58.0671 133.981 57.2614 137.575 57.1378C147.284 56.8043 157.01 56.7334 166.724 56.6501C175.508 56.5741 184.666 57.514 193.374 56.1907C194.666 67.6939 191.172 79.2457 192.36 90.8811C192.545 92.6871 192.462 95.2388 194.755 95.6501C197.649 96.1695 197.768 93.2947 197.878 91.2362C198.191 85.3585 198.021 79.4763 198.45 73.5908C198.848 68.1369 199.631 62.5625 198.969 57.0999C198.156 50.3776 194.944 50.9166 189.267 50.637C177.277 50.0472 165.361 49.9315 153.357 50.1081Z" fill="#89C5CC"/>
<path opacity="0.5" fill-rule="evenodd" clip-rule="evenodd" d="M136.805 90.9548C134.288 91.0184 130.108 90.2406 128.495 92.661C126.818 95.1793 128.808 97.376 131.248 97.8931C134.136 98.5048 137.901 97.6661 140.898 97.657C144.019 97.6478 147.142 97.6826 150.263 97.6949C163.645 97.7476 177.084 97.9507 190.456 97.3957C192.323 97.3184 197.623 97.9466 198.916 96.1498C200.063 94.5562 199.261 93.1268 197.75 92.3151C195.272 90.9832 190.181 91.4897 187.425 91.384C184.021 91.254 180.612 91.2115 177.206 91.1584C163.762 90.9502 150.247 90.6212 136.805 90.9548Z" fill="#89C5CC"/>
<path opacity="0.5" fill-rule="evenodd" clip-rule="evenodd" d="M148.124 102.597C143.116 102.683 137.774 102.462 132.815 103.224C128.456 103.894 127.919 108.121 132.612 108.615C136.925 109.07 142.153 108.22 146.487 107.941C148.026 107.842 149.816 107.983 150.553 106.276C151.324 104.493 149.851 102.783 148.124 102.597Z" fill="#89C5CC"/>
<path opacity="0.5" fill-rule="evenodd" clip-rule="evenodd" d="M185.984 103.041C183.311 103.108 175.504 101.955 174.18 105.017C171.976 110.115 182.545 108.178 184.572 108.103C187.128 108.009 197.087 109.506 197.09 105.425C197.092 101.424 188.431 102.98 185.984 103.041Z" fill="#89C5CC"/>
<path opacity="0.5" fill-rule="evenodd" clip-rule="evenodd" d="M33.9181 128.373C33.9245 137.647 33.3491 147.008 34.1926 156.258C34.5414 160.084 34.4816 167.413 36.691 170.657C38.2594 172.959 40.4346 172.798 41.2913 170.033C41.8639 168.185 40.9479 164.489 40.8458 162.512C40.7473 160.615 40.6325 158.718 40.5449 156.82C40.3201 151.931 40.3379 147.049 40.4049 142.157C40.4624 137.96 41.4695 132.409 40.5198 128.373C39.6344 124.612 33.9181 123.733 33.9181 128.373Z" fill="#69A1AC"/>
<path opacity="0.5" fill-rule="evenodd" clip-rule="evenodd" d="M126.842 120.214C110.801 120.618 94.723 120.258 78.6955 121.054C70.7912 121.447 62.918 122.309 55.0533 123.169C51.1894 123.592 47.3278 124.027 43.4707 124.504C42.3067 124.648 32.6348 125.024 36.2726 128.713C37.861 130.324 42.9158 128.641 44.9159 128.404C48.7885 127.945 52.6689 127.545 56.5469 127.134C63.9265 126.351 71.3151 125.609 78.7261 125.198C96.1801 124.228 113.706 124.519 131.177 123.873C135.904 123.698 140.615 123.572 145.343 123.759C146.585 123.808 155.708 124.273 151.747 120.893C149.874 119.295 142.812 120.12 140.471 120.072C135.929 119.977 131.383 120.1 126.842 120.214Z" fill="#69A1AC"/>
<path opacity="0.5" fill-rule="evenodd" clip-rule="evenodd" d="M151.826 169.142C151.824 169.145 151.821 169.149 151.819 169.153C150.945 170.445 147.715 170.085 146.301 170.182C141.997 170.475 137.772 170.97 133.506 171.612C125.006 172.89 116.579 173.675 107.987 173.889C90.9937 174.31 73.9299 173.916 56.9619 175.084C53.2038 175.343 49.5026 175.786 45.806 176.496C43.1662 177.004 38.0791 178.739 37.7704 174.365C37.3979 169.094 50.5832 169.103 54.3532 168.752C70.5406 167.241 86.9943 167.56 103.231 167.787C111.083 167.896 118.921 168.137 126.766 167.655C134.604 167.174 142.708 167.301 150.488 166.455C149.486 162.558 149.633 157.685 149.351 153.703C148.629 143.48 148.823 133.222 148.357 122.989C148.153 118.48 154.276 117.797 156.092 121.446C157.926 125.133 156.734 132.447 156.853 136.534C157.127 145.997 158.876 156.591 157.029 165.95C156.386 169.205 153.648 170.916 151.826 169.142Z" fill="#69A1AC"/>
<path opacity="0.5" fill-rule="evenodd" clip-rule="evenodd" d="M161.694 126.291C159.527 126.586 157.719 128.447 158.686 130.806C159.905 133.777 163.535 132.616 165.932 132.428C173.554 131.829 181.511 133.025 189.04 132.123C191.096 131.877 194.079 130.753 192.233 127.982C190.845 125.899 185.789 126.265 183.64 126.065C176.289 125.383 169.035 125.565 161.694 126.291Z" fill="#C1DEE2"/>
<path opacity="0.5" fill-rule="evenodd" clip-rule="evenodd" d="M174.556 139.252C171.6 139.452 164.72 139.295 163.475 142.668C161.241 148.719 169.991 146.587 172.656 146.243C175.751 145.843 183.048 146.914 184.696 143.903C187.643 138.519 177.148 139.073 174.556 139.252Z" fill="#C1DEE2"/>
<path opacity="0.5" fill-rule="evenodd" clip-rule="evenodd" d="M166.956 152.532C165.554 153.939 165.551 156.451 166.956 157.858C168.675 159.581 172.421 159.223 174.68 159.349C177.831 159.526 186.88 161.197 188.445 157.476C190.556 152.455 182.361 152.56 179.666 152.275C176.55 151.946 169.538 149.941 166.956 152.532Z" fill="#C1DEE2"/>
<path opacity="0.5" fill-rule="evenodd" clip-rule="evenodd" d="M56.502 66.5848C56.502 71.9829 64.9078 71.9829 64.9078 66.5848C64.9078 61.2159 56.502 61.134 56.502 66.5848Z" fill="#89C5CC"/>
<path opacity="0.5" fill-rule="evenodd" clip-rule="evenodd" d="M72.4473 66.6462C72.4473 72.8176 82.0216 72.8053 82.0216 66.6462C82.0216 60.4963 72.4473 60.4336 72.4473 66.6462Z" fill="#89C5CC"/>
<path opacity="0.5" fill-rule="evenodd" clip-rule="evenodd" d="M62.8011 74.8516C58.1471 76.1405 62.4345 80.0964 64.5956 81.0001C68.03 82.4368 72.7174 83.4956 76.1527 81.3419C77.5196 80.4849 78.6293 79.3461 77.6276 77.6829C76.5603 75.9122 75.0991 76.6996 73.4742 76.8629C71.4157 77.0707 69.7521 77.0386 67.7642 76.3766C66.2807 75.8824 64.4192 74.405 62.8011 74.8516Z" fill="#89C5CC"/>
<path opacity="0.5" fill-rule="evenodd" clip-rule="evenodd" d="M147.221 66.9267C147.221 70.5779 152.873 70.5779 152.873 66.9267C152.873 63.2754 147.221 63.2754 147.221 66.9267Z" fill="#89C5CC"/>
<path opacity="0.5" fill-rule="evenodd" clip-rule="evenodd" d="M159.722 67.4762C159.722 71.5329 166.001 71.5333 166.001 67.4762C166.001 63.4192 159.722 63.4196 159.722 67.4762Z" fill="#89C5CC"/>
<path opacity="0.5" fill-rule="evenodd" clip-rule="evenodd" d="M159.257 76.2799C155.958 76.7064 146.418 77.6764 145.884 81.7545C145.061 88.0462 155.514 82.9542 157.9 82.46C160.938 81.8309 163.652 81.9952 166.686 82.1173C168.351 82.1841 170.567 82.455 170.392 79.9101C170.106 75.7313 162.14 75.9093 159.257 76.2799Z" fill="#89C5CC"/>
<path opacity="0.5" fill-rule="evenodd" clip-rule="evenodd" d="M76.3215 134.302C73.9306 134.941 70.803 139.087 72.448 141.624C75.1452 145.786 76.3347 139.396 77.4636 138.781C79.5175 137.662 81.1848 141.751 83.3313 139.606C86.7183 136.222 78.4538 133.729 76.3215 134.302Z" fill="#69A1AC"/>
<path opacity="0.5" fill-rule="evenodd" clip-rule="evenodd" d="M103.717 131.226C100.881 131.252 94.8955 135.278 94.4715 138.251C94.2198 140.017 95.3874 141.714 97.2859 141.738C99.8709 141.77 100.693 138.399 102.933 137.693C105.351 136.933 104.992 138.684 107.079 139.592C108.607 140.257 110.518 139.978 111.049 138.094C112.05 134.54 106.63 131.17 103.717 131.226Z" fill="#69A1AC"/>
<path opacity="0.5" fill-rule="evenodd" clip-rule="evenodd" d="M82.0133 148.248C77.4783 150.913 84.9403 156.627 87.5272 157.341C91.4326 158.419 99.2927 156.407 100.218 151.622C100.587 149.718 99.3989 147.993 97.3035 148.334C95.5783 148.614 94.4718 150.785 92.8738 151.562C90.7168 152.612 88.7992 152.54 86.9664 150.961C85.4733 149.674 84.6736 146.691 82.0133 148.248Z" fill="#69A1AC"/>
<path opacity="0.5" fill-rule="evenodd" clip-rule="evenodd" d="M85.3004 187.633C81.2486 188.5 77.1299 187.918 73.0585 188.733C68.9069 189.564 66.4258 191.137 62.5687 189.552C62.3872 189.475 62.2062 189.399 62.0252 189.322C59.0399 188.032 55.9109 187.65 52.786 189.706C50.9368 190.922 45.323 195.129 45.9996 197.697C47.4659 203.262 53.7826 194.535 55.3934 193.684C58.4649 192.062 60.5708 194.135 63.7331 194.719C67.5209 195.42 70.5687 193.412 74.1367 192.613C78.3098 191.678 83.0044 191.352 87.2499 190.851C88.9273 190.654 95.2805 191.984 95.8541 189.89C96.8393 186.294 86.8929 187.294 85.3004 187.633Z" fill="#C1DEE2"/>
<path opacity="0.5" fill-rule="evenodd" clip-rule="evenodd" d="M114.533 198.842C114.798 199.043 114.585 198.881 114.533 198.842V198.842ZM125.881 187.415C129.349 187.062 140.447 184.577 142.726 188.172C144.21 190.513 141.855 199.156 139.608 200.274C137.812 201.167 133.629 200.18 131.658 200.11C127.992 199.98 124.318 199.922 120.655 199.693C119.427 199.616 115.475 199.843 114.512 198.752C113.375 197.465 113.425 190.601 113.158 188.899C116.347 189.935 122.546 187.755 125.881 187.415ZM133.287 183.89C128.845 184.083 124.403 184.418 119.994 185.016C117.536 185.349 115.046 186.235 112.776 186.654C112.044 186.79 110.857 186.415 109.959 186.849C107.337 188.12 109.633 196.71 110.266 199.005C111.237 202.53 113.681 203.101 117.106 203.434C121.616 203.872 126.22 203.734 130.745 203.678C135.107 203.625 140.988 204.594 143.435 200.205C145.017 197.367 146.714 190.757 145.362 187.594C143.583 183.432 136.941 183.737 133.287 183.89Z" fill="#C1DEE2"/>
<path opacity="0.5" fill-rule="evenodd" clip-rule="evenodd" d="M183.035 201.203C182.798 201.509 182.798 201.509 183.035 201.203V201.203ZM184.009 200.026C183.935 200.138 183.594 200.499 184.009 200.026V200.026ZM173.414 199.703C175.372 199.333 177.332 198.967 179.292 198.609C177.436 201.215 175.481 200.138 172.309 199.911C172.678 199.841 173.046 199.772 173.414 199.703ZM164.072 198.78C164.568 198.614 165.064 198.447 165.561 198.281C165.546 198.659 165.627 199.014 165.804 199.345C164.954 199.253 164.105 199.154 163.257 199.049C163.529 198.96 163.8 198.87 164.072 198.78ZM159.742 195.574C159.714 194.89 160.74 195.359 161.327 195.313C160.194 196.314 159.666 196.4 159.742 195.574ZM175.226 187.817C175.375 187.626 175.572 187.636 175.818 187.846C175.55 187.936 174.517 188.375 175.226 187.817ZM185.267 186.632C185.293 186.632 185.85 187.387 185.267 186.632V186.632ZM184.985 186.385C185.131 186.497 185.131 186.497 184.985 186.385V186.385ZM183.732 186.238C185.785 186.586 185.629 189.002 183.732 186.238V186.238ZM159.611 186.074C159.194 186.421 159.337 186.084 159.611 186.074V186.074ZM167.463 180.928C163.977 181.132 157.579 180.927 154.668 182.79C150.869 185.221 152.868 193.591 153.208 197.26C153.711 202.683 156.255 204.227 161.347 204.796C167.424 205.476 173.668 205.603 179.776 205.442C185.277 205.297 188.41 203.399 189.418 197.589C189.727 195.812 190.51 193.062 190.485 191.359C190.468 190.178 189.882 189.64 189.66 188.635C188.396 182.918 186.284 182.24 180.441 181.99C176.141 181.807 171.682 180.707 167.463 180.928Z" fill="#89C5CC"/>
</g>
<g opacity="0.5">
<path opacity="0.5" fill-rule="evenodd" clip-rule="evenodd" d="M603.673 58.5071C602.126 60.0561 602.727 65.5612 602.695 67.5985C602.645 70.7701 602.842 73.9134 603.106 77.0735C603.283 79.1895 604.282 99.3817 607.06 97.8309C608.627 96.9572 607.645 91.116 607.642 89.2685C607.636 85.161 607.465 81.0635 607.192 76.9652C606.939 73.1604 606.779 69.3999 606.925 65.5877C606.961 64.6573 607.829 54.3315 603.673 58.5071Z" fill="#89C5CC"/>
<path opacity="0.5" fill-rule="evenodd" clip-rule="evenodd" d="M671.035 56.0179C657.746 56.1239 644.463 56.7814 631.18 57.1842C624.789 57.378 618.402 57.6245 612.017 57.9797C609.842 58.1009 605.176 57.4023 603.363 58.5649C599.339 61.1463 605.829 61.7498 607.558 61.6867C633.844 60.7307 660.139 59.4715 686.447 59.4121C699.352 59.3833 712.251 59.7518 725.157 59.6691C730.091 59.6375 735.554 57.5056 736.8 63.2654C738.206 69.765 736.59 77.0015 736.151 83.5326C735.857 87.8925 735.962 92.1618 736.158 96.5181C736.283 99.3088 735.956 102.453 736.448 105.192C736.921 107.829 738.812 109.411 740.544 106.457C741.579 104.691 741.064 100.333 741.133 98.2879C741.226 95.5337 741.139 92.7804 741.139 90.0258C741.138 83.3022 742.084 76.6051 741.959 69.8829C741.879 65.5482 741.649 57.6898 736.198 56.6483C730.196 55.5012 722.818 56.6547 716.675 56.5843C701.455 56.4101 686.26 55.8985 671.035 56.0179Z" fill="#89C5CC"/>
<path opacity="0.5" fill-rule="evenodd" clip-rule="evenodd" d="M634.419 98.0722C629.409 98.0722 624.397 98.1024 619.387 98.1856C615.09 98.2569 608.334 97.3585 604.334 98.9006C601.596 99.9563 600.869 103.022 604.334 103.839C608.114 104.73 613.81 103.273 617.764 103.203C637.592 102.852 657.612 102.395 677.412 103.652C695.966 104.831 714.877 105.973 733.458 104.729C735.022 104.625 742.995 104.307 739.357 101.309C737.234 99.559 728.631 100.71 725.873 100.626C716.143 100.332 706.403 100.266 696.677 99.8964C687.077 99.5311 677.52 98.4485 667.917 98.1805C656.761 97.8692 645.579 98.0722 634.419 98.0722Z" fill="#89C5CC"/>
<path opacity="0.5" fill-rule="evenodd" clip-rule="evenodd" d="M629.405 69.4862C637.215 69.8282 644.942 81.1887 637.04 86.6792C629.627 91.831 615.733 86.185 619.856 76.1952C619.263 77.6394 620.605 74.626 620.622 74.6059C621.406 73.6796 622.813 72.6541 623.779 71.924C624.885 71.0882 626.036 70.1683 627.37 69.7495C628.245 69.4748 628.107 70.5089 629.405 69.4862ZM625.602 65.3888C621.947 66.8202 620.278 68.4351 617.766 71.3571C616.028 73.3793 613.813 74.4432 613.832 77.1758C613.836 77.7807 614.611 78.4455 614.745 79.028C614.93 79.8331 614.716 80.8645 614.862 81.72C616.374 90.5467 626.874 93.5226 634.56 91.8561C641.255 90.4045 646.262 83.9584 644.711 76.9491C643.15 69.8931 632.718 62.5971 625.602 65.3888Z" fill="#89C5CC"/>
<path opacity="0.5" fill-rule="evenodd" clip-rule="evenodd" d="M622.346 77.7109C622.346 80.8861 627.346 80.8861 627.346 77.7109C627.346 74.5717 622.346 74.4368 622.346 77.7109Z" fill="#89C5CC"/>
<path opacity="0.5" fill-rule="evenodd" clip-rule="evenodd" d="M628.603 77.0682C628.603 79.5915 632.576 79.5915 632.576 77.0682C632.576 74.5738 628.603 74.4672 628.603 77.0682Z" fill="#89C5CC"/>
<path opacity="0.5" fill-rule="evenodd" clip-rule="evenodd" d="M629.833 82.2719C628.56 82.7625 626.946 81.7453 625.902 82.4155C624.052 83.6033 625.906 84.6782 626.898 85.1555C631.363 87.3044 632.157 81.379 629.833 82.2719Z" fill="#89C5CC"/>
<path opacity="0.5" fill-rule="evenodd" clip-rule="evenodd" d="M698.019 75.2345C697.886 75.2912 697.412 75.4924 698.019 75.2345V75.2345ZM678.576 72.3843C675.234 73.141 672.413 76.271 668.782 75.8522C666 75.5312 664.116 72.8383 661.369 72.4469C657.856 71.9458 648.293 79.9853 653.321 81.3646C656.254 82.1698 657.881 76.7931 660.473 76.5073C662.523 76.2815 665.31 78.8029 667.435 79.1618C671.398 79.8316 674.119 77.6421 677.598 76.2303C681.378 74.6959 683.529 76.0776 686.817 77.7829C689.412 79.1289 691.856 80.0054 694.826 79.4499C697.612 78.9291 701.113 76.0547 703.918 76.3496C706.666 76.6386 708.627 79.5143 711.453 79.7814C712.618 79.8911 714.353 80.2893 714.157 78.4861C714 77.0423 712.394 77.2869 711.389 76.762C708.805 75.4123 706.388 73.0216 703.269 73.2256C700.923 73.3792 698.788 75.0324 696.626 75.8234C689.545 78.4134 685.565 70.812 678.576 72.3843Z" fill="#89C5CC"/>
<path opacity="0.5" fill-rule="evenodd" clip-rule="evenodd" d="M684.49 118.119C670.832 118.245 657.129 118.448 643.51 119.546C640.281 119.806 607.312 122.929 607.374 123.154C607.49 123.57 611.73 124.205 611.704 124.304C611.418 123.593 610.765 123.298 609.744 123.421C641.013 123.421 672.182 120.613 703.492 121.118C711.359 121.245 719.255 121.192 727.117 121.441C729.08 121.503 733.942 122.914 735.484 122.025C739.529 119.692 732.18 119.422 730.963 119.325C715.555 118.088 699.941 117.964 684.49 118.119Z" fill="#69A1AC"/>
<path opacity="0.5" fill-rule="evenodd" clip-rule="evenodd" d="M603.327 124.775C601.285 126.828 603.165 134.215 603.246 136.991C603.362 141.005 603.266 145.047 603.617 149.05C604.018 153.623 604.64 158.495 605.836 162.931C606.495 165.376 608.807 169.26 609.724 164.819C610.378 161.647 609.384 157.439 609.039 154.207C608.576 149.884 608.464 145.618 608.447 141.274C608.432 137.489 608.359 133.688 608.049 129.915C607.889 127.956 606.906 121.204 603.327 124.775Z" fill="#69A1AC"/>
<path opacity="0.5" fill-rule="evenodd" clip-rule="evenodd" d="M654.696 162.392C645.004 162.559 635.291 162.788 625.616 163.395C621.65 163.644 617.687 164.015 613.736 164.436C612.93 164.521 604.006 164.885 607.994 168.188C609.793 169.679 617.197 167.617 619.642 167.402C623.755 167.041 627.867 166.806 631.991 166.631C641.548 166.224 651.134 165.864 660.7 166.031C678.171 166.335 695.53 166.471 713.005 166.08C715.488 166.024 734.94 166.546 735.601 163.955C736.133 161.867 729.177 162.825 727.908 162.862C723.256 163.002 718.602 162.969 713.948 162.946C694.23 162.844 674.398 162.058 654.696 162.392Z" fill="#69A1AC"/>
<path opacity="0.5" fill-rule="evenodd" clip-rule="evenodd" d="M732.308 121.31C732.616 129.966 734.086 138.611 734.555 147.292C734.77 151.261 735.023 155.225 735.216 159.195C735.279 160.476 734.764 163.562 736.274 164.298C738.345 165.309 738.624 163.273 739.012 161.896C740.132 157.918 739.374 152.751 739.273 148.666C739.174 144.709 739.168 140.745 738.877 136.796C738.579 132.761 737.769 128.803 737.393 124.782C737.234 123.082 737.79 120.252 735.99 119.197C734.434 118.285 732.241 119.434 732.308 121.31Z" fill="#69A1AC"/>
<path opacity="0.5" fill-rule="evenodd" clip-rule="evenodd" d="M637.045 135.708C637.082 135.737 637.119 135.765 637.155 135.794C637.119 135.765 637.082 135.737 637.045 135.708ZM628.809 133.144C631.88 134.024 634.403 133.696 637.336 135.938C639.769 137.798 642.263 140.518 643.07 143.524C644.934 150.471 638.615 154.277 632.692 154.352C626.625 154.429 617.644 153.017 617.955 145.217C618.193 139.224 622.556 133.376 628.809 133.144ZM629.025 129.218C621.061 129.616 614.637 138.587 614.706 146.138C614.789 155.29 625.128 157.647 632.472 157.711C640.761 157.782 649.026 152.042 646.805 142.692C645.025 135.202 636.684 128.819 629.025 129.218Z" fill="#69A1AC"/>
<path opacity="0.5" fill-rule="evenodd" clip-rule="evenodd" d="M621.014 141.506C621.014 144.058 625.034 144.058 625.034 141.506C625.034 138.983 621.014 138.875 621.014 141.506Z" fill="#69A1AC"/>
<path opacity="0.5" fill-rule="evenodd" clip-rule="evenodd" d="M629.446 140.386C629.446 142.958 633.498 142.958 633.498 140.386C633.498 137.843 629.446 137.734 629.446 140.386Z" fill="#69A1AC"/>
<path opacity="0.5" fill-rule="evenodd" clip-rule="evenodd" d="M624.799 146.207C622.182 148.827 631.374 153.421 633.542 149.775C635.322 146.782 631.446 147.774 630.071 147.612C628.578 147.436 626.018 144.988 624.799 146.207Z" fill="#69A1AC"/>
<path opacity="0.5" fill-rule="evenodd" clip-rule="evenodd" d="M698.289 140.439C698.037 140.545 698.037 140.545 698.289 140.439V140.439ZM663.771 136.173C661.122 136.671 652.427 139.614 652.31 142.766C652.095 148.497 660.61 142.627 662.459 141.873C667.483 139.826 670.122 144.003 675.168 144.223C679.55 144.415 683.58 140.653 687.708 141.098C692.034 141.563 694.114 146.179 699.108 143.728C701.749 142.432 701.683 140.434 698.717 140.245C696.925 140.132 695.693 140.874 693.825 140.101C690.902 138.892 689.725 136.923 686.228 137.236C683.589 137.472 681.204 138.964 678.628 139.541C672.73 140.863 669.458 135.105 663.771 136.173Z" fill="#69A1AC"/>
<path opacity="0.5" fill-rule="evenodd" clip-rule="evenodd" d="M718.638 142.927C718.456 143.004 718.456 143.004 718.638 142.927V142.927ZM719.307 140.541C719.336 140.554 719.536 140.832 719.307 140.541V140.541ZM716.27 138.719C716.156 138.808 716.156 138.808 716.27 138.719V138.719ZM716.336 138.697C716.925 139.05 721.66 142.298 718.221 143.063C716.475 143.451 715.03 139.927 716.336 138.697ZM714.768 135.099C707.183 138.568 715.345 150.981 721.298 145.938C723.802 143.815 724.132 139.526 721.695 137.315C720.235 135.99 716.75 134.191 714.768 135.099Z" fill="#69A1AC"/>
<path opacity="0.5" fill-rule="evenodd" clip-rule="evenodd" d="M643.567 184.015C634.102 184.018 624.554 183.818 615.103 184.381C613.512 184.476 607.453 184.172 606.633 185.84C605.134 188.891 611.368 187.376 612.274 187.285C631.094 185.395 650.752 186.483 669.634 187.021C685.076 187.461 700.436 187.735 715.86 188.533C719.914 188.743 723.965 188.975 728.016 189.22C729.337 189.3 732.66 190.178 732.938 188.062C733.196 186.104 729.05 186.547 728.015 186.492C719.779 186.057 711.549 185.601 703.316 185.137C683.499 184.016 663.415 184.011 643.567 184.015Z" fill="#89C5CC"/>
<path opacity="0.5" fill-rule="evenodd" clip-rule="evenodd" d="M606.33 187.407C604.562 189.17 605.39 195.9 605.341 198.125C605.255 202.016 605.072 205.903 604.99 209.793C604.904 213.859 605.023 217.943 605.263 222.002C605.363 223.707 606.758 231.944 608.954 227.23C609.935 225.124 608.93 219.256 608.945 216.869C608.972 212.524 609.205 208.198 609.421 203.86C609.606 200.131 609.613 196.398 609.776 192.667C609.827 191.478 609.967 183.747 606.33 187.407Z" fill="#89C5CC"/>
<path opacity="0.5" fill-rule="evenodd" clip-rule="evenodd" d="M734.531 222.16C725.321 223.107 715.962 222.66 706.716 223.359C698.748 223.962 690.787 224.208 682.798 224.378C664.708 224.761 646.587 225.134 628.549 226.646C624.438 226.991 620.332 227.356 616.21 227.541C614.149 227.633 605.499 226.693 604.855 228.872C603.758 232.584 613.008 231.115 615.003 231.057C619.391 230.93 623.758 230.612 628.133 230.277C646.525 228.872 664.987 228.452 683.419 227.868C693.443 227.55 703.397 226.815 713.399 226.145C718.385 225.812 723.383 225.801 728.368 225.478C729.673 225.393 734.289 225.56 735.228 224.507C735.872 223.784 736.035 222.019 734.531 222.16Z" fill="#89C5CC"/>
<path opacity="0.5" fill-rule="evenodd" clip-rule="evenodd" d="M731.41 188.039C731.726 196.898 732.225 205.75 732.523 214.61C732.613 217.274 731.81 222.049 733.289 224.398C735.667 228.176 737.524 224.178 737.959 221.824C739.334 214.394 737.856 206.186 737.472 198.71C737.326 195.858 738.209 189.511 736.835 186.958C735.526 184.527 731.292 184.771 731.41 188.039Z" fill="#89C5CC"/>
<path opacity="0.5" fill-rule="evenodd" clip-rule="evenodd" d="M715.945 200.657C719.474 201.616 719.99 209.311 716.008 209.88C710.081 210.727 712.673 202.243 715.945 200.657ZM714.957 197.597C713.88 197.563 711.396 197.265 710.732 198.144C710.177 198.88 710.738 200.431 710.674 201.131C710.44 203.635 708.411 205.081 709.318 208.036C709.934 210.043 711.583 211.928 713.593 212.624C724.199 216.301 724.069 195.747 714.957 197.597Z" fill="#89C5CC"/>
<path opacity="0.5" fill-rule="evenodd" clip-rule="evenodd" d="M619.204 198.977C619.178 199.011 619.151 199.045 619.125 199.079C619.151 199.045 619.178 199.011 619.204 198.977ZM627.534 194.532C627.492 194.176 627.451 193.82 627.409 193.464C633.16 196.186 637.735 201.251 635.826 208.049C634.369 213.235 629.106 215.074 624.202 213.794C618.773 212.376 616.179 207.888 617.643 202.377C618.318 199.834 620.392 196.418 623.072 195.6C624.32 195.22 627.079 196.19 627.534 194.532ZM624.171 192.379C622.717 192.477 621.301 193.085 620.114 193.916C621.225 192.974 622.706 192.412 624.171 192.379ZM624.213 189.029C620.62 189.14 618.265 191.321 616.134 193.942C615.465 194.764 613.204 196.945 613.484 198.053C613.705 198.929 614.285 200.21 615.505 199.233C609.115 212.006 625.621 222.9 635.698 214.018C645.102 205.729 635.772 188.641 624.213 189.029Z" fill="#89C5CC"/>
<path opacity="0.5" fill-rule="evenodd" clip-rule="evenodd" d="M620.948 200.894C620.948 202.595 623.581 202.595 623.581 200.894C623.581 199.193 620.948 199.193 620.948 200.894Z" fill="#89C5CC"/>
<path opacity="0.5" fill-rule="evenodd" clip-rule="evenodd" d="M625.44 201.185C625.44 202.913 628.115 202.913 628.115 201.185C628.115 199.456 625.44 199.456 625.44 201.185Z" fill="#89C5CC"/>
<path opacity="0.5" fill-rule="evenodd" clip-rule="evenodd" d="M627.481 207.255C626.229 207.357 621.648 206.931 620.844 208.03C619.501 209.867 621.645 209.931 622.699 210.13C623.647 210.309 627.771 210.208 628.353 209.363C628.866 208.616 628.746 207.147 627.481 207.255Z" fill="#89C5CC"/>
<path opacity="0.5" fill-rule="evenodd" clip-rule="evenodd" d="M682.67 202.491C682.455 202.58 682.455 202.58 682.67 202.491V202.491ZM665.362 201.221C662.542 201.429 660.154 203.056 657.458 203.705C654.58 204.398 653.335 203.124 650.718 202.289C647.996 201.421 646.06 201.764 643.872 203.629C642.632 204.685 639.913 207.117 640.687 208.994C642.462 213.29 646.477 206.301 648.366 205.976C651.313 205.469 653.934 208.053 657.332 207.313C660.411 206.644 663.143 204.524 666.359 204.501C669.048 204.481 671.583 205.957 674.238 206.314C678.291 206.86 680.952 205.416 684.698 204.345C687.947 203.416 690.226 204.641 693.281 205.672C694.678 206.142 699.338 207.855 698.48 204.75C698.238 203.873 692.097 202.305 691.145 202.003C687.787 200.939 685.661 201.354 682.463 202.577C679.795 203.597 677.552 204.094 674.692 203.533C671.541 202.914 668.676 200.969 665.362 201.221Z" fill="#89C5CC"/>
</g>
<path fill-rule="evenodd" clip-rule="evenodd" d="M551.927 180.801C550.987 186.892 550.384 200.415 552.744 202.262L566.201 200.752C566.2 200.728 566.199 200.704 566.197 200.68C571.123 199.567 574.53 194.89 573.956 189.739L572.866 179.965C572.25 174.438 567.283 170.458 561.773 171.076L560.845 171.181C555.841 171.742 552.109 175.902 551.927 180.801Z" fill="#FFE39C"/>
<path fill-rule="evenodd" clip-rule="evenodd" d="M568.52 188.459C570.378 185.702 571.481 182.454 570.854 179.024C569.046 169.141 555.466 172.883 553.338 178.212C551.209 183.541 552.951 196.258 556.526 196.767C557.952 196.97 560.807 195.761 563.61 193.607L563.216 207.203L574.353 205.953L568.52 188.459Z" fill="#D4A181"/>
<path fill-rule="evenodd" clip-rule="evenodd" d="M565.322 187.114C565.425 192.7 566.335 198.991 568.031 200.318L581.489 198.808C580.782 185.657 574.099 191.53 572.728 179.227C572.226 178.835 571.751 178.445 571.286 178.114L571.261 177.751C568.397 173.227 565.174 171.166 561.591 171.568C556.217 172.171 554.801 174.869 553.594 177.161C555.088 180.756 559.341 180.837 563.323 182.736C563.722 182.329 564.258 182.052 564.868 181.984C566.277 181.825 567.548 182.843 567.705 184.257C567.863 185.671 566.848 186.945 565.438 187.104C565.4 187.108 565.361 187.111 565.322 187.114Z" fill="#FFE39C"/>
<path fill-rule="evenodd" clip-rule="evenodd" d="M601.661 288.232C590.877 292.604 581.446 295.243 573.369 296.149C565.292 297.055 557.522 295.492 550.058 291.46C560.594 287.032 569.388 284.423 576.437 283.632C583.486 282.841 591.894 284.375 601.661 288.232Z" fill="#CAB5A8"/>
<path fill-rule="evenodd" clip-rule="evenodd" d="M564.234 301.732C564.323 301.558 564.394 301.372 564.445 301.173C565.492 297.059 584.579 251.804 586.086 243.753L559.251 246.763C558.106 252.885 554.122 290.941 553.804 298.48C551.5 310.575 548.292 349.267 547.636 351.996C546.946 354.867 552.88 357.112 553.998 353.552C555.776 347.888 559.782 332.318 561.291 322.916C562.705 314.102 563.775 306.195 564.234 301.732Z" fill="#BA8B72"/>
<path fill-rule="evenodd" clip-rule="evenodd" d="M586.768 304.468C597.973 306.008 638.388 306.531 641.211 307.007C644.115 307.497 645.933 301.404 642.315 300.534C636.557 299.149 620.792 296.227 611.336 295.374C603.73 294.687 596.806 294.208 592.169 293.992C591.124 281.113 589.454 250.111 587.555 243.588L563.812 246.252C565.632 252.507 580.197 298.006 582.458 302.47C583.197 304.072 584.929 304.622 586.768 304.468Z" fill="#D4A181"/>
<path fill-rule="evenodd" clip-rule="evenodd" d="M641.89 299.013C643.314 298.578 644.372 298.383 645.063 298.427C645.904 298.48 647.121 298.698 648.715 299.081C648.654 300.059 648.1 308.847 647.053 325.445C644.752 325.987 643.558 325.514 643.471 324.026C643.384 322.539 643.299 321.302 643.215 320.317L638.541 307.718C638.451 307.475 638.574 307.206 638.816 307.116C638.82 307.114 638.824 307.113 638.829 307.111L640.783 306.444C641.505 305.118 641.893 304.028 641.947 303.174C641.99 302.48 641.771 301.503 641.29 300.245L641.29 300.245C641.105 299.762 641.345 299.22 641.827 299.035C641.847 299.027 641.868 299.019 641.89 299.013Z" fill="#E4E4E4"/>
<path fill-rule="evenodd" clip-rule="evenodd" d="M555.879 353.914C556.447 355.295 556.742 356.332 556.765 357.027C556.792 357.871 556.692 359.107 556.465 360.736C555.488 360.768 546.714 361.056 530.142 361.6C529.384 359.354 529.739 358.117 531.206 357.888C532.674 357.658 533.893 357.455 534.863 357.277L546.919 351.405C547.151 351.292 547.431 351.389 547.543 351.621C547.545 351.625 547.547 351.629 547.549 351.633L548.398 353.521C549.783 354.115 550.902 354.398 551.755 354.37C552.448 354.347 553.396 354.035 554.599 353.433L554.599 353.433C555.06 353.202 555.621 353.39 555.851 353.853C555.861 353.873 555.87 353.894 555.879 353.914Z" fill="#E4E4E4"/>
<path fill-rule="evenodd" clip-rule="evenodd" d="M587.479 243.597C576.681 241.768 566.782 242.878 557.78 246.928C556.189 262.158 548.953 268.944 550.107 291.89C566.761 297.984 584.75 282.326 601.847 288.173C605.291 276.926 595.914 251.824 587.479 243.597Z" fill="#E3CDC0"/>
<path fill-rule="evenodd" clip-rule="evenodd" d="M540.404 230.173L521.802 229.722C517.909 228.088 514.383 227.082 511.224 226.703C510.355 226.775 509.012 227.246 511.256 228.732C513.501 230.218 515.796 231.884 515.532 232.841C515.268 233.798 513.321 233.671 513.162 235.116C513.056 236.079 516.171 235.884 522.509 234.531L538.035 238.775L540.404 230.173ZM598.436 227.97L588.278 229.148C602.225 253.049 609.503 265.565 610.113 266.698C611.484 269.247 609.665 273.567 608.937 275.86C612.26 276.926 611.337 271.703 615.537 273.118C619.37 274.41 622.486 277.18 626.406 274.102C626.888 273.724 627.32 272.454 625.845 271.665C622.169 269.7 616.79 266.142 615.974 264.864C614.862 263.121 609.016 250.823 598.436 227.97Z" fill="#D4A181"/>
<path fill-rule="evenodd" clip-rule="evenodd" d="M566.998 198.767L559.101 200.191C559.124 218.192 549.703 230.62 525.383 229.498L524.761 252.752C547.419 253.142 566.006 241.976 567.313 217.243C567.651 210.84 567.743 204.206 566.998 198.767Z" fill="#B0D9EE"/>
<path fill-rule="evenodd" clip-rule="evenodd" d="M570.665 196.007L558.92 200.128C561.238 220.924 556.113 234.933 554.43 250.603L586.987 246.951C588.035 252.183 588.922 257.582 589.69 263.142L614.068 260.408C605.257 231.548 591.054 210.048 571.461 195.91L570.671 195.998L570.665 196.007Z" fill="#B7E6FE"/>
<path fill-rule="evenodd" clip-rule="evenodd" d="M578.541 217.859C580.825 230.724 581.434 240.669 580.369 247.694L586.986 246.951C584.91 236.587 582.205 226.877 578.541 217.859L578.541 217.859Z" fill="black" fill-opacity="0.1"/>
<path fill-rule="evenodd" clip-rule="evenodd" d="M129.729 176.98C127.751 174.157 126.547 170.811 127.134 167.243C128.825 156.965 142.975 160.592 145.281 166.076C147.587 171.561 146.017 184.776 142.319 185.37C140.844 185.606 137.861 184.406 134.916 182.226L135.576 196.312L124.005 195.224L129.729 176.98Z" fill="#57331F"/>
<path fill-rule="evenodd" clip-rule="evenodd" d="M136.708 169.296C136.573 175.524 137.455 178.728 139.356 178.907C142.206 179.175 144.795 177.588 146.046 177.705C146.957 177.791 146.647 178.916 145.963 179.708C145.399 180.361 142.908 180.807 142.806 181.892C142.705 182.977 144.702 182.318 144.642 182.962C144.542 184.026 144.692 186.059 142.85 185.886C140.985 185.711 135.702 184.527 135.046 181.665C134.622 179.819 134.586 176.071 134.939 170.423C134.828 170.399 134.713 170.382 134.596 170.371C132.999 170.22 131.582 171.397 131.432 172.999C131.356 173.813 131.621 174.579 132.11 175.156C131.352 176.041 130.509 176.96 129.554 177.9C126.507 175.654 124.642 169.741 128.31 164.575C129.433 161.98 131.542 160.736 133.937 160.292C135.901 159.677 137.872 159.772 139.483 160.403C142.704 160.987 145.51 162.253 146.277 162.92C145.989 166.002 145.308 166.86 140.228 166.301C138.916 166.846 137.849 167.895 136.708 169.296Z" fill="#191847"/>
<path fill-rule="evenodd" clip-rule="evenodd" d="M119.337 235.145L137.387 297.43L148.512 349.698L154.779 350.288L140.876 237.17L119.337 235.145Z" fill="#3D2216"/>
<path fill-rule="evenodd" clip-rule="evenodd" d="M114.573 234.697C112.348 255.779 106.017 283.848 105.307 285.109C104.833 285.949 90.2783 295.832 61.6418 314.757L65.5255 319.795C98.6678 304.377 116.081 295.511 117.764 293.197C120.289 289.726 130.552 256.568 138.141 236.913L114.573 234.697Z" fill="#57331F"/>
<path fill-rule="evenodd" clip-rule="evenodd" d="M61.2079 313.156C59.7102 313.534 58.6661 313.927 58.0754 314.337C57.357 314.834 56.3914 315.681 55.1786 316.876C55.7545 317.711 60.9301 325.223 70.7054 339.409C73.0392 338.657 73.8484 337.597 73.133 336.229C72.4176 334.86 71.8344 333.716 71.3834 332.796L68.8224 319.096C68.7731 318.833 68.5201 318.659 68.2572 318.709C68.2527 318.709 68.2483 318.71 68.2438 318.711L66.1515 319.166C64.8034 318.375 63.8778 317.614 63.3746 316.884C62.9658 316.291 62.6402 315.306 62.3977 313.93L62.3977 313.93C62.3047 313.401 61.8023 313.049 61.2756 313.142C61.2529 313.146 61.2303 313.151 61.2079 313.156Z" fill="#E4E4E4"/>
<path fill-rule="evenodd" clip-rule="evenodd" d="M145.928 348.259C145.377 349.706 145.099 350.79 145.095 351.51C145.089 352.385 145.227 353.664 145.507 355.346C146.52 355.352 155.624 355.409 172.819 355.518C173.544 353.17 173.142 351.897 171.614 351.699C170.086 351.502 168.817 351.325 167.806 351.167L155.148 345.412C154.904 345.302 154.617 345.41 154.507 345.654C154.505 345.658 154.503 345.662 154.501 345.667L153.673 347.646C152.253 348.3 151.101 348.624 150.216 348.618C149.496 348.613 148.505 348.316 147.242 347.726L147.242 347.726C146.757 347.499 146.181 347.709 145.955 348.196C145.945 348.217 145.936 348.238 145.928 348.259Z" fill="#E4E4E4"/>
<path fill-rule="evenodd" clip-rule="evenodd" d="M125.376 342.247L155.477 341.806L142.962 237.366L116.272 234.856L125.376 342.247Z" fill="#69A1AC"/>
<path fill-rule="evenodd" clip-rule="evenodd" d="M68.5025 307.863L85.8797 332.901C108.574 312.29 121.952 298.706 126.012 292.151C130.073 285.595 134.886 267.255 140.453 237.13L110.406 234.305C106.418 260.893 104.107 274.784 103.472 275.979C102.837 277.174 91.1806 287.802 68.5025 307.863Z" fill="#89C5CC"/>
<path fill-rule="evenodd" clip-rule="evenodd" d="M162.071 233.115L174.48 247.76C178.295 249.834 181.376 252.017 183.722 254.31C184.228 255.054 184.726 256.435 182.096 255.591C179.465 254.746 176.661 253.976 176.074 254.805C175.488 255.633 176.849 257.115 175.809 258.174C175.116 258.879 173.252 256.252 170.217 250.292L156.799 240.56L162.071 233.115ZM96.4143 214.743L106.968 215.775C96.4853 241.143 90.9383 254.42 90.3273 255.605C88.9525 258.273 90.9187 262.717 91.7162 265.081C88.29 266.247 89.1512 260.816 84.8223 262.361C80.8712 263.772 77.692 266.701 73.5707 263.583C73.064 263.2 72.5918 261.892 74.1072 261.047C77.8826 258.941 83.3937 255.153 84.2158 253.812C85.3369 251.985 89.403 238.962 96.4143 214.743Z" fill="#57331F"/>
<path fill-rule="evenodd" clip-rule="evenodd" d="M131.392 187.736L135.628 187.411C140.019 211.309 172.28 230.35 173.538 239.248C173.999 242.511 171.558 243.909 172.65 244.992L166.859 248.46C166.042 247.3 163.9 249.08 159.939 247.322C155.978 245.564 128.815 215.301 131.392 187.736Z" fill="#191847"/>
<path fill-rule="evenodd" clip-rule="evenodd" d="M138.117 191.491C134.755 222.266 151.788 231.799 146.675 243.791C142.452 253.694 110.145 261.728 105.667 251.211C103.855 246.953 103.318 241.96 103.704 236.623C101.938 240.585 100.514 244.005 99.4331 246.883C97.5682 251.849 92.1095 252.153 91.926 254.116L85.0175 251.486C85.7478 248.864 82.5259 247.251 83.9792 241.377C90.4912 215.059 103.092 196.722 121.781 186.368L122.207 183.779C122.381 182.721 123.377 182.004 124.433 182.178L137.334 184.31C138.389 184.485 139.104 185.484 138.93 186.543L138.117 191.491Z" fill="#2F3676"/>
<g opacity="0.5">
<path opacity="0.5" fill-rule="evenodd" clip-rule="evenodd" d="M348.425 8.97436C348.422 14.6243 348.14 20.3913 349.169 25.9734C349.481 27.6633 349.726 30.9003 351.489 31.7773C353.258 32.658 354.974 31.6685 355.414 29.8328C355.927 27.697 354.802 24.5006 354.688 22.2583C354.531 19.1952 354.521 16.1284 354.519 13.0616C354.519 10.8469 355.239 7.28395 352.655 6.14457C350.734 5.29706 348.425 6.87265 348.425 8.97436Z" fill="#C1DEE2"/>
<path opacity="0.5" fill-rule="evenodd" clip-rule="evenodd" d="M436.699 0.0384858C418.199 1.91748 399.433 2.30804 380.866 3.28788C372.284 3.74069 361.912 3.16292 353.826 6.52437C352.325 7.1487 346.948 10.6231 351.313 12.0378C352.674 12.4791 354.056 10.9957 355.174 10.4986C357.035 9.67186 359.189 9.41595 361.173 9.09317C378.044 6.35191 395.691 6.82916 412.735 5.54821C417.102 5.2199 421.472 4.88192 425.83 4.44802C428.944 4.13816 435.488 1.86722 438.362 3.02874C443.272 5.01333 443.157 17.9085 443.254 22.3434C443.304 24.637 441.104 32.87 445.478 32.0354C448.978 31.3672 447.711 22.8142 447.438 20.4746C446.722 14.3419 445.501 -0.863894 436.699 0.0384858Z" fill="#C1DEE2"/>
<path opacity="0.5" fill-rule="evenodd" clip-rule="evenodd" d="M443.521 31.7381C427.452 33.2063 411.012 31.7658 394.877 32.3431C386.419 32.6465 377.971 33.1284 369.512 33.411C365.854 33.5337 362.192 33.5387 358.532 33.565C356.781 33.577 348.815 34.6509 353.743 38.1627C355.925 39.7175 362.879 38.4652 365.383 38.4347C369.144 38.39 372.903 38.2318 376.661 38.0829C385.366 37.7385 394.065 37.2612 402.775 37.0228C411.106 36.7946 419.442 36.7457 427.773 36.5175C431.918 36.4036 436.12 36.2749 440.229 35.6626C441.156 35.5242 444.167 35.4145 444.811 34.3683C445.419 33.3792 444.992 31.5947 443.521 31.7381Z" fill="#89C5CC"/>
<path opacity="0.5" fill-rule="evenodd" clip-rule="evenodd" d="M364.544 19.5305C364.458 19.7375 364.458 19.7375 364.544 19.5305V19.5305ZM371.503 17.3905C371.757 17.4993 371.757 17.4993 371.503 17.3905V17.3905ZM371.177 17.331C374.927 21.1987 369.16 25.8153 365.647 22.0407C361.919 18.0346 368.763 17.3439 371.177 17.331ZM367.2 11.4796C354.283 13.8054 358.856 31.2245 370.92 28.7069C376.217 27.6021 379.246 22.203 377.423 17.017C376.71 14.9909 375.158 12.767 372.996 12.1284C371.918 11.8102 370.965 12.311 369.938 12.1938C368.959 12.0823 368.415 11.2578 367.2 11.4796Z" fill="#C1DEE2"/>
<path opacity="0.5" fill-rule="evenodd" clip-rule="evenodd" d="M416.634 16.3825C408.845 16.4074 401.054 16.7421 393.267 16.8915C390.878 16.9372 384.738 15.8554 384.729 19.666C384.718 23.7375 391.557 22.2339 393.833 22.179C401.558 21.9922 409.303 21.6496 416.997 20.9054C418.941 20.7173 425.669 21.0419 425.662 18.3675C425.655 15.534 418.204 16.3825 416.634 16.3825Z" fill="#C1DEE2"/>
<path opacity="0.5" fill-rule="evenodd" clip-rule="evenodd" d="M435.238 42.9578C415.974 43.4807 396.739 43.6628 377.49 44.6606C370.29 45.0337 363.1 45.3112 355.89 45.3112C354.501 45.3112 351.705 44.7671 350.398 45.652C346.851 48.052 350.89 50.1123 353.201 50.2418C369.014 51.1299 385.056 48.9198 400.86 48.4209C410.112 48.1291 419.366 48.0428 428.613 47.5665C431.135 47.4365 433.658 47.2857 436.177 47.0879C437.625 46.9745 441.455 47.2857 442.626 46.4285C447.737 42.6853 436.961 42.9107 435.238 42.9578Z" fill="#89C5CC"/>
<path opacity="0.5" fill-rule="evenodd" clip-rule="evenodd" d="M346.851 52.4886C346.67 57.5423 346.651 62.5079 347.304 67.5339C347.562 69.5116 347.68 71.7558 349.971 72.2584C352.051 72.7144 353.106 71.1222 353.537 69.3566C354.589 65.0453 353.664 58.8403 353.651 54.3616C353.646 52.1473 353.643 49.6689 350.939 49.1681C348.876 48.7859 346.93 50.2946 346.851 52.4886Z" fill="#89C5CC"/>
<path opacity="0.5" fill-rule="evenodd" clip-rule="evenodd" d="M455.658 64.6724C424.474 66.3352 393.331 67.7867 362.124 69.1216C359.691 69.2258 340.785 69.0174 347.394 75.6887C349.436 77.7489 354.695 76.3536 357.336 76.2226C361.303 76.0253 365.272 75.8745 369.24 75.6702C384.971 74.8601 400.742 74.6415 416.461 73.7322C425.111 73.2319 433.742 72.4489 442.346 71.4294C446.439 70.9448 451.52 70.9951 455.354 69.372C457.326 68.5369 459.454 64.4686 455.658 64.6724Z" fill="#89C5CC"/>
<path opacity="0.5" fill-rule="evenodd" clip-rule="evenodd" d="M437.727 39.0355C435.356 41.4254 436.575 46.1402 436.754 49.094C437 53.1591 437.299 57.2265 437.8 61.269C438.126 63.895 437.954 67.9822 439.339 70.2504C440.96 72.9068 444.53 72.613 445.996 70.0465C447.292 67.777 446.636 63.0013 446.602 60.486C446.556 57.0079 446.342 53.5243 446.138 50.0531C445.967 47.1518 446.617 42.5025 445.04 40.0195C443.437 37.4963 439.95 36.7991 437.727 39.0355Z" fill="#89C5CC"/>
<path opacity="0.5" fill-rule="evenodd" clip-rule="evenodd" d="M366.451 57.5819C366.173 57.7986 366.173 57.7986 366.451 57.5819V57.5819ZM371.99 56.8797C377.158 57.9314 368.801 64.0369 366.16 59.8464C365.748 59.1916 365.533 58.387 366.195 57.818C366.8 57.2983 367.18 58.2182 367.751 57.9711C368.734 57.545 370.941 56.84 371.99 56.8797ZM371.277 51.867C367.749 52.1497 362.897 52.3701 361.151 55.9492C358.804 60.7562 362.817 65.464 367.459 66.1953C371.926 66.8994 378.596 64.3956 378.954 59.1238C379.242 54.8734 375.246 51.541 371.277 51.867Z" fill="#89C5CC"/>
<path opacity="0.5" fill-rule="evenodd" clip-rule="evenodd" d="M400.735 54.4093C397.082 54.4687 389.903 53.3759 386.72 55.1774C383.571 56.9601 384.976 60.1343 387.848 60.8937C389.747 61.3954 392.85 60.5857 394.827 60.5041C397.428 60.3971 400.03 60.3741 402.633 60.3377C407.009 60.2782 411.383 60.3284 415.76 60.3284C420.23 60.3284 424.776 60.452 429.238 60.1196C434.884 59.699 434.732 55.4214 429.211 54.8865C419.831 53.9781 410.145 54.2594 400.735 54.4093Z" fill="#89C5CC"/>
<path opacity="0.5" fill-rule="evenodd" clip-rule="evenodd" d="M391.404 102.318C391.404 104.351 393.187 102.318 393.174 102.318C393.187 102.318 391.404 100.286 391.404 102.318Z" fill="#89C5CC"/>
<path opacity="0.5" fill-rule="evenodd" clip-rule="evenodd" d="M351.091 85.9577C351.206 91.8654 351.282 97.7786 351.531 103.682C351.61 105.548 351.082 109.193 353.318 110.145C355.806 111.204 356.58 108.564 356.867 106.775C357.775 101.107 356.885 94.6352 356.798 88.9C356.768 86.9744 357.18 84.2936 355.019 83.3336C353.256 82.5502 351.056 84.0045 351.091 85.9577Z" fill="#89C5CC"/>
<path opacity="0.5" fill-rule="evenodd" clip-rule="evenodd" d="M447.105 86.0506C447.253 86.4024 447.253 86.4024 447.105 86.0506V86.0506ZM447.313 85.9902C447.433 86.0409 447.916 86.2461 447.313 85.9902V85.9902ZM400.148 81.2154C391.184 81.3575 382.216 81.4654 373.258 81.8536C369.435 82.0196 365.569 82.1533 361.759 82.5181C359.061 82.7763 352.357 82.8837 350.607 85.115C346.996 89.7205 354.654 88.4645 356.304 88.0905C359.306 87.4095 362.37 87.1914 365.437 87.0277C372.092 86.6726 378.75 86.4826 385.413 86.3471C403.481 85.9791 421.563 86.0349 439.636 85.9524C441.386 85.9445 444.548 85.2326 446.164 85.9487C447.783 86.6666 447.691 88.4313 447.86 90.4804C448.083 93.2064 446.306 98.4017 447.66 100.695C449.761 104.252 452.815 101.231 453.282 98.6382C453.927 95.055 452.905 90.7525 451.904 87.3274C450.492 82.495 448.531 82.3027 443.911 81.9251C438.514 81.4838 433.137 81.2164 427.722 81.1657C418.533 81.0803 409.336 81.0711 400.148 81.2154Z" fill="#89C5CC"/>
<path opacity="0.5" fill-rule="evenodd" clip-rule="evenodd" d="M435.597 105.636C416.156 107.92 396.163 106.575 376.618 106.655C371.866 106.675 367.109 106.713 362.361 106.947C359.853 107.069 353.908 106.37 352.19 108.327C348.568 112.454 355.092 113.054 357.474 112.883C362.289 112.537 367.116 112.379 371.944 112.341C388.949 112.208 406.05 113.011 423.041 112.162C430.159 111.807 437.119 110.575 444.105 109.198C445.653 108.892 456.249 106.854 450.207 104.411C446.636 102.968 439.348 105.193 435.597 105.636Z" fill="#89C5CC"/>
<path opacity="0.5" fill-rule="evenodd" clip-rule="evenodd" d="M378.836 98.0821C378.7 98.2582 378.7 98.2582 378.836 98.0821V98.0821ZM378.705 98.0516C378.659 98.178 378.516 98.4901 378.705 98.0516V98.0516ZM377.479 96.4511C377.508 96.488 377.623 96.6379 377.479 96.4511V96.4511ZM377.432 96.4392C377.9 97.0045 378.215 97.6353 378.377 98.3311C374.349 99.4349 372.797 96.1381 377.432 96.4392ZM377.177 96.2847C377.179 96.2856 377.745 96.5268 377.177 96.2847V96.2847ZM370.56 91.3725C367.954 94.6574 365.802 98.4855 369.052 102.238C371.958 105.592 377.804 106.025 381.492 103.785C385.292 101.478 384.964 96.6194 382.313 93.4484C380.607 91.4067 379.224 91.4634 376.748 91.13C375.062 90.9031 371.991 89.577 370.56 91.3725Z" fill="#89C5CC"/>
<path opacity="0.5" fill-rule="evenodd" clip-rule="evenodd" d="M397.509 97.452C397.509 101.826 416.174 99.9433 419.495 99.9387C422.276 99.9346 439.095 101.487 437.888 96.9858C436.896 93.2873 420.329 95.1257 416.801 95.1202C413.751 95.116 397.509 92.9973 397.509 97.452Z" fill="#89C5CC"/>
</g>
<path fill-rule="evenodd" clip-rule="evenodd" d="M226.834 193.663C228.434 198.627 230.759 210.068 228.984 211.945L217.343 212.442C217.341 212.421 217.339 212.401 217.337 212.38C213.001 212.086 209.489 208.56 209.3 204.104L208.951 195.877C208.748 191.096 212.447 187.055 217.214 186.851L218.017 186.817C222.292 186.634 225.974 189.6 226.834 193.663Z" fill="#191847"/>
<path fill-rule="evenodd" clip-rule="evenodd" d="M213.757 202.388C211.815 200.308 210.451 197.716 210.534 194.743C210.774 186.177 222.813 187.545 225.322 191.756C227.832 195.967 228.02 206.913 225.046 207.812C223.86 208.17 221.274 207.527 218.608 206.08L220.727 217.486L211.093 217.898L213.757 202.388Z" fill="#B28B67"/>
<path fill-rule="evenodd" clip-rule="evenodd" d="M216.3 200.834C216.946 205.556 216.998 210.977 215.729 212.318L204.088 212.816C202.963 201.64 209.416 205.71 208.968 195.162C209.343 194.765 209.696 194.374 210.048 194.034L210.022 193.725C211.863 189.536 214.334 187.375 217.433 187.243C222.081 187.044 223.64 189.132 224.967 190.904C224.168 194.131 220.563 194.758 217.426 196.882C217.033 196.591 216.541 196.428 216.014 196.451C214.794 196.503 213.847 197.528 213.899 198.74C213.95 199.952 214.981 200.893 216.2 200.841C216.234 200.839 216.267 200.837 216.3 200.834Z" fill="#191847"/>
<path fill-rule="evenodd" clip-rule="evenodd" d="M185.571 285.872C194.395 290.604 202.22 293.732 209.047 295.258C215.873 296.783 222.663 296.176 229.417 293.435C220.809 288.679 213.527 285.635 207.569 284.304C201.612 282.973 194.279 283.495 185.571 285.872Z" fill="#D6814E"/>
<path fill-rule="evenodd" clip-rule="evenodd" d="M216.348 300.867C216.287 300.711 216.244 300.546 216.219 300.371C215.699 296.768 203.519 256.419 202.968 249.417L225.646 254.485C226.065 259.808 225.986 292.614 225.567 299.069C226.43 309.591 225.629 342.866 225.94 345.254C226.267 347.765 220.985 349.124 220.355 345.986C219.353 340.993 217.353 327.35 216.924 319.196C216.522 311.552 216.331 304.714 216.348 300.867Z" fill="#997659"/>
<path fill-rule="evenodd" clip-rule="evenodd" d="M196.822 301.098C187.097 301.366 152.478 298.042 150.019 298.185C147.491 298.332 146.494 292.969 149.669 292.565C154.72 291.922 168.474 290.902 176.641 291.056C183.21 291.18 189.176 291.417 193.162 291.666C195.237 280.787 199.506 254.522 201.727 249.139L221.794 253.624C219.663 258.785 203.036 296.204 200.692 299.797C199.914 301.093 198.382 301.401 196.822 301.098Z" fill="#B28B67"/>
<path fill-rule="evenodd" clip-rule="evenodd" d="M150.151 291.267C148.972 290.763 148.085 290.497 147.49 290.471C146.766 290.438 145.704 290.512 144.305 290.691C144.267 291.534 143.93 299.103 143.292 313.399C145.211 314.077 146.276 313.783 146.488 312.519C146.7 311.254 146.887 310.204 147.049 309.369L152.211 299.025C152.31 298.826 152.23 298.584 152.032 298.484C152.028 298.483 152.025 298.481 152.021 298.479L150.411 297.727C149.916 296.526 149.685 295.557 149.718 294.821C149.744 294.223 150.022 293.409 150.55 292.377L150.55 292.377C150.753 291.981 150.597 291.495 150.203 291.291C150.186 291.283 150.168 291.275 150.151 291.267Z" fill="#E4E4E4"/>
<path fill-rule="evenodd" clip-rule="evenodd" d="M219.271 346.406C218.806 347.604 218.57 348.501 218.563 349.099C218.554 349.825 218.661 350.887 218.885 352.284C219.726 352.295 227.279 352.39 241.546 352.569C242.159 350.624 241.832 349.565 240.565 349.394C239.299 349.222 238.246 349.068 237.409 348.932L226.935 344.09C226.734 343.997 226.495 344.086 226.402 344.288C226.4 344.291 226.399 344.295 226.397 344.298L225.7 345.937C224.518 346.472 223.561 346.735 222.826 346.725C222.23 346.718 221.409 346.466 220.364 345.969L220.364 345.969C219.962 345.779 219.483 345.951 219.293 346.353C219.285 346.37 219.278 346.388 219.271 346.406Z" fill="#E4E4E4"/>
<path fill-rule="evenodd" clip-rule="evenodd" d="M201.792 249.154C211.196 248.602 219.563 250.472 226.892 254.763C226.857 267.891 232.424 274.349 229.335 293.798C214.531 297.438 200.578 282.416 185.418 285.804C183.502 275.898 193.823 255.379 201.792 249.154Z" fill="#F19259"/>
<path fill-rule="evenodd" clip-rule="evenodd" d="M228.471 227.912L242.743 220.921C245.182 218.279 247.56 216.249 249.877 214.83C250.577 214.575 251.786 214.455 250.573 216.395C249.361 218.336 248.173 220.431 248.718 221.07C249.263 221.709 250.729 220.916 251.367 221.966C251.792 222.666 249.305 223.629 243.906 224.857L233.37 233.654L228.471 227.912ZM250.005 235.317L256.275 232.236C257.279 229.013 258.379 227.418 259.574 227.451C260.51 227.066 258.729 231.116 260.484 230.836C262.239 230.557 266.624 227.596 267.327 228.269C268.367 229.264 267.273 232.127 266.072 233.522C263.826 236.128 262.026 236.973 257.624 237.988C255.322 238.519 252.808 239.677 250.081 241.462L250.005 235.317Z" fill="#997659"/>
<path fill-rule="evenodd" clip-rule="evenodd" d="M221.761 225.911C226.644 226.079 233.197 225.342 240.337 221.254L242.793 227.446C237.792 231.975 230.884 235.571 225.003 235.142C220.368 234.804 218.246 229.095 221.761 225.911Z" fill="#CAB5A8"/>
<path fill-rule="evenodd" clip-rule="evenodd" d="M227.899 235.939C233.022 237.461 241.778 236.33 254.166 232.546C256.912 238.927 258.112 243.443 257.765 246.092C247.061 251.077 237.986 253.107 230.592 252.936C230.631 257.321 229.912 261.46 227.951 265.183C223.917 272.837 202.665 264.628 195.347 265.728C191.461 250.799 200.512 245.209 200.939 235.788C201.406 225.47 210.415 209.961 211.637 210.016L222.774 210.515C223.037 218.423 225.743 227.246 227.899 235.939Z" fill="#E3CDC0"/>
<g opacity="0.5">
<path opacity="0.5" fill-rule="evenodd" clip-rule="evenodd" d="M392.263 343.184C401.61 344.545 411.334 348.954 411.252 359.868C411.184 369.044 403.511 378.81 393.659 378.262C384.792 377.769 376.443 368.043 375.333 359.709C374.757 355.391 375.834 350.742 378.366 347.19C381.684 342.536 386.949 342.543 392.263 343.184ZM387.847 337.252C381.086 337.289 376.14 339.742 371.955 344.92C370.454 346.776 368.709 348.775 367.567 350.878C366.5 352.843 366.687 357.838 370.348 355.496C369.447 365.168 375.082 374.555 383.183 379.511C391.99 384.898 401.943 383.848 409.272 376.297C415.981 369.385 418.342 357.71 413.434 349.161C408.528 340.617 397.163 337.16 387.847 337.252Z" fill="#89C5CC"/>
<path opacity="0.5" fill-rule="evenodd" clip-rule="evenodd" d="M408.121 334.66C403.792 337.842 399.84 342.032 396.557 346.282C393.348 350.436 391.227 355.623 387.373 359.245C385.426 357.118 383.146 351.375 379.263 353.654C376.041 355.544 378.115 358.796 379.685 360.931C383.737 366.444 388.237 368.662 393.434 363.215C398.154 358.269 400.835 351.67 405.248 346.439C407.184 344.144 410.174 341.866 411.716 339.332C413.113 337.035 411.385 332.253 408.121 334.66Z" fill="#89C5CC"/>
</g>
<path fill-rule="evenodd" clip-rule="evenodd" d="M757.16 260.114L734.166 318.487L718.744 367.837L712.654 367.837L736.231 260.114L757.16 260.114Z" fill="#D2B090"/>
<path fill-rule="evenodd" clip-rule="evenodd" d="M761.79 260.114C762.035 280.626 765.605 308.244 766.176 309.522C766.556 310.375 779.686 321.215 805.565 342.044L801.371 346.546C770.836 328.688 754.862 318.568 753.449 316.187C751.329 312.614 744.429 279.738 738.888 260.114L761.79 260.114Z" fill="#E7C4A3"/>
<path fill-rule="evenodd" clip-rule="evenodd" d="M806.128 340.541C807.537 341.04 808.507 341.514 809.039 341.961C809.686 342.506 810.54 343.409 811.601 344.67C810.971 345.423 805.31 352.191 794.616 364.973C792.436 364.037 791.752 362.942 792.564 361.689C793.377 360.435 794.041 359.386 794.559 358.54L798.259 345.574C798.33 345.324 798.589 345.18 798.838 345.251C798.842 345.252 798.847 345.254 798.851 345.255L800.825 345.883C802.195 345.243 803.155 344.594 803.705 343.936C804.153 343.401 804.555 342.482 804.912 341.178L804.912 341.178C805.05 340.677 805.565 340.383 806.064 340.521C806.086 340.527 806.107 340.533 806.128 340.541Z" fill="#E4E4E4"/>
<path fill-rule="evenodd" clip-rule="evenodd" d="M721.237 365.559C721.761 366.962 722.023 368.012 722.023 368.709C722.023 369.556 721.883 370.793 721.601 372.419C720.621 372.419 711.813 372.419 695.178 372.419C694.491 370.142 694.887 368.913 696.367 368.731C697.846 368.549 699.075 368.385 700.054 368.239L712.335 362.748C712.571 362.642 712.848 362.748 712.954 362.985C712.956 362.99 712.957 362.994 712.959 362.998L713.748 364.918C715.118 365.559 716.231 365.88 717.087 365.88C717.783 365.88 718.744 365.598 719.969 365.034L719.969 365.034C720.44 364.818 720.996 365.025 721.212 365.497C721.221 365.517 721.229 365.538 721.237 365.559Z" fill="#E4E4E4"/>
<path fill-rule="evenodd" clip-rule="evenodd" d="M741.7 362.754L712.745 359.602L734.204 260.114L760.138 260.114L741.7 362.754Z" fill="#69A1AC"/>
<path fill-rule="evenodd" clip-rule="evenodd" d="M799.577 334.78L780.585 357.328C760.58 335.414 748.918 321.115 745.597 314.432C742.276 307.748 739.291 289.642 736.641 260.114L765.838 260.114C767.285 286.091 768.261 299.684 768.765 300.893C769.268 302.102 779.539 313.398 799.577 334.78Z" fill="#89C5CC"/>
<path fill-rule="evenodd" clip-rule="evenodd" d="M748.351 187.699C749.727 184.621 750.265 181.186 749.042 177.871C745.521 168.319 732.612 174.428 731.413 180.121C730.213 185.813 734.16 198.206 737.819 198.089C739.278 198.042 741.918 196.337 744.342 193.696L746.31 207.34L757.213 204.147L748.351 187.699Z" fill="#E7C4A3"/>
<mask id="mask0" mask-type="alpha" maskUnits="userSpaceOnUse" x="731" y="168" width="32" height="24">
<path d="M731.57 178.004C731.493 177.381 731.219 177.145 733.115 174.771C735.011 172.397 738.284 169.294 742.411 169.019C747.767 168.661 750.734 171.404 753.146 172.454C755.319 173.401 757.123 173.057 758.69 174.563C760.257 176.068 762.327 181.114 762.025 183.449C761.609 186.67 759.373 188.16 757.817 189.509C755.148 191.822 750.362 191.606 750.184 191.39C748.813 189.72 742.854 185.618 739.554 184.128C737.127 183.033 731.935 180.926 731.57 178.004Z" fill="white"/>
</mask>
<g mask="url(#mask0)">
<path fill-rule="evenodd" clip-rule="evenodd" d="M752.85 171.304C753.542 176.728 752.776 182.1 750.552 187.417C753.687 183.076 755.073 177.884 754.711 171.84L752.85 171.304ZM755.452 172.689C755.732 178.653 753.782 184.937 749.6 191.542C754.961 185.695 757.57 179.412 757.425 172.694L755.452 172.689Z" fill="black" fill-opacity="0.2"/>
</g>
<path fill-rule="evenodd" clip-rule="evenodd" d="M757.217 198.511C757.102 198.152 756.985 197.791 756.867 197.43L756.449 197.634C756.383 197.567 756.316 197.501 756.249 197.438L743.029 199.659C743.122 207.131 737.283 214.196 733.61 220.258C727.899 229.682 717.658 240.176 724.482 253.982C730.63 266.422 746.262 268.257 771.378 259.488C771.294 252.747 765.684 246.04 765.405 237.845C765.14 230.044 763.388 206.421 757.217 198.511Z" fill="#F19259"/>
<path fill-rule="evenodd" clip-rule="evenodd" d="M741.41 250.219C740.466 245.645 739.853 242.591 739.57 241.057C732.614 249.145 728.588 253.242 727.492 253.348C725.432 253.549 723.885 251.734 723.457 252.255C722.767 254.4 724.86 259.721 728.742 260.449C730.596 260.797 733.409 256.936 734.571 255.566C735.028 255.027 737.308 253.245 741.41 250.219ZM728.913 225.926C727.084 225.949 726.111 226.72 725.048 228.264C723.986 229.808 723.053 237.039 724.79 237.017C726.526 236.995 733.767 234.113 733.743 232.237C733.72 230.362 728.745 229.63 728.727 228.218C728.71 226.806 730.742 225.903 728.913 225.926Z" fill="#E7C4A3"/>
<path fill-rule="evenodd" clip-rule="evenodd" d="M745.191 257.15C745.304 257.539 745.42 257.935 745.538 258.338C766.081 243.547 765.87 225.941 759.458 206.284C764.348 225.653 762.661 242.063 745.191 257.15Z" fill="black" fill-opacity="0.2"/>
<path fill-rule="evenodd" clip-rule="evenodd" d="M736.9 171.437C738.468 170.948 740.746 170.782 741.704 170.894C741.159 169.558 740.943 168.07 741.119 166.62C741.29 165.212 741.905 164.013 742.474 162.757C742.736 162.178 743.033 161.602 743.476 161.159C743.928 160.707 744.499 160.409 745.098 160.267C745.711 160.122 746.352 160.134 746.966 160.266C747.237 160.324 747.481 160.451 747.747 160.522C748.02 160.594 748.152 160.42 748.35 160.244C748.827 159.821 749.527 159.612 750.13 159.538C750.808 159.454 751.51 159.558 752.156 159.786C752.785 160.008 753.389 160.368 753.843 160.893C754.046 161.126 754.229 161.392 754.349 161.685C754.398 161.806 754.406 161.877 754.523 161.921C754.632 161.962 754.759 161.963 754.871 162.002C755.955 162.378 756.882 163.235 757.386 164.335C757.681 164.977 757.82 166.107 757.782 167.373C757.744 168.64 756.626 171.945 755.58 173.151C754.647 174.227 753.275 174.937 751.952 175.248C752.83 176.275 753.415 177.559 753.848 178.865C754.318 180.284 754.608 181.758 754.716 183.26C754.818 184.687 754.827 186.196 754.5 187.592C754.194 188.898 753.54 189.969 752.448 190.649C751.948 190.96 751.41 191.194 750.869 191.408C750.335 191.619 749.8 191.824 749.241 191.942C748.184 192.165 746.965 192.127 746.151 191.266C745.857 190.955 745.534 190.565 745.32 190.186C745.243 190.05 745.197 189.96 745.29 189.827C745.402 189.667 745.584 189.545 745.728 189.42C746.549 188.708 747.057 187.757 747.185 186.627C747.315 185.481 747.014 184.001 745.925 183.501C744.58 182.883 743.099 183.592 741.904 184.253C741.396 182.418 740.353 180.767 738.718 179.925C736.908 178.994 734.832 178.885 732.973 178.087C732.489 177.879 731.995 177.642 731.639 177.218C731.49 177.041 731.315 176.811 731.255 176.577C731.177 176.269 731.371 176.011 731.521 175.771C732.316 174.498 735.331 171.926 736.9 171.437Z" fill="#AE8F53"/>
<path fill-rule="evenodd" clip-rule="evenodd" d="M30.1729 276.266L43.8313 323.474L50.2556 358.918H56.7036L50.2671 276.266H30.1729Z" fill="#D4B190"/>
<path fill-rule="evenodd" clip-rule="evenodd" d="M24.0357 276.266C24.9887 300.79 24.6128 314.166 24.3995 316.394C24.1862 318.623 22.9753 333.545 14.7236 359.666H21.4301C32.3581 334.607 36.173 319.685 37.4263 316.394C38.6797 313.104 42.3814 299.728 47.7857 276.266H24.0357Z" fill="#D4B190"/>
<path fill-rule="evenodd" clip-rule="evenodd" d="M29.8799 276.266C33.4327 292.51 39.5775 318.44 48.3143 354.056H57.7452C58.4418 317.5 55.4786 293.44 50.347 276.266H29.8799Z" fill="#AAD1E4"/>
<path fill-rule="evenodd" clip-rule="evenodd" d="M23.9872 276.266C24.9206 300.79 22.5017 324.951 15.0088 354.438H25.0711C36.0192 329.753 43.866 305.712 49.2288 276.266H23.9872Z" fill="#B7E6FE"/>
<path fill-rule="evenodd" clip-rule="evenodd" d="M13.7666 364.528L14.1366 358.544C16.3032 359.179 19.0168 358.93 22.2776 357.796C25.7837 360.287 30.1974 361.988 35.5187 362.899L35.5187 362.899C35.9247 362.968 36.1977 363.355 36.1284 363.762C36.1239 363.788 36.118 363.814 36.1107 363.84L35.5991 365.65H22.2776H14.5067L13.7666 364.528Z" fill="#E3CDC0"/>
<path fill-rule="evenodd" clip-rule="evenodd" d="M48.8164 364.528L49.1864 358.544C51.353 359.179 54.0666 358.93 57.3274 357.796C60.8335 360.287 65.2472 361.988 70.5685 362.899L70.5685 362.899C70.9745 362.968 71.2475 363.355 71.1782 363.762C71.1737 363.788 71.1678 363.814 71.1605 363.84L70.6489 365.65H57.3274H49.5565L48.8164 364.528Z" fill="#E3CDC0"/>
<path fill-rule="evenodd" clip-rule="evenodd" d="M33.6257 225.18C31.9075 223.157 30.7446 220.678 30.939 217.901C31.4988 209.897 42.6067 211.658 44.7674 215.697C46.9281 219.737 46.6713 229.983 43.8788 230.705C42.7652 230.993 40.3927 230.288 37.9782 228.828L39.4938 239.583H30.5449L33.6257 225.18Z" fill="#D5B190"/>
<path fill-rule="evenodd" clip-rule="evenodd" d="M27.0384 215.236C26.7494 214.949 26.5917 214.539 26.4553 214.15C26.3137 213.745 26.1761 213.337 26.0821 212.916C25.8942 212.074 25.8924 211.107 26.4907 210.454C26.9705 209.93 27.6904 209.695 28.3549 209.644C28.7976 209.61 29.2523 209.672 29.6766 209.812C30.0976 209.951 30.4606 210.227 30.8687 210.399C30.8843 209.493 31.0391 208.544 31.4976 207.77C31.9389 207.025 32.6423 206.608 33.4434 206.497C34.2657 206.383 35.0777 206.576 35.8138 206.976C35.9981 207.076 36.1806 207.181 36.3554 207.299C36.5017 207.398 36.6538 207.518 36.8254 207.558C37.0168 207.603 37.1117 207.493 37.236 207.352C37.3819 207.188 37.5462 207.044 37.72 206.915C38.4888 206.349 39.4974 206.116 40.3881 206.455C40.7984 206.612 41.1974 206.878 41.4758 207.244C41.724 207.571 41.901 208.088 42.2435 208.316C42.3889 208.413 42.4915 208.285 42.6239 208.19C42.8226 208.048 43.0122 207.891 43.2134 207.753C43.496 207.559 43.802 207.414 44.1296 207.338C44.6093 207.226 45.2721 207.252 45.4092 207.882C45.4607 208.119 45.4213 208.372 45.4046 208.611C45.3818 208.938 45.358 209.265 45.3296 209.592C45.3081 209.841 45.2809 210.08 45.2342 210.324C45.2093 210.454 45.1313 210.696 45.1869 210.827C45.2563 210.989 45.5767 210.897 45.7136 210.902C45.984 210.914 46.2556 210.961 46.5056 211.077C46.6993 211.167 46.9031 211.299 46.9849 211.522C47.0351 211.659 47.0219 211.799 46.9981 211.94C46.9696 212.109 47.0022 212.199 47.0235 212.369C47.3867 212.19 48.6452 211.791 48.8035 212.444C48.8562 212.661 48.7362 212.907 48.6446 213.09C48.4839 213.412 48.2733 213.706 48.058 213.986C47.6088 214.571 47.0726 215.075 46.4957 215.506C47.1717 215.808 47.3481 216.697 46.7629 217.226C46.5045 217.46 46.1571 217.512 45.8311 217.497C45.7118 217.492 45.5399 217.446 45.446 217.467C45.3955 217.478 45.3414 217.521 45.2714 217.525C44.8114 217.557 44.2922 217.446 43.8425 217.344C43.0413 217.161 42.2828 216.78 41.6633 216.201C41.5044 216.052 41.3732 215.966 41.1593 215.968C40.9719 215.97 40.788 216.022 40.6007 216.027C40.1053 216.039 39.6586 215.796 39.1985 215.635C39.1704 216.258 38.9934 216.945 38.7391 217.505C38.5318 217.963 38.0989 218.029 37.6734 218.069C36.313 218.198 34.9478 218.054 33.5856 218.056C34.9042 218.355 36.2668 218.478 37.5737 218.83C38.1644 218.989 37.7133 219.389 37.4607 219.665C37.0448 220.121 36.7356 220.686 36.5211 221.281C35.876 220.438 34.7359 219.882 33.7258 220.141C32.6097 220.427 31.8238 221.941 32.5375 223.03C32.9519 223.661 33.7001 223.905 34.3227 224.177C33.837 224.683 33.7195 225.431 33.4272 226.061C33.283 226.372 33.0806 226.723 32.7582 226.832C32.6389 226.872 32.499 226.875 32.4049 226.973C32.2883 227.093 32.2606 227.229 32.1117 227.332C31.5176 227.747 30.5896 227.715 30.0631 227.174C29.5869 226.685 29.7108 225.911 30.1085 225.416C29.4754 225.151 28.3221 224.811 28.5737 223.821C27.2019 223.73 23.8714 221.499 25.7125 219.868C24.7021 219.295 23.7738 217.896 24.4228 216.662C24.9226 215.711 26.0848 215.287 27.0384 215.236Z" fill="#FFE39C"/>
<path fill-rule="evenodd" clip-rule="evenodd" d="M61.887 269.449L74.4914 278.733C77.91 279.658 80.7661 280.809 83.0598 282.186C83.6016 282.681 84.2564 283.684 82.0094 283.511C79.7624 283.338 77.3912 283.257 77.0811 284.025C76.7711 284.794 78.1309 285.713 77.5041 286.751C77.0863 287.442 75.1124 285.708 71.5824 281.549L59.1006 276.358L61.887 269.449ZM13.4923 269.77L21.7498 269.802C16.6512 286.311 13.8987 295.07 13.4923 296.081C12.5779 298.353 14.5128 301.815 15.3402 303.675C12.6453 304.884 12.9325 300.405 9.53293 301.991C6.42998 303.439 4.06957 306.063 0.484557 303.844C0.0438006 303.571 -0.439197 302.544 0.727786 301.742C3.63516 299.742 7.82487 296.243 8.39097 295.091C9.16294 293.52 10.8634 285.08 13.4923 269.77Z" fill="#D4B190"/>
<path fill-rule="evenodd" clip-rule="evenodd" d="M36.9583 235.016L40.3752 234.428C53.0528 245.413 58.2599 266.515 73.7995 277.694L70.0592 282.344C43.1009 278.996 36.419 253.256 36.9583 235.016Z" fill="#D58251"/>
<path fill-rule="evenodd" clip-rule="evenodd" d="M22.0635 278.085C35.7638 278.085 45.8415 278.085 52.2966 278.085C53.6781 278.085 53.4178 276.084 53.2181 275.074C50.9132 263.422 41.9161 250.861 41.9161 234.274L33.1954 232.903C25.9823 244.539 23.4879 258.864 22.0635 278.085Z" fill="#DDE3E9"/>
<path fill-rule="evenodd" clip-rule="evenodd" d="M22.3064 244.34C21.0398 243.975 20.0368 243.123 19.2974 241.785C16.11 236.016 17.2611 232.84 20.6674 231.796C24.0738 230.752 27.1115 232.903 32.5387 232.903C32.8339 232.903 33.1043 232.921 33.3498 232.958L36.0798 233.115C43.9126 259.74 46.0728 277.505 42.5605 286.408H18.7647C17.3548 289.705 16.0057 292.48 14.7173 294.731H8.23335C7.62312 274.941 12.3141 258.144 22.3064 244.34Z" fill="#F19259"/>
<path fill-rule="evenodd" clip-rule="evenodd" d="M23.9463 272.734C24.6947 279.014 25.9111 283.572 27.5954 286.408H18.7646C20.4092 282.562 22.1365 278.004 23.9463 272.734Z" fill="black" fill-opacity="0.1"/>
<path fill-rule="evenodd" clip-rule="evenodd" d="M665.745 221.186C661.311 221.186 659.698 215.861 657.179 212.938C655.376 210.847 652.3 211.471 651.389 208.544C649.099 201.183 655.228 196.003 663.223 196.003C671.219 196.003 676.61 200.546 677.774 207.376C678.938 214.206 673.741 221.186 665.745 221.186Z" fill="#2B2842"/>
<path fill-rule="evenodd" clip-rule="evenodd" d="M665.256 216.431C667.044 214.326 668.254 211.746 668.052 208.856C667.469 200.527 655.91 202.359 653.662 206.563C651.413 210.766 651.68 221.429 654.586 222.18C655.745 222.48 658.214 221.746 660.727 220.227L659.15 231.418H668.462L665.256 216.431Z" fill="#B28B67"/>
<path fill-rule="evenodd" clip-rule="evenodd" d="M661.33 211.073C661.669 210.893 662.056 210.791 662.468 210.791C663.788 210.791 664.857 211.837 664.857 213.127C664.857 213.653 664.679 214.139 664.378 214.529C664.944 215.465 665.331 216.448 665.457 217.459C667.419 217.459 674.579 210.013 667.446 203.008C660.314 196.003 650.006 206.003 653.103 206.586C654.884 206.921 658.471 208.627 661.33 211.073Z" fill="#2B2842"/>
<path fill-rule="evenodd" clip-rule="evenodd" d="M671.567 263.72L656.966 311.599L649.893 352.317H644.347L651.821 263.72H671.567Z" fill="#997659"/>
<path fill-rule="evenodd" clip-rule="evenodd" d="M676.79 263.72C675.798 290.008 676.966 303.568 677.188 305.957C677.41 308.345 680.449 323.831 687.645 353.119L681.735 351.083C670.363 324.222 666.488 310.262 665.184 306.735C663.879 303.208 660.415 288.87 654.791 263.72H676.79Z" fill="#B28B67"/>
<path fill-rule="evenodd" clip-rule="evenodd" d="M687.601 351.054C688.035 352.216 688.252 353.086 688.252 353.663C688.252 354.364 688.135 355.389 687.902 356.735C687.091 356.735 679.796 356.735 666.018 356.735C665.449 354.849 665.777 353.831 667.002 353.681C668.228 353.53 669.246 353.395 670.056 353.274L680.228 348.725C680.424 348.638 680.653 348.726 680.74 348.922C680.742 348.926 680.743 348.929 680.745 348.932L681.398 350.523C682.533 351.054 683.454 351.319 684.164 351.319C684.74 351.319 685.535 351.086 686.551 350.619L686.551 350.619C686.94 350.44 687.401 350.612 687.58 351.002C687.587 351.019 687.594 351.036 687.601 351.054Z" fill="#E4E4E4"/>
<path fill-rule="evenodd" clip-rule="evenodd" d="M651.126 351.054C651.56 352.216 651.777 353.086 651.777 353.663C651.777 354.364 651.661 355.389 651.428 356.735C650.616 356.735 643.321 356.735 629.543 356.735C628.974 354.849 629.303 353.831 630.528 353.681C631.753 353.53 632.771 353.395 633.581 353.274L643.753 348.725C643.949 348.638 644.178 348.726 644.266 348.922C644.267 348.926 644.269 348.929 644.27 348.932L644.924 350.523C646.058 351.054 646.98 351.319 647.689 351.319C648.265 351.319 649.061 351.086 650.076 350.619L650.076 350.619C650.466 350.44 650.926 350.612 651.105 351.002C651.113 351.019 651.12 351.036 651.126 351.054Z" fill="#E4E4E4"/>
<path fill-rule="evenodd" clip-rule="evenodd" d="M673.507 263.72L667.299 288.114H648.336L651.164 263.72H673.507Z" fill="#69A1AC"/>
<path fill-rule="evenodd" clip-rule="evenodd" d="M676.999 263.72C679.042 269.862 679.43 277.993 678.163 288.114H658.813L653.492 263.72H676.999Z" fill="#89C5CC"/>
<path fill-rule="evenodd" clip-rule="evenodd" d="M637.404 257.541L626.412 268.296C623.214 269.665 620.594 271.175 618.551 272.829C618.092 273.385 617.592 274.45 619.753 273.973C621.914 273.497 624.209 273.093 624.615 273.798C625.022 274.503 623.825 275.583 624.575 276.506C625.076 277.121 626.759 275.164 629.625 270.636L641.055 263.877L637.404 257.541ZM686.192 259.058L678.083 259.09C683.09 275.301 685.793 283.902 686.192 284.894C687.089 287.126 685.19 290.525 684.377 292.351C687.023 293.539 686.741 289.141 690.08 290.698C693.126 292.12 695.444 294.696 698.965 292.518C699.397 292.25 699.872 291.241 698.726 290.453C695.871 288.49 691.757 285.053 691.201 283.922C690.443 282.38 688.773 274.092 686.192 259.058Z" fill="#B28B67"/>
<path fill-rule="evenodd" clip-rule="evenodd" d="M663.149 224.931L659.793 224.354C654.017 238.828 643.932 251.979 629.538 263.808L640.414 277.062C654.807 260.22 663.678 242.843 663.149 224.931Z" fill="#2B2842"/>
<path fill-rule="evenodd" clip-rule="evenodd" d="M677.774 267.223H647.897C654.819 250.342 658.28 236.002 658.28 224.203L667.293 222.856C674.375 234.282 676.376 248.349 677.774 267.223Z" fill="#DDE3E9"/>
<path fill-rule="evenodd" clip-rule="evenodd" d="M667.484 222.863C667.483 222.86 667.482 222.858 667.48 222.856H666.892C666.188 222.881 665.116 222.924 663.675 222.988L661.498 229.23C661.267 236.84 659.922 252.178 657.462 275.242H677.047C676.996 276.835 676.911 278.443 676.793 280.066H691.355C689.177 255.417 681.222 236.347 667.491 222.856L667.484 222.863V222.863Z" fill="#524F61"/>
<path fill-rule="evenodd" clip-rule="evenodd" d="M675.753 254.86C675.196 264.79 673.8 271.635 671.567 275.396H677.042C677.282 268.252 676.852 261.406 675.753 254.86V254.86Z" fill="black" fill-opacity="0.1"/>
<path fill-rule="evenodd" clip-rule="evenodd" d="M672.688 263.331L663.03 258.828V263.331H672.688Z" fill="white" fill-opacity="0.2"/>
</svg>
