<svg width="84" height="160" viewBox="0 0 84 160" fill="none" xmlns="http://www.w3.org/2000/svg">
<path fill-rule="evenodd" clip-rule="evenodd" d="M30.1729 69.9688L43.8313 117.176L50.2556 152.621H56.7036L50.2671 69.9688H30.1729Z" fill="#D4B190"/>
<path fill-rule="evenodd" clip-rule="evenodd" d="M24.0357 69.9688C24.9887 94.4929 24.6128 107.869 24.3995 110.097C24.1862 112.325 22.9753 127.248 14.7236 153.369H21.4301C32.3581 128.31 36.173 113.388 37.4263 110.097C38.6797 106.807 42.3814 93.4305 47.7857 69.9688H24.0357Z" fill="#D4B190"/>
<path fill-rule="evenodd" clip-rule="evenodd" d="M29.8799 69.9688C33.4327 86.213 39.5775 112.143 48.3143 147.759H57.7452C58.4418 111.203 55.4786 87.1426 50.347 69.9688H29.8799Z" fill="#AAD1E4"/>
<path fill-rule="evenodd" clip-rule="evenodd" d="M23.9872 69.9688C24.9206 94.4929 22.5017 118.654 15.0088 148.141H25.0711C36.0192 123.456 43.866 99.4143 49.2288 69.9688H23.9872Z" fill="#B7E6FE"/>
<path fill-rule="evenodd" clip-rule="evenodd" d="M13.7666 158.23L14.1366 152.247C16.3032 152.882 19.0168 152.633 22.2776 151.499C25.7837 153.99 30.1974 155.69 35.5187 156.601L35.5187 156.601C35.9247 156.671 36.1977 157.057 36.1284 157.464C36.1239 157.491 36.118 157.517 36.1107 157.543L35.5991 159.352H22.2776H14.5067L13.7666 158.23Z" fill="#E3CDC0"/>
<path fill-rule="evenodd" clip-rule="evenodd" d="M48.8164 158.23L49.1864 152.247C51.353 152.882 54.0666 152.633 57.3274 151.499C60.8335 153.99 65.2472 155.69 70.5685 156.601L70.5685 156.601C70.9745 156.671 71.2475 157.057 71.1782 157.464C71.1737 157.491 71.1678 157.517 71.1605 157.543L70.6489 159.352H57.3274H49.5565L48.8164 158.23Z" fill="#E3CDC0"/>
<path fill-rule="evenodd" clip-rule="evenodd" d="M33.6257 18.8829C31.9075 16.86 30.7446 14.381 30.939 11.6033C31.4988 3.59969 42.6067 5.36037 44.7674 9.39989C46.9281 13.4394 46.6713 23.686 43.8788 24.4079C42.7652 24.6959 40.3927 23.9906 37.9782 22.5308L39.4938 33.2852H30.5449L33.6257 18.8829Z" fill="#D5B190"/>
<path fill-rule="evenodd" clip-rule="evenodd" d="M27.0384 8.939C26.7494 8.65171 26.5917 8.24164 26.4553 7.85227C26.3137 7.44779 26.1761 7.03914 26.0821 6.61814C25.8942 5.77695 25.8924 4.80957 26.4907 4.15639C26.9705 3.6326 27.6904 3.39767 28.3549 3.34661C28.7976 3.31256 29.2523 3.37474 29.6766 3.51467C30.0976 3.65348 30.4606 3.93013 30.8687 4.10183C30.8843 3.19533 31.0391 2.24682 31.4976 1.4728C31.9389 0.728073 32.6423 0.310158 33.4434 0.199595C34.2657 0.0861292 35.0777 0.279122 35.8138 0.678392C35.9981 0.778386 36.1806 0.883144 36.3554 1.00171C36.5017 1.101 36.6538 1.22056 36.8254 1.26094C37.0168 1.30601 37.1117 1.19515 37.236 1.05511C37.3819 0.890922 37.5462 0.746308 37.72 0.618105C38.4888 0.0513339 39.4974 -0.181701 40.3881 0.158027C40.7984 0.314549 41.1974 0.58037 41.4758 0.946669C41.724 1.27319 41.901 1.79113 42.2435 2.01862C42.3889 2.11519 42.4915 1.98725 42.6239 1.89269C42.8226 1.75061 43.0122 1.59382 43.2134 1.45561C43.496 1.26143 43.802 1.11618 44.1296 1.04015C44.6093 0.928843 45.2721 0.954931 45.4092 1.58504C45.4607 1.82172 45.4213 2.07485 45.4046 2.31332C45.3818 2.64077 45.358 2.9681 45.3296 3.29507C45.3081 3.54332 45.2809 3.78309 45.2342 4.02688C45.2093 4.15683 45.1313 4.3991 45.1869 4.52924C45.2563 4.6919 45.5767 4.59942 45.7136 4.60508C45.984 4.61628 46.2556 4.66384 46.5056 4.77972C46.6993 4.86956 46.9031 5.00167 46.9849 5.22443C47.0351 5.36127 47.0219 5.50183 46.9981 5.64261C46.9696 5.81156 47.0022 5.90117 47.0235 6.07165C47.3867 5.89228 48.6452 5.49375 48.8035 6.14656C48.8562 6.36393 48.7362 6.60954 48.6446 6.79286C48.4839 7.11439 48.2733 7.40827 48.058 7.68853C47.6088 8.2732 47.0726 8.77749 46.4957 9.20876C47.1717 9.51016 47.3481 10.3992 46.7629 10.9288C46.5045 11.1627 46.1571 11.2148 45.8311 11.1998C45.7118 11.1943 45.5399 11.1483 45.446 11.1692C45.3955 11.1804 45.3414 11.2233 45.2714 11.2281C44.8114 11.2597 44.2922 11.1485 43.8425 11.0462C43.0413 10.8637 42.2828 10.483 41.6633 9.90314C41.5044 9.7544 41.3732 9.66877 41.1593 9.67096C40.9719 9.67286 40.788 9.7244 40.6007 9.72916C40.1053 9.74185 39.6586 9.49892 39.1985 9.33723C39.1704 9.9606 38.9934 10.6472 38.7391 11.208C38.5318 11.6653 38.0989 11.7318 37.6734 11.7719C36.313 11.9003 34.9478 11.757 33.5856 11.7589C34.9042 12.0578 36.2668 12.1811 37.5737 12.5328C38.1644 12.6918 37.7133 13.0912 37.4607 13.368C37.0448 13.8239 36.7356 14.3887 36.5211 14.9838C35.876 14.1404 34.7359 13.5847 33.7258 13.8438C32.6097 14.13 31.8238 15.6439 32.5375 16.7322C32.9519 17.364 33.7001 17.6079 34.3227 17.8793C33.837 18.3858 33.7195 19.1338 33.4272 19.764C33.283 20.0747 33.0806 20.426 32.7582 20.5343C32.6389 20.5744 32.499 20.5778 32.4049 20.6754C32.2883 20.7961 32.2606 20.9311 32.1117 21.0349C31.5176 21.4492 30.5896 21.4173 30.0631 20.8767C29.5869 20.3877 29.7108 19.6141 30.1085 19.1184C29.4754 18.8537 28.3221 18.5133 28.5737 17.5241C27.2019 17.4327 23.8714 15.2013 25.7125 13.5707C24.7021 12.9979 23.7738 11.5982 24.4228 10.3643C24.9226 9.41411 26.0848 8.98939 27.0384 8.939Z" fill="#FFE39C"/>
<path fill-rule="evenodd" clip-rule="evenodd" d="M61.887 63.1519L74.4914 72.4354C77.91 73.3607 80.7661 74.5118 83.0598 75.8889C83.6016 76.384 84.2564 77.3869 82.0094 77.2135C79.7624 77.0402 77.3912 76.9593 77.0811 77.728C76.7711 78.4967 78.1309 79.416 77.5041 80.4532C77.0863 81.1447 75.1124 79.4109 71.5823 75.2518L59.1006 70.0603L61.887 63.1519ZM13.4923 63.4723L21.7498 63.5048C16.6512 80.0136 13.8987 88.773 13.4923 89.7831C12.5779 92.0559 14.5128 95.5174 15.3402 97.3775C12.6453 98.587 12.9325 94.1077 9.53293 95.694C6.42998 97.142 4.06957 99.7656 0.484557 97.5468C0.0438006 97.2741 -0.439197 96.247 0.727786 95.4444C3.63516 93.4449 7.82487 89.9453 8.39097 88.7934C9.16294 87.2225 10.8634 78.7822 13.4923 63.4723Z" fill="#D4B190"/>
<path fill-rule="evenodd" clip-rule="evenodd" d="M36.9583 28.7186L40.3752 28.1307C53.0528 39.1153 58.2599 60.2179 73.7995 71.3969L70.0592 76.047C43.1009 72.6991 36.419 46.9589 36.9583 28.7186Z" fill="#D58251"/>
<path fill-rule="evenodd" clip-rule="evenodd" d="M22.0635 71.7875C35.7638 71.7875 45.8415 71.7875 52.2966 71.7875C53.6781 71.7875 53.4178 69.7867 53.2181 68.777C50.9132 57.1247 41.9161 44.564 41.9161 27.9771L33.1954 26.6055C25.9823 38.2412 23.4879 52.5671 22.0635 71.7875Z" fill="#DDE3E9"/>
<path fill-rule="evenodd" clip-rule="evenodd" d="M22.3064 38.0427C21.0398 37.6775 20.0368 36.8258 19.2974 35.4876C16.11 29.7189 17.2611 26.5429 20.6674 25.4989C24.0738 24.4549 27.1115 26.6053 32.5387 26.6053C32.8339 26.6053 33.1043 26.6239 33.3498 26.661L36.0798 26.8172C43.9126 53.4431 46.0728 71.2075 42.5605 80.1104H18.7647C17.3548 83.4078 16.0057 86.1822 14.7173 88.4334H8.23335C7.62312 68.6433 12.3141 51.8464 22.3064 38.0427Z" fill="#F19259"/>
<path fill-rule="evenodd" clip-rule="evenodd" d="M23.9463 66.4363C24.6947 72.7167 25.9111 77.2749 27.5954 80.1107H18.7646C20.4092 76.2644 22.1365 71.7062 23.9463 66.4363V66.4363Z" fill="black" fill-opacity="0.1"/>
</svg>
