<svg width="70" height="72" viewBox="0 0 70 72" fill="none" xmlns="http://www.w3.org/2000/svg">
<path d="M0.844525 71.5H9.84085C10.2285 71.5 10.566 71.2361 10.6601 70.8606C10.6936 70.7253 11.2951 68.2831 11.5964 64.561C12.0824 66.2368 12.5228 68.3557 12.5953 70.6819C12.6096 71.1377 12.9829 71.5 13.4393 71.5H19.5569C19.961 71.5 20.3079 71.2141 20.3854 70.8177C20.4349 70.567 21.2744 66.184 21.1018 61.3491C21.7627 63.4818 22.4669 66.5144 23.0382 70.7677C23.0943 71.1872 23.4522 71.5 23.875 71.5H29.9926C30.3901 71.5 30.7331 71.2229 30.8178 70.8347C30.8371 70.7468 31.0718 69.6367 31.1823 67.7614C31.3506 68.6636 31.5166 69.6659 31.6749 70.7748C31.7343 71.191 32.0911 71.5 32.5112 71.5H38.2692C38.5128 71.5 38.7448 71.395 38.9053 71.2114C39.0653 71.0277 39.139 70.7842 39.106 70.5423C39.0891 70.4148 37.4491 58.1905 37.483 50.9887H37.7293C38.1955 50.9887 38.5738 50.6105 38.5738 50.1442V44.1416C38.5738 42.882 37.5495 41.8577 36.2899 41.8577H23.8772V4.25598C23.8772 1.90945 21.9683 0 19.6217 0C17.267 0 15.3515 1.90945 15.3515 4.25598V41.8577H2.9387C1.67912 41.8577 0.654845 42.882 0.654845 44.1416V50.1442C0.654845 50.6105 1.03311 50.9887 1.49933 50.9887H1.75513C2.07896 53.0815 2.81273 60.1802 0.029726 70.4345C-0.0395484 70.688 0.0137818 70.9596 0.173773 71.1685C0.333764 71.3774 0.581722 71.5 0.844525 71.5ZM2.34382 44.1416C2.34382 43.8194 2.61597 43.5467 2.9387 43.5467H16.196C16.6622 43.5467 17.0404 43.1684 17.0404 42.7022V4.25598C17.0404 2.8408 18.1983 1.68898 19.6217 1.68898C21.0369 1.68898 22.1882 2.8408 22.1882 4.25598V42.7022C22.1882 43.1684 22.5665 43.5467 23.0327 43.5467H36.2899C36.6182 43.5467 36.8848 43.8133 36.8848 44.1416V49.2997H2.34382V44.1416ZM3.46816 50.9893H35.7929C35.7638 57.1965 36.9162 66.7542 37.3071 69.811H33.2402C32.1665 62.7412 30.7975 60.1143 30.7375 60.0026C30.5435 59.6398 30.1152 59.4704 29.7287 59.598C29.3383 59.7267 29.0975 60.1165 29.1569 60.5228C29.8172 65.0124 29.4791 68.4316 29.2789 69.811H24.6106C22.9898 58.4209 20.4255 55.7373 20.1331 55.4641C19.8582 55.2068 19.4469 55.1639 19.1258 55.3552C18.8031 55.5471 18.6453 55.9281 18.7388 56.2915C20.0275 61.3029 19.1792 67.7295 18.8454 69.811H14.2436C13.8863 64.3301 11.7646 60.1923 11.67 60.0103C11.4902 59.6645 11.0988 59.4858 10.72 59.5799C10.3423 59.6722 10.0762 60.0109 10.0762 60.4002C10.0762 64.8557 9.44995 68.414 9.1624 69.811H1.93972C4.38577 60.1841 3.82717 53.4579 3.46816 50.9893Z" fill="white"/>
<path d="M43.2849 54.4963H56.049C56.5152 54.4963 56.8935 54.1181 56.8935 53.6519C56.8935 53.1856 56.5152 52.8074 56.049 52.8074H43.2849C42.8187 52.8074 42.4404 53.1856 42.4404 53.6519C42.4404 54.1181 42.8187 54.4963 43.2849 54.4963Z" fill="white"/>
<path d="M61.5872 53.6519C61.5872 54.1181 61.9654 54.4963 62.4316 54.4963H68.8137C69.2799 54.4963 69.6582 54.1181 69.6582 53.6519C69.6582 53.1856 69.2799 52.8074 68.8137 52.8074H62.4316C61.9654 52.8074 61.5872 53.1856 61.5872 53.6519Z" fill="white"/>
<path d="M68.8137 59.5557H56.0491C55.5829 59.5557 55.2046 59.9339 55.2046 60.4002C55.2046 60.8664 55.5829 61.2446 56.0491 61.2446H68.8137C69.2799 61.2446 69.6582 60.8664 69.6582 60.4002C69.6582 59.9339 69.2799 59.5557 68.8137 59.5557Z" fill="white"/>
<path d="M43.2849 61.2446H49.667C50.1332 61.2446 50.5115 60.8664 50.5115 60.4002C50.5115 59.9339 50.1332 59.5557 49.667 59.5557H43.2849C42.8187 59.5557 42.4404 59.9339 42.4404 60.4002C42.4404 60.8664 42.8187 61.2446 43.2849 61.2446Z" fill="white"/>
<path d="M43.2849 67.9929H51.9096C52.3758 67.9929 52.7541 67.6147 52.7541 67.1484C52.7541 66.6822 52.3758 66.304 51.9096 66.304H43.2849C42.8187 66.304 42.4404 66.6822 42.4404 67.1484C42.4404 67.6147 42.8187 67.9929 43.2849 67.9929Z" fill="white"/>
<path d="M69.6583 67.1484C69.6583 66.6822 69.28 66.304 68.8138 66.304H58.2918C57.8255 66.304 57.4473 66.6822 57.4473 67.1484C57.4473 67.6147 57.8255 67.9929 58.2918 67.9929H68.8138C69.28 67.9929 69.6583 67.6147 69.6583 67.1484Z" fill="white"/>
<path d="M45.0658 44.5011L47.5613 45.8663L48.9259 48.3618C49.0743 48.6329 49.358 48.8011 49.667 48.8011C49.976 48.8011 50.2597 48.6329 50.4081 48.3618L51.7727 45.8663L54.2683 44.5011C54.5393 44.3527 54.7075 44.0685 54.7075 43.76C54.7075 43.451 54.5393 43.1673 54.2683 43.0189L51.7727 41.6543L50.4081 39.1588C50.1112 38.6167 49.2228 38.6167 48.9259 39.1588L47.5613 41.6543L45.0658 43.0189C44.7947 43.1673 44.6265 43.451 44.6265 43.76C44.6265 44.0685 44.7947 44.3527 45.0658 44.5011ZM48.5889 43.0178C48.7307 42.9403 48.8473 42.8237 48.9248 42.6819L49.667 41.3244L50.4092 42.6819C50.4868 42.8237 50.6033 42.9403 50.7452 43.0178L52.1032 43.76L50.7452 44.5028C50.6033 44.5803 50.4868 44.6969 50.4092 44.8387L49.667 46.1967L48.9248 44.8387C48.8473 44.6969 48.7307 44.5803 48.5889 44.5028L47.2309 43.76L48.5889 43.0178Z" fill="white"/>
<path d="M57.9657 36.9838L60.7795 38.5226L62.3189 41.337C62.4674 41.6081 62.7516 41.7763 63.0601 41.7763C63.3691 41.7763 63.6528 41.6081 63.8012 41.337L65.3401 38.5226L68.1539 36.9838C68.425 36.8353 68.5932 36.5511 68.5932 36.2426C68.5932 35.9342 68.425 35.6499 68.1539 35.5015L65.3401 33.9626L63.8012 31.1488C63.6528 30.8777 63.3691 30.7095 63.0601 30.7095C62.7516 30.7095 62.4674 30.8777 62.3189 31.1488L60.7795 33.9626L57.9657 35.5015C57.6946 35.6499 57.5264 35.9342 57.5264 36.2426C57.5264 36.5511 57.6946 36.8353 57.9657 36.9838ZM61.8071 35.3261C61.9489 35.2486 62.0655 35.132 62.143 34.9902L63.0601 33.3139L63.9766 34.9902C64.0541 35.132 64.1707 35.2486 64.3125 35.3261L65.9888 36.2426L64.3125 37.1591C64.1707 37.2367 64.0541 37.3532 63.9766 37.4951L63.0601 39.1719L62.143 37.4951C62.0655 37.3532 61.9489 37.2367 61.8071 37.1591L60.1308 36.2426L61.8071 35.3261Z" fill="white"/>
</svg>
