<svg width="59" height="59" viewBox="0 0 59 59" fill="none" xmlns="http://www.w3.org/2000/svg">
<path d="M35.6164 36.9668H22.994C22.5933 36.9668 22.269 37.2917 22.269 37.6923V41.6109C22.269 42.0116 22.5933 42.3364 22.994 42.3364H35.6164C36.0171 42.3364 36.3414 42.0116 36.3414 41.6109V37.6923C36.3414 37.2917 36.0171 36.9668 35.6164 36.9668ZM34.8914 40.8854H23.719V38.4179H34.8914V40.8854V40.8854Z" fill="white"/>
<path d="M15.299 36.0974C13.3612 36.0974 11.7844 37.692 11.7844 39.6518C11.7844 41.6116 13.3612 43.2058 15.299 43.2058C17.2375 43.2058 18.8142 41.6116 18.8142 39.6518C18.8142 37.692 17.2375 36.0974 15.299 36.0974ZM15.299 41.7547C14.1605 41.7547 13.2344 40.8113 13.2344 39.6518C13.2344 38.4919 14.1605 37.5485 15.299 37.5485C16.4374 37.5485 17.3642 38.4919 17.3642 39.6518C17.3642 40.8113 16.4374 41.7547 15.299 41.7547Z" fill="white"/>
<path d="M39.7957 39.6518C39.7957 41.6116 41.3724 43.2058 43.3109 43.2058C45.2487 43.2058 46.8255 41.6116 46.8255 39.6518C46.8255 37.692 45.2487 36.0974 43.3109 36.0974C41.3724 36.0974 39.7957 37.692 39.7957 39.6518ZM45.3755 39.6518C45.3755 40.8113 44.4494 41.7547 43.3109 41.7547C42.1724 41.7547 41.2457 40.8113 41.2457 39.6518C41.2457 38.4919 42.1724 37.5485 43.3109 37.5485C44.4494 37.5485 45.3755 38.4919 45.3755 39.6518Z" fill="white"/>
<path d="M51.6627 13.8029C51.8751 12.9502 51.988 12.0729 51.988 11.1844C51.988 5.22422 47.1431 0.375 41.1874 0.375C35.2316 0.375 30.386 5.22422 30.386 11.1844C30.386 13.3142 31.0131 15.2963 32.0802 16.9717H19.208C17.0075 16.9717 15.0959 18.5822 14.6654 20.7861L12.2901 31.7011C9.6087 32.2498 7.5811 34.683 7.5811 37.5947V45.8899H7.16763C6.76689 45.8899 6.44263 46.2148 6.44263 46.6154V51.104C6.44263 51.5047 6.76689 51.8296 7.16763 51.8296H9.72141V55.0491C9.72141 56.8832 11.1969 58.375 13.0108 58.375C14.8247 58.375 16.3009 56.8832 16.3009 55.0491V51.8296H42.3089V55.0491C42.3089 56.8832 43.7851 58.375 45.599 58.375C47.4129 58.375 48.8884 56.8832 48.8884 55.0491V51.8296H51.4422C51.8429 51.8296 52.1672 51.5047 52.1672 51.104V46.6154C52.1672 46.2148 51.8429 45.8899 51.4422 45.8899H51.0287V37.5947C51.0287 34.6843 49.0029 32.2518 46.3233 31.7017L45.7446 28.8785C47.004 29.6618 48.484 30.1222 50.0729 30.1222C54.6119 30.1222 58.3049 26.4264 58.3049 21.8837C58.3049 17.8857 55.4431 14.5466 51.6627 13.8029ZM41.1874 1.82608C46.3431 1.82608 50.538 6.02415 50.538 11.1844C50.538 12.0242 50.4211 12.8519 50.2032 13.6521C50.1594 13.6514 50.1169 13.6455 50.0729 13.6455C46.0042 13.6455 42.6246 16.617 41.9652 20.5032C41.7082 20.5244 41.4488 20.5424 41.1874 20.5424C36.031 20.5424 31.836 16.3443 31.836 11.1844C31.836 6.02415 36.031 1.82608 41.1874 1.82608ZM16.0857 21.0795C16.3859 19.5402 17.6992 18.4228 19.208 18.4228H33.1888C35.1667 20.6094 38.015 21.9935 41.1874 21.9935C41.4077 21.9935 41.6252 21.9734 41.8441 21.9602C41.8633 24.0428 42.6619 25.9378 43.9573 27.3797L44.819 31.5839H27.278C26.9731 29.1372 24.7522 27.2313 22.062 27.2313C19.3717 27.2313 17.1509 29.1372 16.846 31.5839H13.8003L16.0857 21.0795ZM25.8032 31.5839H18.3207C18.6228 29.9412 20.1795 28.6824 22.062 28.6824C23.9444 28.6824 25.5012 29.9412 25.8032 31.5839ZM14.8509 55.0491C14.8509 56.0829 14.0254 56.9239 13.0108 56.9239C11.9962 56.9239 11.1714 56.0829 11.1714 55.0491V51.8296H14.8509V55.0491V55.0491ZM47.4384 55.0491C47.4384 56.0829 46.6136 56.9239 45.599 56.9239C44.5844 56.9239 43.7589 56.0829 43.7589 55.0491V51.8296H47.4384V55.0491ZM50.7172 50.3785H7.89263V47.341H50.7172V50.3785ZM49.5787 37.5947V45.8899H9.0311V37.5947C9.0311 35.0805 11.0072 33.0349 13.4363 33.0349H45.1735C47.6026 33.0349 49.5787 35.0805 49.5787 37.5947ZM50.0729 28.6711C46.3332 28.6711 43.2902 25.6261 43.2902 21.8837C43.2902 18.1412 46.3332 15.0966 50.0729 15.0966C53.8126 15.0966 56.8549 18.1412 56.8549 21.8837C56.8549 25.6261 53.8126 28.6711 50.0729 28.6711Z" fill="white"/>
<path d="M49.4145 17.3916C47.2784 17.3916 45.5403 19.1307 45.5403 21.268C45.5403 21.6687 45.8646 21.9935 46.2653 21.9935C46.666 21.9935 46.9903 21.6687 46.9903 21.268C46.9903 19.9306 48.0778 18.8427 49.4145 18.8427C49.8152 18.8427 50.1395 18.5178 50.1395 18.1171C50.1395 17.7165 49.8152 17.3916 49.4145 17.3916Z" fill="white"/>
<path d="M8.76208 18.2721C13.425 18.2721 17.2192 14.4754 17.2192 9.80867C17.2192 5.1419 13.425 1.34521 8.76208 1.34521C4.09914 1.34521 0.304932 5.1419 0.304932 9.80867C0.304932 14.4754 4.09914 18.2721 8.76208 18.2721ZM8.76208 2.7963C12.6257 2.7963 15.7692 5.94219 15.7692 9.80867C15.7692 13.6751 12.6257 16.821 8.76208 16.821C4.89848 16.821 1.75493 13.6751 1.75493 9.80867C1.75493 5.94219 4.89848 2.7963 8.76208 2.7963Z" fill="white"/>
<path d="M4.84097 9.90038C5.2417 9.90038 5.56597 9.57552 5.56597 9.17484C5.56597 7.78541 6.69524 6.65494 8.08364 6.65494C8.48437 6.65494 8.80864 6.33007 8.80864 5.9294C8.80864 5.52872 8.48437 5.20386 8.08364 5.20386C5.8959 5.20386 4.11597 6.98512 4.11597 9.17484C4.11597 9.57552 4.44023 9.90038 4.84097 9.90038Z" fill="white"/>
<path d="M35.1405 11.9099C35.5413 11.9099 35.8655 11.585 35.8655 11.1843C35.8655 8.0409 38.4207 5.4838 41.5622 5.4838C41.9629 5.4838 42.2872 5.15893 42.2872 4.75826C42.2872 4.35758 41.9629 4.03271 41.5622 4.03271C37.6214 4.03271 34.4155 7.24096 34.4155 11.1843C34.4155 11.585 34.7398 11.9099 35.1405 11.9099Z" fill="white"/>
<path d="M7.35476 27.957V26.3291H8.98176C9.38249 26.3291 9.70676 26.0043 9.70676 25.6036C9.70676 25.2029 9.38249 24.8781 8.98176 24.8781H7.35476V23.2502C7.35476 22.8495 7.03049 22.5247 6.62976 22.5247C6.22903 22.5247 5.90476 22.8495 5.90476 23.2502V24.8781H4.27847C3.87773 24.8781 3.55347 25.2029 3.55347 25.6036C3.55347 26.0043 3.87773 26.3291 4.27847 26.3291H5.90476V27.957C5.90476 28.3577 6.22903 28.6825 6.62976 28.6825C7.03049 28.6825 7.35476 28.3577 7.35476 27.957Z" fill="white"/>
<path d="M21.8886 7.83684H23.5149V9.4647C23.5149 9.86538 23.8391 10.1902 24.2399 10.1902C24.6406 10.1902 24.9649 9.86538 24.9649 9.4647V7.83684H26.5919C26.9926 7.83684 27.3169 7.51198 27.3169 7.1113C27.3169 6.71063 26.9926 6.38576 26.5919 6.38576H24.9649V4.75826C24.9649 4.35758 24.6406 4.03271 24.2399 4.03271C23.8391 4.03271 23.5149 4.35758 23.5149 4.75826V6.38576H21.8886C21.4878 6.38576 21.1636 6.71063 21.1636 7.1113C21.1636 7.51198 21.4878 7.83684 21.8886 7.83684Z" fill="white"/>
</svg>
