<svg width="76" height="77" viewBox="0 0 76 77" fill="none" xmlns="http://www.w3.org/2000/svg">
<path d="M37.6888 0C16.907 0 0 17.1324 0 38.1913C0 59.2503 16.907 76.3827 37.6888 76.3827C58.4701 76.3827 75.377 59.2503 75.377 38.1913C75.377 17.1324 58.4701 0 37.6888 0ZM37.6888 74.0182C18.1938 74.0182 2.33334 57.9461 2.33334 38.1913C2.33334 18.4364 18.1938 2.36445 37.6888 2.36445C57.1837 2.36444 73.0437 18.4364 73.0437 38.1913C73.0437 57.9461 57.1837 74.0182 37.6888 74.0182Z" fill="#82D2F6"/>
<path d="M34.3438 42.6333L24.2671 31.8207L19.1777 36.6904L34.591 53.2295L58.6439 24.844L53.3334 20.2224L34.3438 42.6333Z" fill="#82D2F6"/>
</svg>
