<svg width="56" height="57" viewBox="0 0 56 57" fill="none" xmlns="http://www.w3.org/2000/svg">
<path d="M0.364362 11.5597C4.57469 13.8624 8.01733 17.3054 10.3204 21.5157C10.4428 21.7403 10.6786 21.8797 10.9343 21.8797C11.1899 21.8797 11.4258 21.7403 11.5482 21.5157C13.8512 17.3054 17.2939 13.8624 21.5042 11.5597C21.7291 11.4369 21.8686 11.2014 21.8686 10.9454C21.8686 10.6894 21.7291 10.4539 21.5042 10.3312C17.2939 8.02849 13.8512 4.58585 11.5482 0.375177C11.3034 -0.0739522 10.5651 -0.0739522 10.3204 0.375177C8.01733 4.58585 4.57469 8.02849 0.364362 10.3312C0.139456 10.4539 0 10.6894 0 10.9454C0 11.2014 0.139456 11.4369 0.364362 11.5597ZM10.9343 2.11085C13.1334 5.72439 16.1557 8.74661 19.7685 10.9454C16.155 13.1443 13.1328 16.1665 10.9343 19.78C8.7358 16.1665 5.71358 13.1443 2.10004 10.9454C5.71289 8.74661 8.73512 5.72439 10.9343 2.11085Z" fill="white"/>
<path d="M41.4708 28.644C41.2261 28.1948 40.4878 28.1948 40.2431 28.644C38.4712 31.8836 35.8222 34.5329 32.5819 36.3051C32.357 36.4282 32.2175 36.6634 32.2175 36.9194C32.2175 37.1754 32.357 37.4109 32.5819 37.5336C35.8222 39.3058 38.4712 41.9548 40.2431 45.1948C40.3654 45.419 40.6013 45.5588 40.8569 45.5588C41.1126 45.5588 41.3485 45.419 41.4708 45.1948C43.2427 41.9548 45.8917 39.3058 49.132 37.5336C49.3569 37.4109 49.4963 37.1754 49.4963 36.9194C49.4963 36.6634 49.3569 36.4282 49.132 36.3051C45.8917 34.5329 43.2427 31.8836 41.4708 28.644ZM40.8569 43.4738C39.1951 40.8176 36.959 38.5809 34.3025 36.9194C36.959 35.2572 39.1951 33.0211 40.8569 30.3646C42.5188 33.0211 44.7549 35.2572 47.4114 36.9194C44.7549 38.5809 42.5188 40.8176 40.8569 43.4738Z" fill="white"/>
<path d="M55.301 48.7235H55.2338L55.2333 45.4087C55.2401 44.2852 55.275 43.1203 55.3092 41.9531C55.3919 39.1814 55.4767 36.315 55.1813 33.9726C54.8942 31.6962 54.6864 29.3867 54.5641 27.1079C54.4102 24.2665 54.4827 23.3839 54.7821 20.4581L55.0651 17.6932L55.9901 7.05737C56.0188 6.73026 55.8157 6.42708 55.502 6.32899C52.475 5.38087 49.5168 4.96062 46.8217 4.84714L46.9986 2.18599C47.0198 1.86333 46.8174 1.56801 46.5091 1.47162C36.1518 -1.77379 26.6169 1.3414 26.2156 1.47573C25.9148 1.57622 25.7193 1.86675 25.7391 2.1836L26.474 13.822C26.474 13.822 26.4856 15.0781 26.4856 15.2056C26.4856 18.919 25.4547 25.5164 18.551 27.9767C16.0381 28.8726 13.424 29.3853 10.7818 29.5005C0.907829 29.9301 0.793666 40.6484 0.793666 40.7567V43.9553H0.700012C0.313091 43.9553 0 44.2688 0 44.6553V50.3679C0 50.7545 0.313091 51.0679 0.700012 51.0679H7.58666V55.3121C7.58666 55.6987 7.89975 56.0121 8.28667 56.0121H29.7806C35.0888 56.0121 37.8977 54.0272 39.3306 52.3247V55.3121C39.3306 55.6987 39.6437 56.0121 40.0306 56.0121H55.301C55.6879 56.0121 56.001 55.6987 56.001 55.3121V49.4235C56.001 49.0369 55.6879 48.7235 55.301 48.7235ZM53.6713 17.5613L53.3889 20.3156C53.0875 23.265 53.0075 24.246 53.1654 27.1831C53.2905 29.495 53.501 31.8384 53.7923 34.1476C54.0739 36.382 53.9905 39.1933 53.9098 41.9117C53.875 43.0899 53.8401 44.266 53.8333 45.4046L53.834 48.7235H9.80496V45.4046C9.80496 45.3451 9.80791 45.0828 9.84089 44.684C9.84132 44.6739 9.84666 44.6655 9.84666 44.6553C9.84666 44.6509 9.84418 44.6471 9.8441 44.6427C10.0443 42.3195 11.2692 35.5468 18.7424 35.2216C21.6067 35.0968 24.441 34.5411 27.1658 33.5697C33.0489 31.473 36.2885 26.3224 36.2885 19.0659C36.2885 18.933 36.2769 17.6266 36.2749 17.5828L35.5564 7.50684C37.6564 6.91723 45.8508 4.96041 54.5463 7.50205L53.6713 17.5613ZM2.19369 40.7567C2.19369 40.7328 2.206 38.3412 3.29703 35.9175C4.72508 32.7432 7.264 31.055 10.8434 30.8991C13.6249 30.7778 16.3765 30.2384 19.0213 29.2954C24.7376 27.2583 27.8856 22.2543 27.8856 15.2056C27.8856 15.0767 27.874 13.809 27.8727 13.7714L27.1713 2.65153C29.2276 2.07662 37.1663 0.194649 45.5644 2.64845L45.4203 4.81595C39.3245 4.78857 34.871 6.24089 34.5959 6.33309C34.2931 6.4346 34.0969 6.72787 34.1201 7.04677L34.8769 17.6389C34.8769 17.6392 34.8885 18.9343 34.8885 19.0659C34.8885 22.8996 33.8241 29.7104 26.6955 32.251C24.1026 33.1752 21.4057 33.704 18.6809 33.8229C10.7732 34.167 8.95045 40.9247 8.53072 43.9553H2.19369V40.7567V40.7567ZM1.40002 49.6679V45.3554H1.49368H8.40579C8.40515 45.3828 8.40493 45.4009 8.40493 45.4046V48.7235H8.28667C7.89975 48.7235 7.58666 49.0369 7.58666 49.4235V49.6679H1.40002ZM29.7806 54.6121H8.98668V50.1235H9.10495H39.1138C38.4501 51.4426 36.1914 54.6121 29.7806 54.6121ZM54.601 54.6121H40.7306V50.1235H54.534H54.601V54.6121Z" fill="white"/>
<path d="M44.4016 15.6263V17.4836H42.5443C42.1573 17.4836 41.8442 17.7971 41.8442 18.1837C41.8442 18.5702 42.1573 18.8837 42.5443 18.8837H44.4016V20.7414C44.4016 21.1279 44.7147 21.4414 45.1016 21.4414C45.4885 21.4414 45.8016 21.1279 45.8016 20.7414V18.8837H47.6597C48.0466 18.8837 48.3597 18.5702 48.3597 18.1837C48.3597 17.7971 48.0466 17.4836 47.6597 17.4836H45.8016V15.6263C45.8016 15.2397 45.4885 14.9263 45.1016 14.9263C44.7147 14.9263 44.4016 15.2397 44.4016 15.6263Z" fill="white"/>
<path d="M5.06617 26.557C5.45309 26.557 5.76618 26.2435 5.76618 25.8569V23.9992H7.62354C8.01046 23.9992 8.32355 23.6858 8.32355 23.2992C8.32355 22.9126 8.01046 22.5992 7.62354 22.5992H5.76618V20.7415C5.76618 20.3549 5.45309 20.0415 5.06617 20.0415C4.67925 20.0415 4.36616 20.3549 4.36616 20.7415V22.5992H2.50812C2.1212 22.5992 1.80811 22.9126 1.80811 23.2992C1.80811 23.6858 2.1212 23.9992 2.50812 23.9992H4.36616V25.8569C4.36616 26.2435 4.67925 26.557 5.06617 26.557Z" fill="white"/>
</svg>
