<svg width="53" height="54" viewBox="0 0 53 54" fill="none" xmlns="http://www.w3.org/2000/svg">
<path d="M11.4502 45.3645L9.70117 45.5857L10.5825 52.719C10.6091 52.9347 10.7127 53.133 10.8738 53.2769C11.0348 53.4207 11.2422 53.5001 11.457 53.5001H23.7952V51.7168H12.235L11.4502 45.3645Z" fill="white"/>
<path d="M35.7393 6.14745L38.9021 7.74742L39.606 10.5962L38.0005 13.8448L36.2496 16.945L37.78 17.8298L39.1841 15.3437L43.1839 16.6926V17.8333H44.9465V16.1595L45.778 12.7946L46.203 11.9345L48.7947 13.403C49.063 13.555 49.3658 13.6334 49.6733 13.6303C49.9807 13.6273 50.282 13.5429 50.5472 13.3856C50.8125 13.2283 51.0324 13.0036 51.1853 12.7337C51.3381 12.4638 51.4185 12.1581 51.4185 11.8471V11.3707C51.4226 10.0825 51.0431 8.82301 50.3294 7.75626C49.6157 6.68952 48.6009 5.86505 47.4174 5.39032L44.4731 4.19814L44.4697 4.19666L40.9017 2.75265L37.409 0.985756C37.2909 0.926036 37.1611 0.893899 37.0292 0.89172C36.8972 0.889541 36.7665 0.917375 36.6466 0.973167C36.5267 1.02896 36.4207 1.11128 36.3364 1.21406C36.2522 1.31684 36.1918 1.43746 36.1598 1.56699L35.2785 5.13366C35.2299 5.33047 35.249 5.53818 35.3328 5.72251C35.4166 5.90683 35.56 6.05673 35.7393 6.14745V6.14745ZM40.02 13.7458L40.9656 11.8325L43.9049 13.0221L43.441 14.8995L40.02 13.7458ZM49.6559 11.3707V11.8471L48.2489 11.0498C48.396 10.7832 48.4728 10.4828 48.4719 10.1774C48.4729 9.37088 48.3248 8.57127 48.0353 7.81981C48.5449 8.25637 48.954 8.80041 49.234 9.41379C49.5139 10.0272 49.6579 10.6951 49.6559 11.3707ZM43.815 5.85236L43.8149 5.85248L43.8216 5.85518C44.6761 6.19922 45.4084 6.79544 45.9234 7.5663C46.4384 8.33716 46.7123 9.24697 46.7093 10.1774L46.2584 9.92195C46.1544 9.86302 46.0397 9.82605 45.9211 9.81328C45.8026 9.80051 45.6827 9.8122 45.5688 9.84765C45.4548 9.8831 45.3492 9.94157 45.2582 10.0195C45.1672 10.0975 45.0928 10.1933 45.0395 10.3012L44.5209 11.3507L41.2856 10.0414L40.5671 7.13327L41.1501 4.77387L43.815 5.85236ZM37.6034 3.07788L39.5136 4.04427L39.0702 5.83864L37.1599 4.87227L37.6034 3.07788Z" fill="white"/>
<path d="M25.0635 17.8612L26.8252 17.8052C26.7947 16.8033 26.5905 15.8145 26.2221 14.884C26.0699 14.4999 26.0326 14.079 26.1149 13.6736C26.1971 13.2682 26.3953 12.8962 26.6847 12.6038L28.5665 10.6999H31.3617L33.2435 12.6038C33.5329 12.8962 33.7311 13.2682 33.8133 13.6736C33.8955 14.079 33.8583 14.4999 33.7061 14.884C33.5566 15.2633 33.434 15.6529 33.3392 16.0499H29.4491V17.8332H33.8556V17.8291L34.8647 17.8612C34.8889 17.0672 35.0507 16.2837 35.3426 15.5463C35.6231 14.8382 35.6919 14.0623 35.5403 13.315C35.3887 12.5677 35.0234 11.8819 34.4899 11.3428L32.608 9.43881V6.24152C32.608 6.00504 32.5151 5.77824 32.3499 5.61102C32.1846 5.4438 31.9604 5.34986 31.7267 5.34985H28.2015C27.9678 5.34986 27.7436 5.4438 27.5783 5.61102C27.413 5.77824 27.3202 6.00504 27.3202 6.24152V9.43881L25.4383 11.3428C24.9047 11.8819 24.5395 12.5677 24.3879 13.315C24.2363 14.0623 24.3051 14.8382 24.5856 15.5463C24.8775 16.2837 25.0393 17.0672 25.0635 17.8612V17.8612ZM30.8454 7.13319V8.91652H29.0828V7.13319H30.8454Z" fill="white"/>
<path d="M11.4569 11.5917H16.7447C16.9785 11.5917 17.2026 11.4977 17.3679 11.3305L20.5929 8.06758L21.6069 13.5393L23.3394 13.2107L22.0175 6.07736L22.0152 6.07779C21.98 5.87246 21.8738 5.68648 21.7155 5.55314C21.5572 5.4198 21.3572 5.34779 21.1512 5.35H21.0166L20.258 0.745051C20.2237 0.536853 20.1175 0.347719 19.9583 0.211294C19.7991 0.0748694 19.5972 -1.44461e-06 19.3886 0H14.1008C13.8922 -1.70843e-06 13.6904 0.0748691 13.5312 0.211294C13.372 0.347719 13.2658 0.536853 13.2315 0.745051L12.3777 5.92807L9.81988 10.2412C9.73789 10.3798 9.69471 10.5384 9.69498 10.7H9.69434V13.375H11.4569V11.5917ZM14.8474 1.78333H18.642L19.3074 5.82245C18.5315 6.28716 17.6464 6.53234 16.7447 6.53234C15.8431 6.53234 14.958 6.28716 14.182 5.82245L14.8474 1.78333ZM13.5099 7.48515C14.5032 8.02956 15.6151 8.31427 16.7447 8.31344C17.1553 8.31304 17.5649 8.27526 17.9688 8.20056L16.3797 9.80833H12.1322L13.5099 7.48515Z" fill="white"/>
<path d="M17.1722 40.8896C17.3146 40.976 17.4783 41.02 17.6444 41.0164C17.8105 41.0129 17.9722 40.9619 18.1109 40.8694C18.2496 40.7769 18.3597 40.6467 18.4285 40.4937C18.4972 40.3407 18.5219 40.1712 18.4996 40.0046L16.5696 25.6889C16.4976 25.1545 16.5395 24.6108 16.6925 24.0942C16.8455 23.5776 17.1061 23.1001 17.4566 22.6938C17.8071 22.2875 18.2395 21.9618 18.7248 21.7387C19.2101 21.5155 19.7369 21.4 20.2699 21.4H48.4715C48.7052 21.4 48.9294 21.4939 49.0947 21.6612C49.2599 21.8284 49.3528 22.0552 49.3528 22.2917C49.3528 22.5281 49.2599 22.7549 49.0947 22.9222C48.9294 23.0894 48.7052 23.1833 48.4715 23.1833H18.5073V24.9667H46.5918L44.6226 40.9061L46.3716 41.1273L48.3682 24.9667H48.4715C49.1727 24.9667 49.8452 24.6848 50.341 24.1832C50.8368 23.6815 51.1154 23.0011 51.1154 22.2917C51.1154 21.5822 50.8368 20.9018 50.341 20.4002C49.8452 19.8985 49.1727 19.6167 48.4715 19.6167H20.2699C19.4854 19.6168 18.7099 19.7868 17.9957 20.1154C17.2815 20.4439 16.6451 20.9232 16.1291 21.5212C15.6132 22.1192 15.2298 22.822 15.0046 23.5824C14.7794 24.3428 14.7176 25.1431 14.8235 25.9297L16.5321 38.6036C14.3705 37.7829 11.9864 37.7936 9.83206 38.6337L10.9293 26.3978C11.0713 24.8016 11.6377 23.2741 12.5685 21.9774C13.4993 20.6807 14.7597 19.6631 16.216 19.0326L16.2876 19.0014C16.7019 18.8202 17.1483 18.7261 17.5996 18.725H17.626V16.9417H17.5996C16.9095 16.9421 16.2268 17.0855 15.5935 17.363L15.5219 17.3931C13.7734 18.1501 12.26 19.3719 11.1423 20.9288C10.0245 22.4857 9.34415 24.3197 9.17329 26.2362L7.93507 40.0447C7.93286 40.0715 7.93176 40.0982 7.93176 40.125V42.0443L7.72687 42.0789C6.64656 42.2638 5.5373 42.1624 4.50728 41.7844C3.47726 41.4064 2.56163 40.7648 1.8497 39.9221L5.23939 27.3463C6.35146 23.2076 8.64801 19.4938 11.8403 16.6719C12.4758 16.1094 13.2207 15.6878 14.027 15.4342C14.8333 15.1806 15.6831 15.1006 16.5218 15.1994C17.3605 15.2982 18.1694 15.5736 18.8966 16.0078C19.6237 16.4421 20.2529 17.0256 20.7436 17.7208L21.1898 18.3516L22.6241 17.315L22.178 16.6842C21.5442 15.7864 20.7317 15.0328 19.7927 14.472C18.8537 13.9112 17.809 13.5556 16.7259 13.428C15.6428 13.3004 14.5453 13.4038 13.5041 13.7313C12.4628 14.0589 11.5009 14.6035 10.6803 15.33C7.22657 18.3824 4.74184 22.3998 3.53851 26.8771L0.030921 39.8909C-0.00430077 40.0219 -0.00950944 40.1592 0.0156922 40.2925C0.0408939 40.4258 0.0958406 40.5515 0.176343 40.66C1.06862 41.8672 2.27232 42.8024 3.65536 43.3629C5.03841 43.9235 6.54734 44.0877 8.01659 43.8377L8.95847 43.6794C9.16413 43.6446 9.35094 43.5371 9.48567 43.3761C9.62041 43.2151 9.69435 43.011 9.69436 42.8V40.6489C10.8573 40.0393 12.1552 39.7414 13.4643 39.7835C14.7733 39.8256 16.0499 40.2065 17.1722 40.8896V40.8896Z" fill="white"/>
<path d="M51.9966 42.8H26.4389C26.2052 42.8001 25.981 42.894 25.8157 43.0612C25.6505 43.2284 25.5576 43.4552 25.5576 43.6917V52.6084C25.5576 52.8449 25.6505 53.0717 25.8157 53.2389C25.981 53.4061 26.2052 53.5 26.4389 53.5H51.9966C52.2303 53.5 52.4545 53.4061 52.6197 53.2389C52.785 53.0717 52.8779 52.8449 52.8779 52.6084V43.6917C52.8779 43.4552 52.785 43.2284 52.6197 43.0612C52.4545 42.894 52.2303 42.8001 51.9966 42.8V42.8ZM41.421 51.7167H27.3202V44.5834H41.421V51.7167ZM51.1153 51.7167H43.1836V44.5834H51.1153V51.7167Z" fill="white"/>
<path d="M29.9641 48.15C30.4508 48.15 30.8454 47.7508 30.8454 47.2584C30.8454 46.7659 30.4508 46.3667 29.9641 46.3667C29.4773 46.3667 29.0828 46.7659 29.0828 47.2584C29.0828 47.7508 29.4773 48.15 29.9641 48.15Z" fill="white"/>
<path d="M33.4895 49.9335C33.9762 49.9335 34.3708 49.5343 34.3708 49.0418C34.3708 48.5494 33.9762 48.1501 33.4895 48.1501C33.0027 48.1501 32.6082 48.5494 32.6082 49.0418C32.6082 49.5343 33.0027 49.9335 33.4895 49.9335Z" fill="white"/>
<path d="M38.7771 49.9335C39.2638 49.9335 39.6583 49.5343 39.6583 49.0418C39.6583 48.5494 39.2638 48.1501 38.7771 48.1501C38.2903 48.1501 37.8958 48.5494 37.8958 49.0418C37.8958 49.5343 38.2903 49.9335 38.7771 49.9335Z" fill="white"/>
<path d="M48.4714 48.15C48.9581 48.15 49.3527 47.7508 49.3527 47.2584C49.3527 46.7659 48.9581 46.3667 48.4714 46.3667C47.9847 46.3667 47.5901 46.7659 47.5901 47.2584C47.5901 47.7508 47.9847 48.15 48.4714 48.15Z" fill="white"/>
<path d="M45.8276 49.9335C46.3143 49.9335 46.7089 49.5343 46.7089 49.0418C46.7089 48.5494 46.3143 48.1501 45.8276 48.1501C45.3409 48.1501 44.9463 48.5494 44.9463 49.0418C44.9463 49.5343 45.3409 49.9335 45.8276 49.9335Z" fill="white"/>
<path d="M36.1333 48.15C36.62 48.15 37.0145 47.7508 37.0145 47.2584C37.0145 46.7659 36.62 46.3667 36.1333 46.3667C35.6465 46.3667 35.252 46.7659 35.252 47.2584C35.252 47.7508 35.6465 48.15 36.1333 48.15Z" fill="white"/>
<path d="M32.6082 41.0167H38.7773V40.125C38.7772 39.949 38.7257 39.7769 38.6292 39.6304C38.2025 38.9852 37.9747 38.2263 37.9747 37.45C37.9747 36.6737 38.2025 35.9148 38.6292 35.2696C38.7154 35.1388 38.7659 34.9873 38.7756 34.8304C38.7852 34.6735 38.7537 34.5168 38.6842 34.3762L36.9216 30.8096C36.8484 30.6615 36.7359 30.5369 36.5967 30.4498C36.4575 30.3628 36.297 30.3167 36.1334 30.3167V27.6417C36.1334 27.4052 36.0405 27.1784 35.8752 27.0112C35.71 26.8439 35.4858 26.75 35.2521 26.75H31.7269C31.4931 26.75 31.269 26.8439 31.1037 27.0112C30.9384 27.1784 30.8456 27.4052 30.8456 27.6417V30.3167C30.6819 30.3167 30.5215 30.3628 30.3822 30.4498C30.243 30.5369 30.1305 30.6615 30.0573 30.8096L28.2947 34.3762C28.2252 34.5168 28.1937 34.6735 28.2034 34.8304C28.213 34.9873 28.2635 35.1388 28.3497 35.2696C28.7764 35.9148 29.0042 36.6737 29.0042 37.45C29.0042 38.2263 28.7764 38.9852 28.3497 39.6304C28.2532 39.7769 28.2017 39.949 28.2017 40.125V41.0167H29.9643V40.3828C30.4683 39.5337 30.7448 38.5663 30.7664 37.576C30.788 36.5857 30.5541 35.6069 30.0876 34.7361L31.3902 32.1H35.5887L36.47 33.8833H32.6082V35.6667H36.4969C36.1191 36.8249 36.1192 38.0752 36.4974 39.2333H32.6082V41.0167ZM32.6082 28.5333H34.3708V30.3167H32.6082V28.5333Z" fill="white"/>
</svg>
