<svg width="59" height="59" viewBox="0 0 59 59" fill="none" xmlns="http://www.w3.org/2000/svg">
<path d="M3.58953 57.6803H5.44998V35.4357H8.41376C8.49444 37.8565 10.5364 39.8054 13.0498 39.8054H16.4964V42.8209H12.2922C10.5408 42.8209 9.11546 44.2038 9.11546 45.9042C9.11546 47.6046 10.5408 48.9875 12.2922 48.9875H16.4964V52.9894L9.74045 56.907L10.6943 58.4571L17.4266 54.5538L24.1589 58.4571L25.1128 56.907L18.3568 52.9894V48.9875H22.561C24.3124 48.9875 25.7378 47.6046 25.7378 45.9042C25.7378 44.2038 24.3124 42.8209 22.561 42.8209H18.3568V39.8054H21.8034C24.3168 39.8054 26.3588 37.8565 26.4395 35.4357H41.2636C41.2636 43.7373 41.2636 50.3125 41.2636 58.5832V58.5849H58.1938V58.5832C58.1938 40.3656 58.1938 47.5761 58.1938 29.4313H45.6449V28.7875C47.3649 28.7725 48.7608 27.4121 48.7608 25.7387C48.7608 24.0653 47.3649 22.7049 45.6449 22.6899V20.4299H36.1474V29.4313H26.4545V27.2014C26.4545 24.7124 24.3679 22.6871 21.8034 22.6871H13.0498C10.4854 22.6871 8.39871 24.7124 8.39871 27.2014V29.4313H0.193848V35.4357H3.58953V57.6803V57.6803ZM23.8773 45.9042C23.8773 46.6087 23.2868 47.1818 22.561 47.1818H12.2922C11.5664 47.1818 10.9759 46.6087 10.9759 45.9042C10.9759 45.1997 11.5664 44.6266 12.2922 44.6266H22.561C23.2868 44.6266 23.8773 45.1997 23.8773 45.9042ZM56.3334 56.7774H43.124V50.8673H56.3334V56.7774V56.7774ZM56.3334 49.0616H43.124V43.1515H56.3334V49.0616V49.0616ZM56.3334 41.3458H43.124V35.4357H56.3334V41.3458V41.3458ZM46.9003 25.7387C46.9003 26.4167 46.3399 26.9696 45.6449 26.9841V24.4933C46.3399 24.5078 46.9003 25.0607 46.9003 25.7387ZM38.0078 22.2357H43.7845V22.6871C43.7845 22.8388 43.7845 29.6497 43.7845 29.4313H38.0078V22.2357ZM56.3334 31.237V33.63C45.8094 33.63 36.8867 33.63 26.4545 33.63V31.237C37.3873 31.237 45.4326 31.237 56.3334 31.237ZM10.2592 27.2014C10.2592 25.7078 11.511 24.4928 13.0498 24.4928H21.8034C23.3422 24.4928 24.5941 25.7078 24.5941 27.2014V29.4313V35.2911C24.5941 36.7847 23.3422 37.9997 21.8034 37.9997H13.0498C11.511 37.9997 10.2592 36.7847 10.2592 35.2911C10.2592 34.3958 10.2592 26.8406 10.2592 27.2014ZM2.0543 31.237H8.39871V33.63H2.0543V31.237Z" fill="white"/>
<path d="M49.7283 39.5436C50.3796 39.5436 50.9102 39.0251 50.9102 38.3877C50.9102 37.7555 50.3796 37.2415 49.7283 37.2415C49.077 37.2415 48.5474 37.7555 48.5474 38.3877C48.5474 39.0251 49.077 39.5436 49.7283 39.5436ZM49.7283 37.7379C50.1026 37.7379 50.4078 38.0293 50.4078 38.3877C50.4078 38.7514 50.1026 39.0472 49.7283 39.0472C49.354 39.0472 49.0497 38.7514 49.0497 38.3877C49.0497 38.0293 49.354 37.7379 49.7283 37.7379Z" fill="white"/>
<path d="M49.7283 47.2577C50.3796 47.2577 50.9102 46.7392 50.9102 46.1017C50.9102 45.4696 50.3796 44.9551 49.7283 44.9551C49.077 44.9551 48.5474 45.4696 48.5474 46.1017C48.5474 46.7392 49.077 47.2577 49.7283 47.2577ZM49.7283 45.4519C50.1026 45.4519 50.4078 45.7433 50.4078 46.1017C50.4078 46.465 50.1026 46.7608 49.7283 46.7608C49.354 46.7608 49.0497 46.465 49.0497 46.1017C49.0497 45.7433 49.354 45.4519 49.7283 45.4519Z" fill="white"/>
<path d="M49.7283 54.9735C50.3796 54.9735 50.9102 54.455 50.9102 53.8176C50.9102 53.1854 50.3796 52.6709 49.7283 52.6709C49.077 52.6709 48.5474 53.1854 48.5474 53.8176C48.5474 54.455 49.077 54.9735 49.7283 54.9735ZM49.7283 53.1677C50.1026 53.1677 50.4078 53.4591 50.4078 53.8176C50.4078 54.1808 50.1026 54.4766 49.7283 54.4766C49.354 54.4766 49.0497 54.1808 49.0497 53.8176C49.0497 53.4591 49.354 53.1677 49.7283 53.1677Z" fill="white"/>
<path d="M34.7129 13.2868V16.7475H36.5733V15.9201H54.7127V16.7475H56.5731V13.2868H54.7127V14.1143H54.2215L50.6175 0.584961L46.4918 1.70429C46.2538 1.70429 36.86 1.70429 37.3101 1.70429V14.1143H36.5733V13.2868H34.7129ZM47.0774 14.1143V9.83506L48.2173 14.1143H47.0774ZM49.2912 2.82009L52.0165 13.0519L50.0016 13.5985L47.2764 3.36675L49.2912 2.82009ZM43.124 3.51002H45.217V14.1099H43.124V3.51002ZM39.1705 3.51002H41.2635V14.1099H39.1705V3.51002Z" fill="white"/>
<path d="M17.5429 9.21154C17.5429 4.81887 13.8556 1.24487 9.32349 1.24487C4.79773 1.24487 1.11499 4.81887 1.11499 9.21154C1.11499 13.6042 4.79773 17.1782 9.32349 17.1782C13.8556 17.1782 17.5429 13.6042 17.5429 9.21154ZM2.97544 9.21154C2.97544 5.81432 5.82334 3.05061 9.32349 3.05061C12.83 3.05061 15.6824 5.81432 15.6824 9.21154C15.6824 12.6088 12.83 15.3725 9.32349 15.3725C5.82334 15.3725 2.97544 12.6088 2.97544 9.21154Z" fill="white"/>
<path d="M13.5603 8.30869H10.2591V4.80347H8.39868V10.1144H13.5603V8.30869Z" fill="white"/>
<path d="M27.9708 5.30469L26.1249 5.30249C26.1076 5.43563 25.6661 8.5626 23.3142 8.5626V10.3683C25.6661 10.3683 26.1076 13.4953 26.1249 13.6285L26.1449 13.6262L27.9708 13.6285C27.988 13.4953 28.4295 10.3683 30.7814 10.3683V8.5626C28.4295 8.5626 27.988 5.43563 27.9708 5.30469ZM27.0478 10.7819C26.7526 10.296 26.381 9.83799 25.9205 9.46547C26.381 9.09295 26.7526 8.6349 27.0478 8.14908C27.3431 8.6349 27.7146 9.09295 28.1752 9.46547C27.7146 9.83799 27.3431 10.296 27.0478 10.7819Z" fill="white"/>
<path d="M26.2493 20.139V21.9448C28.6012 21.9448 29.0427 25.0717 29.0599 25.2049L29.0799 25.2027L30.9058 25.2049C30.9231 25.0717 31.3646 21.9448 33.7165 21.9448V20.139C31.3646 20.139 30.9231 17.012 30.9058 16.8811L29.0599 16.8789C29.0427 17.012 28.6012 20.139 26.2493 20.139ZM31.1102 21.0419C30.6497 21.4144 30.2781 21.8725 29.9829 22.3583C29.6876 21.8725 29.3161 21.4144 28.8555 21.0419C29.3161 20.6694 29.6876 20.2113 29.9829 19.7255C30.2781 20.2113 30.6497 20.6694 31.1102 21.0419Z" fill="white"/>
<path d="M30.9866 54.125L32.8125 54.1272C32.8298 53.9941 33.2713 50.8676 35.6232 50.8676V49.0618C33.2713 49.0618 32.8298 45.9348 32.8125 45.8039L30.9666 45.8013C30.9493 45.9344 30.5069 49.0618 28.155 49.0618V50.8676C30.5069 50.8676 30.9493 53.9945 30.9666 54.1277L30.9866 54.125ZM31.8896 48.6479C32.1848 49.1337 32.5563 49.5922 33.0169 49.9647C32.5563 50.3372 32.1848 50.7957 31.8896 51.2815C31.5943 50.7957 31.2219 50.3372 30.7613 49.9647C31.2219 49.5922 31.5943 49.1337 31.8896 48.6479Z" fill="white"/>
</svg>
