<svg width="141" height="205" viewBox="0 0 141 205" fill="none" xmlns="http://www.w3.org/2000/svg">
<path fill-rule="evenodd" clip-rule="evenodd" d="M77.6114 23.3897C75.6342 20.5658 74.4301 17.2197 75.017 13.6524C76.7081 3.37394 90.8582 7.00071 93.164 12.4855C95.4698 17.9702 93.8996 31.1851 90.2015 31.7789C88.7267 32.0157 85.7443 30.8154 82.7986 28.6348L83.4587 42.7216L71.8875 41.6335L77.6114 23.3897Z" fill="#57331F"/>
<path fill-rule="evenodd" clip-rule="evenodd" d="M84.591 15.7049C84.4556 21.9336 85.3381 25.1373 87.2385 25.316C90.0892 25.5841 92.6776 23.9968 93.9284 24.1144C94.8402 24.2001 94.5297 25.3252 93.846 26.1167C93.2819 26.7698 90.7904 27.2161 90.689 28.3012C90.5876 29.3863 92.5847 28.7272 92.5245 29.3708C92.425 30.4353 92.5751 32.4686 90.7326 32.2953C88.8679 32.1199 83.5853 30.9358 82.9285 28.0744C82.5046 26.2278 82.4692 22.4805 82.8223 16.8326C82.7104 16.8085 82.5959 16.7907 82.4792 16.7797C80.8815 16.6295 79.465 17.8065 79.3152 19.4085C79.2392 20.2218 79.5043 20.9884 79.9927 21.5656C79.2348 22.4501 78.3921 23.3693 77.4371 24.3097C74.3893 22.0632 72.5246 16.1504 76.1925 10.9837C77.3154 8.38929 79.4246 7.14545 81.8199 6.70104C83.784 6.08598 85.7543 6.1811 87.3661 6.81212C90.5867 7.39668 93.393 8.66204 94.1595 9.32886C93.8714 12.4111 93.1904 13.2696 88.1108 12.7106C86.799 13.255 85.7315 14.3045 84.591 15.7049Z" fill="#191847"/>
<path fill-rule="evenodd" clip-rule="evenodd" d="M67.2197 81.554L85.2696 143.839L96.3949 196.108L102.662 196.697L88.7585 83.5794L67.2197 81.554Z" fill="#3D2216"/>
<path fill-rule="evenodd" clip-rule="evenodd" d="M62.4554 81.1062C60.2306 102.188 53.8995 130.258 53.1894 131.518C52.716 132.358 38.1611 142.241 9.52463 161.166L13.4083 166.205C46.5506 150.786 63.9634 141.92 65.6466 139.606C68.1715 136.136 78.4349 102.978 86.0238 83.3225L62.4554 81.1062Z" fill="#57331F"/>
<path fill-rule="evenodd" clip-rule="evenodd" d="M9.09076 159.566C7.59305 159.943 6.54887 160.336 5.95822 160.746C5.23984 161.243 4.27425 162.09 3.06145 163.285C3.63734 164.121 8.81292 171.632 18.5882 185.818C20.922 185.066 21.7312 184.006 21.0158 182.638C20.3004 181.27 19.7172 180.125 19.2662 179.205L16.7052 165.506C16.6559 165.242 16.4029 165.068 16.14 165.118C16.1356 165.119 16.1311 165.12 16.1266 165.121L14.0343 165.576C12.6862 164.784 11.7606 164.023 11.2574 163.293C10.8487 162.7 10.523 161.715 10.2806 160.339L10.2806 160.339C10.1875 159.81 9.68509 159.458 9.15837 159.551C9.13567 159.555 9.11312 159.56 9.09076 159.566Z" fill="#E4E4E4"/>
<path fill-rule="evenodd" clip-rule="evenodd" d="M93.8107 194.669C93.2599 196.115 92.9822 197.199 92.9777 197.919C92.9722 198.794 93.1097 200.073 93.3901 201.755C94.4031 201.761 103.507 201.819 120.702 201.927C121.427 199.579 121.025 198.306 119.497 198.109C117.969 197.911 116.7 197.734 115.689 197.576L103.03 191.821C102.787 191.711 102.5 191.819 102.389 192.063C102.388 192.067 102.386 192.072 102.384 192.076L101.556 194.056C100.136 194.709 98.9834 195.033 98.0983 195.027C97.3792 195.023 96.388 194.725 95.1247 194.135L95.1247 194.135C94.6398 193.908 94.0636 194.119 93.8377 194.605C93.8279 194.626 93.819 194.647 93.8107 194.669Z" fill="#E4E4E4"/>
<path fill-rule="evenodd" clip-rule="evenodd" d="M73.2586 188.656L103.36 188.215L90.8443 83.7754L64.1553 81.2656L73.2586 188.656Z" fill="#69A1AC"/>
<path fill-rule="evenodd" clip-rule="evenodd" d="M16.3853 154.272L33.7625 179.31C56.4573 158.699 69.8348 145.116 73.8952 138.56C77.9556 132.005 82.7692 113.664 88.336 83.5396L58.2889 80.714C54.3009 107.302 51.9895 121.194 51.3547 122.389C50.7199 123.584 39.0634 134.212 16.3853 154.272Z" fill="#89C5CC"/>
<path fill-rule="evenodd" clip-rule="evenodd" d="M109.954 79.5245L122.363 94.1696C126.178 96.2431 129.259 98.4262 131.605 100.719C132.111 101.463 132.609 102.844 129.979 102C127.348 101.155 124.544 100.386 123.957 101.214C123.37 102.042 124.732 103.524 123.692 104.583C122.999 105.288 121.135 102.661 118.099 96.701L104.682 86.9688L109.954 79.5245ZM44.2972 61.1521L54.851 62.1846C44.3681 87.5522 38.8212 100.829 38.2101 102.014C36.8353 104.682 38.8015 109.126 39.599 111.49C36.1729 112.657 37.034 107.225 32.7051 108.771C28.754 110.181 25.5748 113.11 21.4535 109.992C20.9468 109.609 20.4746 108.301 21.99 107.456C25.7654 105.35 31.2766 101.562 32.0986 100.222C33.2197 98.3941 37.2858 85.3708 44.2972 61.1521Z" fill="#57331F"/>
<path fill-rule="evenodd" clip-rule="evenodd" d="M79.2745 34.1451L83.5107 33.8201C87.9021 57.7178 120.163 76.7596 121.421 85.657C121.882 88.92 119.441 90.3179 120.533 91.4013L114.742 94.8696C113.925 93.7097 111.783 95.4894 107.822 93.7311C103.861 91.9728 76.6979 61.7106 79.2745 34.1451Z" fill="#191847"/>
<path fill-rule="evenodd" clip-rule="evenodd" d="M85.9998 37.8998C82.6382 68.6755 99.671 78.2083 94.5576 90.2003C90.335 100.103 58.0274 108.137 53.5499 97.6199C51.7374 93.3626 51.2013 88.3694 51.5864 83.0318C49.8204 86.9942 48.3969 90.4145 47.3159 93.2927C45.4511 98.2579 39.9923 98.5617 39.8088 100.525L32.9003 97.8948C33.6306 95.2731 30.4087 93.66 31.8621 87.7862C38.374 61.4679 50.9747 43.1317 69.6641 32.7775L70.0894 30.1884C70.2633 29.1299 71.26 28.4132 72.3155 28.5877L85.2164 30.7194C86.2719 30.8938 86.9866 31.8933 86.8127 32.9518L85.9998 37.8998Z" fill="#2F3676"/>
</svg>
