<svg width="58" height="65" viewBox="0 0 58 65" fill="none" xmlns="http://www.w3.org/2000/svg">
<path d="M18.7196 64.3001H39.0503C41.5821 64.3001 43.807 62.2286 44.344 59.4667C46.3387 48.9561 47.8731 29.5461 36.5186 15.1995H36.7487C37.2091 15.1995 37.5159 14.8926 37.5159 14.4323V9.36878C37.5159 8.90846 37.2091 8.60158 36.7487 8.60158H34.5239L32.5292 0.929616C32.4524 0.622737 32.1456 0.392578 31.762 0.392578H25.471C25.0874 0.392578 24.7805 0.622737 24.7038 0.929616L22.709 8.60158H20.4842C20.0239 8.60158 19.717 8.90846 19.717 9.36878V14.4323C19.717 14.8926 20.0239 15.1995 20.4842 15.1995H21.0979C17.4154 19.2656 7.74871 32.9984 13.426 59.6969C14.0397 62.3821 16.1879 64.3001 18.7196 64.3001ZM39.0503 62.7657H18.7196C16.9551 62.7657 15.4207 61.3847 14.9604 59.4667C13.963 54.7868 13.426 50.5672 13.3492 46.6545C15.344 46.808 16.418 47.345 17.5688 47.9588C18.9498 48.6493 20.4075 49.4165 23.2461 49.4165C26.0847 49.4165 27.5424 48.6493 28.9233 47.9588C30.2276 47.2683 31.4551 46.6545 33.9101 46.6545C36.3651 46.6545 37.5927 47.2683 38.8969 47.9588C40.2011 48.6493 41.5821 49.3397 44.1138 49.4165C43.8837 53.099 43.4234 56.4747 42.8863 59.2366C42.426 61.2313 40.8149 62.7657 39.0503 62.7657ZM26.0847 1.77353H31.1482L32.9128 8.52486H24.3202L26.0847 1.77353ZM21.3281 10.0593H35.9815V13.5884H21.3281V10.0593ZM23.3228 15.1228H34.5239C42.8863 24.9429 44.5742 37.5249 44.1906 47.8053C41.9657 47.7286 40.8149 47.1149 39.5874 46.5011C38.2064 45.8106 36.7487 45.0434 33.9101 45.0434C31.0715 45.0434 29.6138 45.8106 28.2329 46.5011C26.9286 47.1916 25.7011 47.8053 23.2461 47.8053C20.791 47.8053 19.5635 47.1916 18.2593 46.5011C17.0318 45.8106 15.6508 45.1969 13.3492 45.0434C13.0424 25.7868 21.8651 16.5037 23.3228 15.1228Z" fill="white"/>
<path d="M33.0662 39.2126C34.0636 40.747 35.1377 41.5909 36.2117 41.5909C36.3652 41.5909 36.5186 41.5909 36.5953 41.5142C37.8228 41.2841 38.6668 39.9798 38.9736 37.9851C39.2805 36.1438 39.2038 33.919 38.7435 31.5407C37.8228 27.0909 35.5213 22.6412 32.9128 23.1015C31.6853 23.3317 30.8413 24.6359 30.5345 26.6306C30.2276 28.4719 30.3043 30.6967 30.7646 33.0751C31.2249 35.4534 32.0689 37.6015 33.0662 39.2126ZM32.0689 26.9375C32.299 25.6332 32.7593 24.7126 33.2964 24.6359H33.3731C34.4472 24.6359 36.3652 27.3211 37.2858 31.8475C37.7461 33.9957 37.8228 36.1438 37.516 37.755C37.2858 39.0592 36.8255 39.9798 36.2884 40.0565C35.8281 40.1333 34.9842 39.5195 34.2937 38.3687C33.3731 36.9878 32.6826 34.993 32.2223 32.8449C31.8387 30.6967 31.762 28.5486 32.0689 26.9375Z" fill="white"/>
<path d="M6.52117 9.8291C2.91535 9.8291 0 12.7444 0 16.3503C0 19.9561 2.91535 22.8714 6.52117 22.8714C10.127 22.8714 13.0423 19.9561 13.0423 16.3503C13.0423 12.7444 10.127 9.8291 6.52117 9.8291ZM6.52117 21.4138C3.75926 21.4138 1.53439 19.1889 1.53439 16.427C1.53439 13.6651 3.75926 11.4402 6.52117 11.4402C9.28308 11.4402 11.508 13.6651 11.508 16.427C11.508 19.1889 9.28308 21.4138 6.52117 21.4138Z" fill="white"/>
<path d="M6.5213 12.7446C4.75675 12.7446 3.29907 14.2023 3.29907 15.9669C3.29907 16.4272 3.60595 16.7341 4.06627 16.7341C4.52659 16.7341 4.83347 16.4272 4.83347 15.9669C4.83347 15.0462 5.60066 14.279 6.5213 14.279C6.98162 14.279 7.2885 13.9721 7.2885 13.5118C7.2885 13.0515 6.9049 12.7446 6.5213 12.7446Z" fill="white"/>
<path d="M53.32 9.29224C50.7116 9.29224 48.6401 11.3637 48.6401 13.9721C48.6401 16.5806 50.7116 18.652 53.32 18.652C55.9285 18.652 57.9999 16.5806 57.9999 13.9721C57.9999 11.3637 55.9285 9.29224 53.32 9.29224ZM53.32 17.1944C51.5555 17.1944 50.1745 15.8134 50.1745 14.0489C50.1745 12.2843 51.5555 10.9033 53.32 10.9033C55.0846 10.9033 56.4655 12.2843 56.4655 14.0489C56.4655 15.8134 55.0846 17.1944 53.32 17.1944Z" fill="white"/>
<path d="M53.3203 11.8237C52.0928 11.8237 51.0955 12.8211 51.0955 14.0486C51.0955 14.5089 51.4023 14.8158 51.8627 14.8158C52.323 14.8158 52.6299 14.5089 52.6299 14.0486C52.6299 13.665 52.9367 13.3581 53.3203 13.3581C53.7806 13.3581 54.0875 13.0512 54.0875 12.5909C54.0875 12.1306 53.7806 11.8237 53.3203 11.8237Z" fill="white"/>
<path d="M49.4076 19.3423C47.7965 19.3423 46.4155 20.6465 46.4155 22.3344C46.4155 23.9455 47.7198 25.3264 49.4076 25.3264C51.0187 25.3264 52.3997 24.0222 52.3997 22.3344C52.3997 20.6465 51.0187 19.3423 49.4076 19.3423ZM49.4076 23.7153C48.6404 23.7153 47.9499 23.1015 47.9499 22.2576C47.9499 21.4137 48.5637 20.8 49.4076 20.8C50.2515 20.8 50.8653 21.4137 50.8653 22.2576C50.8653 23.1015 50.1748 23.7153 49.4076 23.7153Z" fill="white"/>
<path d="M6.52136 28.9324C4.91025 28.9324 3.5293 30.2366 3.5293 31.9244C3.5293 33.5356 4.83353 34.9165 6.52136 34.9165C8.13248 34.9165 9.51343 33.6123 9.51343 31.9244C9.51343 30.2366 8.13248 28.9324 6.52136 28.9324ZM6.52136 33.3054C5.75417 33.3054 5.06369 32.6916 5.06369 31.8477C5.06369 31.0038 5.67745 30.39 6.52136 30.39C7.36528 30.39 7.97904 31.0038 7.97904 31.8477C7.97904 32.6916 7.28856 33.3054 6.52136 33.3054Z" fill="white"/>
</svg>
