<svg width="60" height="61" viewBox="0 0 60 61" fill="none" xmlns="http://www.w3.org/2000/svg">
<path d="M27.8211 55.6425C30.1542 55.6425 32.4621 55.338 34.7022 54.768V56.7155C34.7022 58.5373 36.1843 60.019 38.0057 60.019H56.6972C58.5186 60.019 60 58.5373 60 56.7155V34.0369C60 32.5958 59.5875 31.1979 58.808 29.9941C58.2314 29.104 58.2314 27.9075 58.8072 27.0177C59.5875 25.8143 60 24.4161 60 22.9746V17.5625C60 13.6515 56.9703 10.4415 53.1358 10.1404V6.73749C53.1358 5.73815 52.3232 4.92527 51.3239 4.92527H50.9788V0.750238C50.9788 0.335922 50.6433 0 50.2286 0H44.4743C44.0596 0 43.7241 0.335922 43.7241 0.750238V4.92527H43.6114C43.5967 4.91346 43.5889 4.89656 43.5732 4.88571C38.9281 1.6895 33.4808 0 27.8211 0C12.4808 0 0 12.4808 0 27.8215C0 43.1621 12.4808 55.6425 27.8211 55.6425ZM34.7022 17.5625V22.9746C34.7022 24.4146 35.1147 25.8129 35.8949 27.0177C36.4715 27.9079 36.4715 29.1036 35.8942 29.9941C35.1147 31.1994 34.7022 32.5973 34.7022 34.0369V44.4458C32.5208 45.3505 30.2086 45.814 27.8211 45.814C17.9002 45.814 9.82856 37.7427 9.82856 27.8215C9.82856 17.9002 17.9002 9.82856 27.8211 9.82856C31.029 9.82856 34.1451 10.6845 36.8917 12.2917C35.5399 13.6413 34.7022 15.5058 34.7022 17.5625ZM58.4995 50.1557H36.2027V37.6518H58.4995V50.1557V50.1557ZM56.6972 58.5186H38.0057C37.0115 58.5186 36.2027 57.7097 36.2027 56.7155V51.6562H58.4995V56.7155C58.4995 57.7097 57.6907 58.5186 56.6972 58.5186ZM57.5478 26.2019C56.6422 27.6013 56.6422 29.4102 57.5485 30.8099C58.1706 31.7701 58.4995 32.8859 58.4995 34.0369V36.1514H36.2027V34.0369C36.2027 32.887 36.5316 31.7712 37.1536 30.8099C38.0607 29.4102 38.0607 27.6013 37.1544 26.2019C36.5316 25.2407 36.2027 24.1248 36.2027 22.9746V20.444H58.4995V22.9746C58.4995 24.1256 58.1706 25.2418 57.5478 26.2019ZM58.4995 17.5625V18.9435H36.2027V17.5625C36.2027 14.2809 38.8724 11.6111 42.154 11.6111H52.5489C55.8297 11.6111 58.4995 14.2809 58.4995 17.5625ZM51.6353 6.73749V10.1106H43.0669V6.73749C43.0669 6.56568 43.2068 6.42575 43.379 6.42575H51.3239C51.4953 6.42575 51.6353 6.56568 51.6353 6.73749ZM45.2246 1.50048H49.4784V4.92527H45.2246V1.50048ZM27.8211 1.50048C32.8693 1.50048 37.7294 2.93735 41.9523 5.63297C41.7141 5.93972 41.5664 6.31992 41.5664 6.73749V10.1404C40.3128 10.2389 39.1472 10.6478 38.1436 11.2919C35.0506 9.35664 31.4899 8.32808 27.8211 8.32808C17.0723 8.32808 8.32808 17.0727 8.32808 27.8215C8.32808 38.5699 17.0723 47.3145 27.8211 47.3145C30.198 47.3145 32.5084 46.894 34.7022 46.0645V53.2226C32.4683 53.826 30.1575 54.1421 27.8211 54.1421C13.3079 54.1421 1.50048 42.3346 1.50048 27.8215C1.50048 13.3079 13.3079 1.50048 27.8211 1.50048Z" fill="white"/>
<path d="M28.1699 28.6647L30.0345 27.6448C30.2756 27.5133 30.425 27.2609 30.425 26.9865C30.425 26.7122 30.2756 26.4598 30.0345 26.3283L28.1699 25.3084C26.4357 24.36 25.0173 22.9419 24.0685 21.207L23.0487 19.3428C22.7864 18.8614 21.9958 18.8618 21.7321 19.3431L20.7137 21.207C19.7642 22.9419 18.3457 24.36 16.6123 25.3084L14.7477 26.3283C14.5066 26.4598 14.3572 26.7122 14.3572 26.9865C14.3572 27.2609 14.5066 27.5133 14.7477 27.6448L16.6123 28.6647C18.3457 29.6131 19.7642 31.0312 20.713 32.7657L21.7321 34.63C21.864 34.8706 22.1167 35.0205 22.3907 35.0205C22.6647 35.0205 22.9175 34.871 23.0487 34.6303L24.0685 32.7657C25.0173 31.0312 26.4357 29.6131 28.1699 28.6647ZM22.7527 32.0459L22.3907 32.7067L22.0295 32.0459C20.943 30.0589 19.318 28.4346 17.3318 27.3481L16.6709 26.9865L17.3318 26.625C19.318 25.5385 20.943 23.9142 22.0303 21.9268L22.3907 21.2664L22.7527 21.9268C23.8385 23.9142 25.4635 25.5385 27.4504 26.625L28.1113 26.9865L27.4504 27.3481C25.4635 28.4346 23.8385 30.0589 22.7527 32.0459Z" fill="white"/>
<path d="M30.8931 16.4118H29.2102V14.7285C29.2102 14.3142 28.8747 13.9783 28.46 13.9783C28.0453 13.9783 27.7098 14.3142 27.7098 14.7285V16.4118H26.0268C25.6122 16.4118 25.2766 16.7477 25.2766 17.162C25.2766 17.5763 25.6122 17.9123 26.0268 17.9123H27.7098V19.5955C27.7098 20.0098 28.0453 20.3458 28.46 20.3458C28.8747 20.3458 29.2102 20.0098 29.2102 19.5955V17.9123H30.8931C31.3078 17.9123 31.6434 17.5763 31.6434 17.162C31.6434 16.7477 31.3078 16.4118 30.8931 16.4118Z" fill="white"/>
<path d="M30.2418 37.0121H28.5589V35.3289C28.5589 34.9145 28.2233 34.5786 27.8086 34.5786C27.3939 34.5786 27.0584 34.9145 27.0584 35.3289V37.0121H25.3747C24.9601 37.0121 24.6245 37.348 24.6245 37.7624C24.6245 38.1767 24.9601 38.5126 25.3747 38.5126H27.0584V40.1959C27.0584 40.6102 27.3939 40.9461 27.8086 40.9461C28.2233 40.9461 28.5589 40.6102 28.5589 40.1959V38.5126H30.2418C30.6565 38.5126 30.992 38.1767 30.992 37.7624C30.992 37.348 30.6565 37.0121 30.2418 37.0121Z" fill="white"/>
</svg>
