<svg width="82" height="161" viewBox="0 0 82 161" fill="none" xmlns="http://www.w3.org/2000/svg">
<path fill-rule="evenodd" clip-rule="evenodd" d="M47.5951 25.1827C43.1605 25.1827 41.5477 19.8576 39.0283 16.9354C37.2257 14.8446 34.1492 15.468 33.2386 12.5409C30.9487 5.18045 37.0775 0 45.073 0C53.0685 0 58.4595 4.54341 59.6235 11.3734C60.7876 18.2033 55.5906 25.1827 47.5951 25.1827Z" fill="#2B2842"/>
<path fill-rule="evenodd" clip-rule="evenodd" d="M47.1056 20.4281C48.8936 18.3231 50.1037 15.7434 49.9015 12.8528C49.3189 4.52409 37.7598 6.35629 35.5114 10.5599C33.2629 14.7635 33.5301 25.4263 36.436 26.1776C37.5949 26.4772 40.0637 25.7432 42.5763 24.2242L40.9992 35.4154H50.3115L47.1056 20.4281Z" fill="#B28B67"/>
<path fill-rule="evenodd" clip-rule="evenodd" d="M43.1798 15.07C43.5182 14.8905 43.9059 14.7885 44.3179 14.7885C45.6373 14.7885 46.7068 15.834 46.7068 17.1236C46.7068 17.65 46.5286 18.1356 46.228 18.5262C46.794 19.4619 47.1803 20.4451 47.307 21.4559C49.2688 21.4559 56.429 14.0101 49.2961 7.00487C42.1632 -0.000402949 31.8552 9.99999 34.9526 10.5832C36.7335 10.9185 40.3201 12.6238 43.1798 15.07V15.07Z" fill="#2B2842"/>
<path fill-rule="evenodd" clip-rule="evenodd" d="M53.417 67.7175L38.8157 115.596L31.7425 156.314H26.1965L33.6706 67.7175H53.417Z" fill="#997659"/>
<path fill-rule="evenodd" clip-rule="evenodd" d="M58.6398 67.7175C57.6481 94.0055 58.8152 107.565 59.0372 109.954C59.2592 112.342 62.2986 127.829 69.4941 157.116L63.5846 155.08C52.2127 128.219 48.3376 114.259 47.0333 110.732C45.729 107.205 42.265 92.8668 36.6411 67.7175H58.6398Z" fill="#B28B67"/>
<path fill-rule="evenodd" clip-rule="evenodd" d="M69.4504 155.051C69.8845 156.213 70.1016 157.083 70.1016 157.66C70.1016 158.362 69.985 159.386 69.7519 160.732C68.9402 160.732 61.6453 160.732 47.8672 160.732C47.2984 158.846 47.6267 157.828 48.852 157.678C50.0773 157.528 51.0952 157.392 51.9056 157.271L62.0774 152.722C62.2732 152.635 62.5026 152.723 62.5898 152.919C62.5913 152.923 62.5927 152.926 62.5941 152.929L63.248 154.52C64.3823 155.051 65.304 155.316 66.0132 155.316C66.5894 155.316 67.3851 155.083 68.4003 154.616L68.4003 154.616C68.7899 154.437 69.2505 154.609 69.4291 154.999C69.4368 155.016 69.4439 155.033 69.4504 155.051Z" fill="#E4E4E4"/>
<path fill-rule="evenodd" clip-rule="evenodd" d="M32.9758 155.051C33.4099 156.213 33.627 157.083 33.627 157.66C33.627 158.362 33.5104 159.386 33.2773 160.732C32.4656 160.732 25.1707 160.732 11.3925 160.732C10.8238 158.846 11.1521 157.828 12.3774 157.678C13.6027 157.528 14.6206 157.392 15.431 157.271L25.6028 152.722C25.7985 152.635 26.0279 152.723 26.1152 152.919C26.1167 152.923 26.1181 152.926 26.1195 152.929L26.7734 154.52C27.9077 155.051 28.8294 155.316 29.5386 155.316C30.1148 155.316 30.9105 155.083 31.9257 154.616L31.9257 154.616C32.3153 154.437 32.7759 154.609 32.9545 154.999C32.9622 155.016 32.9693 155.033 32.9758 155.051Z" fill="#E4E4E4"/>
<path fill-rule="evenodd" clip-rule="evenodd" d="M55.3564 67.7175L49.1482 92.1112H30.1858L33.0132 67.7175H55.3564Z" fill="#69A1AC"/>
<path fill-rule="evenodd" clip-rule="evenodd" d="M58.8489 67.7175C60.8917 73.859 61.2797 81.9903 60.013 92.1112H40.6626L35.3417 67.7175H58.8489Z" fill="#89C5CC"/>
<path fill-rule="evenodd" clip-rule="evenodd" d="M19.2537 61.5383L8.26203 72.2934C5.06387 73.6617 2.44344 75.1725 0.400724 76.826C-0.0586519 77.3818 -0.558758 78.4467 1.60258 77.9701C3.76392 77.4936 6.0587 77.0899 6.46492 77.7949C6.87114 78.4999 5.67417 79.5802 6.42492 80.5028C6.92541 81.1179 8.60862 79.1614 11.4745 74.6332L22.9044 67.8742L19.2537 61.5383ZM68.0412 63.0551L59.9327 63.0871C64.9394 79.2979 67.6422 87.8993 68.0412 88.8912C68.9391 91.123 67.0391 94.522 66.2266 96.3485C68.8729 97.5362 68.5909 93.1377 71.9291 94.6954C74.9761 96.1173 77.2939 98.6935 80.8142 96.5148C81.247 96.247 81.7213 95.2384 80.5754 94.4503C77.7205 92.4868 73.6064 89.0504 73.0505 87.9193C72.2924 86.3768 70.6227 78.0887 68.0412 63.0551Z" fill="#B28B67"/>
<path fill-rule="evenodd" clip-rule="evenodd" d="M44.9983 28.9285L41.6431 28.3513C35.8665 42.825 25.7812 55.9763 11.3872 67.805L22.264 81.0591C36.6564 64.2166 45.5279 46.8397 44.9983 28.9285Z" fill="#2B2842"/>
<path fill-rule="evenodd" clip-rule="evenodd" d="M59.624 71.22H29.7469C36.6688 54.3393 40.1297 39.9993 40.1297 28.2001L49.1421 26.8533C56.2251 38.279 58.2253 52.3464 59.624 71.22Z" fill="#DDE3E9"/>
<path fill-rule="evenodd" clip-rule="evenodd" d="M49.3335 26.8597C49.3323 26.8575 49.3311 26.8554 49.3299 26.8533L48.7416 26.8533C48.0377 26.8776 46.9655 26.9214 45.525 26.9847L43.3473 33.2269C43.117 40.8375 41.7717 56.175 39.3116 79.2395H58.8966C58.8453 80.8324 58.7606 82.4403 58.6427 84.063H73.2051C71.0268 59.4138 63.072 40.3439 49.3407 26.8533L49.3335 26.8597V26.8597Z" fill="#524F61"/>
<path fill-rule="evenodd" clip-rule="evenodd" d="M57.603 58.8569C57.0456 68.7868 55.6501 75.6321 53.4164 79.3928H58.8917C59.1314 72.2486 58.7018 65.4033 57.603 58.8569V58.8569Z" fill="black" fill-opacity="0.1"/>
<path fill-rule="evenodd" clip-rule="evenodd" d="M54.5371 67.3283L44.8798 62.8252V67.3283H54.5371Z" fill="white" fill-opacity="0.2"/>
</svg>
