<svg width="30" height="40" viewBox="0 0 30 40" fill="none" xmlns="http://www.w3.org/2000/svg">
<path d="M29 0H1C0.73502 0.000767747 0.481111 0.106371 0.293741 0.293741C0.106371 0.481111 0.000767747 0.73502 0 1V39C0.000767747 39.265 0.106371 39.5189 0.293741 39.7063C0.481111 39.8936 0.73502 39.9992 1 40H29C29.265 39.9992 29.5189 39.8936 29.7063 39.7063C29.8936 39.5189 29.9992 39.265 30 39V1C29.9992 0.73502 29.8936 0.481111 29.7063 0.293741C29.5189 0.106371 29.265 0.000767747 29 0ZM28 38H2V2H28V38Z" fill="white"/>
<path d="M20 9H10C9.73478 9 9.48043 8.89464 9.29289 8.70711C9.10536 8.51957 9 8.26522 9 8C9 7.73478 9.10536 7.48043 9.29289 7.29289C9.48043 7.10536 9.73478 7 10 7H20C20.2652 7 20.5196 7.10536 20.7071 7.29289C20.8946 7.48043 21 7.73478 21 8C21 8.26522 20.8946 8.51957 20.7071 8.70711C20.5196 8.89464 20.2652 9 20 9Z" fill="white"/>
<path d="M23 13H7C6.73478 13 6.48043 12.8946 6.29289 12.7071C6.10536 12.5196 6 12.2652 6 12C6 11.7348 6.10536 11.4804 6.29289 11.2929C6.48043 11.1054 6.73478 11 7 11H23C23.2652 11 23.5196 11.1054 23.7071 11.2929C23.8946 11.4804 24 11.7348 24 12C24 12.2652 23.8946 12.5196 23.7071 12.7071C23.5196 12.8946 23.2652 13 23 13Z" fill="white"/>
<path d="M15 16C13.6741 16.0005 12.4026 16.5274 11.465 17.465C10.5275 18.4026 10.0005 19.6741 10 21C9.99574 22.0825 10.3471 23.1365 11 24V33C10.9986 33.085 11.0122 33.1697 11.04 33.25C11.044 33.2989 11.0576 33.3464 11.08 33.39C11.1284 33.5094 11.1998 33.6181 11.29 33.71C11.3854 33.7959 11.4933 33.8667 11.61 33.92C11.6535 33.9425 11.7011 33.9561 11.75 33.96C11.9124 34.0134 12.0876 34.0134 12.25 33.96C12.2988 33.9561 12.3464 33.9425 12.39 33.92C12.5067 33.8667 12.6146 33.7959 12.7099 33.71L15 31.42L17.29 33.71C17.3854 33.7959 17.4933 33.8667 17.61 33.92C17.6535 33.9425 17.7011 33.9561 17.75 33.96C17.9124 34.0134 18.0876 34.0134 18.25 33.96C18.2988 33.9561 18.3464 33.9425 18.39 33.92C18.5067 33.8667 18.6146 33.7959 18.7099 33.71C18.8002 33.6181 18.8716 33.5094 18.9199 33.39C18.9424 33.3464 18.956 33.2989 18.9599 33.25C18.9878 33.1697 19.0014 33.085 19 33V24C19.653 23.1365 20.0043 22.0825 20 21C19.9996 19.6741 19.4726 18.4026 18.535 17.465C17.5975 16.5274 16.326 16.0005 15 16V16ZM15 18C15.5934 18 16.1734 18.1759 16.6667 18.5056C17.1601 18.8352 17.5446 19.3038 17.7717 19.8519C17.9987 20.4001 18.0582 21.0033 17.9424 21.5853C17.8266 22.1672 17.5409 22.7018 17.1214 23.1213C16.7018 23.5409 16.1673 23.8266 15.5853 23.9424C15.0034 24.0581 14.4002 23.9987 13.852 23.7716C13.3038 23.5446 12.8353 23.1601 12.5056 22.6667C12.176 22.1734 12 21.5933 12 21C12.0024 20.2051 12.3192 19.4433 12.8813 18.8812C13.4434 18.3191 14.2051 18.0023 15 18V18ZM14.29 29.29L13 30.58V25.59C13.6321 25.8605 14.3125 26 15 26C15.6876 26 16.368 25.8605 17 25.59V30.58L15.71 29.29C15.5213 29.1026 15.266 28.9974 15 28.9974C14.734 28.9974 14.4788 29.1026 14.29 29.29Z" fill="white"/>
</svg>
