<svg width="58" height="58" viewBox="0 0 58 58" fill="none" xmlns="http://www.w3.org/2000/svg">
<path d="M1.20148 25.9212L3.27063 24.1174V57.275C3.27063 57.6754 3.59525 58 3.99563 58H54.0044C54.4047 58 54.7294 57.6754 54.7294 57.275V24.1174L56.7985 25.9212C56.9359 26.0409 57.1058 26.0996 57.2747 26.0996C57.4768 26.0996 57.6782 26.0154 57.8216 25.8511C58.0846 25.5492 58.0531 25.0914 57.7515 24.8281L48.0316 16.3545V0.725C48.0316 0.324622 47.707 0 47.3066 0H38.9691C38.5687 0 38.2441 0.324622 38.2441 0.725V7.82185L29.4765 0.178418C29.2032 -0.0594727 28.7968 -0.0594727 28.5235 0.178418L0.248497 24.8281C-0.0531147 25.0914 -0.0846211 25.5492 0.178404 25.8511C0.441075 26.152 0.89951 26.1839 1.20148 25.9212ZM39.6941 1.45H46.5816V15.0903L39.6941 9.08595V1.45ZM29 1.68683L53.2794 22.8533V56.55H4.72063V22.8533L29 1.68683Z" fill="white"/>
<path d="M35.3176 37.5478C35.3176 37.9481 35.6422 38.2728 36.0426 38.2728C36.443 38.2728 36.7676 37.9481 36.7676 37.5478C36.7676 36.0503 37.9861 34.8318 39.4835 34.8318C39.8839 34.8318 40.2085 34.5072 40.2085 34.1068C40.2085 33.7065 39.8839 33.3818 39.4835 33.3818C37.1864 33.3818 35.3176 35.2506 35.3176 37.5478Z" fill="white"/>
<path d="M30.7081 37.665C30.9221 37.665 31.1349 37.6453 31.3486 37.6327C31.3948 42.0811 35.0242 45.6867 39.4836 45.6867C43.9713 45.6867 47.6225 42.0355 47.6225 37.5478C47.6225 33.6011 44.7982 30.3041 41.0653 29.5656C41.2735 28.7262 41.3842 27.8627 41.3842 26.9885C41.3842 21.1018 36.5949 16.3125 30.7081 16.3125C24.8211 16.3125 20.0317 21.1018 20.0317 26.9885C20.0317 32.8756 24.8211 37.665 30.7081 37.665ZM46.1725 37.5478C46.1725 41.2361 43.1719 44.2367 39.4836 44.2367C35.7952 44.2367 32.7943 41.2361 32.7943 37.5478C32.7943 33.8594 35.7952 30.8585 39.4836 30.8585C43.1719 30.8585 46.1725 33.8594 46.1725 37.5478ZM30.7081 17.7625C35.7955 17.7625 39.9342 21.9012 39.9342 26.9885C39.9342 27.814 39.8196 28.6278 39.6056 29.4147C39.5645 29.4141 39.5248 29.4085 39.4836 29.4085C35.4638 29.4085 32.1241 32.3405 31.4691 36.1765C31.2165 36.1971 30.9624 36.215 30.7081 36.215C25.6208 36.215 21.4817 32.0759 21.4817 26.9885C21.4817 21.9012 25.6208 17.7625 30.7081 17.7625Z" fill="white"/>
<path d="M25.0507 27.7134C25.4511 27.7134 25.7757 27.3888 25.7757 26.9884C25.7757 24.269 27.9882 22.0564 30.708 22.0564C31.1084 22.0564 31.433 21.7318 31.433 21.3314C31.433 20.9311 31.1084 20.6064 30.708 20.6064C27.1889 20.6064 24.3257 23.4693 24.3257 26.9884C24.3257 27.3888 24.6503 27.7134 25.0507 27.7134Z" fill="white"/>
<path d="M10.4119 41.7859L12.3774 42.8606C14.2168 43.8664 15.7206 45.3702 16.7263 47.2096L17.8011 49.175C17.9281 49.4072 18.172 49.552 18.4372 49.552C18.7023 49.552 18.9463 49.4072 19.0733 49.175L20.1481 47.2096C21.1538 45.3702 22.658 43.8664 24.4974 42.8606L26.4625 41.7859C26.6951 41.6588 26.8395 41.4149 26.8395 41.1497C26.8395 40.8846 26.6951 40.6407 26.4625 40.5136L24.4974 39.4388C22.658 38.4331 21.1538 36.9293 20.1481 35.0899L19.0733 33.1245C18.8192 32.66 18.0552 32.66 17.8011 33.1245L16.7263 35.0899C15.7206 36.9293 14.2168 38.4331 12.3774 39.4388L10.4119 40.5136C10.1797 40.6407 10.0349 40.8846 10.0349 41.1497C10.0349 41.4149 10.1797 41.6588 10.4119 41.7859ZM13.0733 40.7111C15.1563 39.5719 16.8594 37.8688 17.9986 35.7859L18.4372 34.9837L18.8758 35.7859C20.015 37.8688 21.7185 39.5719 23.8014 40.7111L24.6036 41.1497L23.8014 41.5883C21.7185 42.7275 20.015 44.4306 18.8758 46.5136L18.4372 47.3158L17.9986 46.5136C16.8594 44.4306 15.1563 42.7275 13.0733 41.5883L12.2712 41.1497L13.0733 40.7111Z" fill="white"/>
<path d="M32.1239 46.7793H30.3064V44.9618C30.3064 44.5614 29.9818 44.2368 29.5814 44.2368C29.181 44.2368 28.8564 44.5614 28.8564 44.9618V46.7793H27.039C26.6386 46.7793 26.314 47.1039 26.314 47.5043C26.314 47.9047 26.6386 48.2293 27.039 48.2293H28.8564V50.0467C28.8564 50.4471 29.181 50.7717 29.5814 50.7717C29.9818 50.7717 30.3064 50.4471 30.3064 50.0467V48.2293H32.1239C32.5243 48.2293 32.8489 47.9047 32.8489 47.5043C32.8489 47.1039 32.5243 46.7793 32.1239 46.7793Z" fill="white"/>
<path d="M11.0558 28.5191H12.8733V30.3365C12.8733 30.7369 13.1979 31.0615 13.5983 31.0615C13.9986 31.0615 14.3233 30.7369 14.3233 30.3365V28.5191H16.1407C16.5411 28.5191 16.8657 28.1944 16.8657 27.7941C16.8657 27.3937 16.5411 27.0691 16.1407 27.0691H14.3233V25.2516C14.3233 24.8512 13.9986 24.5266 13.5983 24.5266C13.1979 24.5266 12.8733 24.8512 12.8733 25.2516V27.0691H11.0558C10.6554 27.0691 10.3308 27.3937 10.3308 27.7941C10.3308 28.1944 10.6554 28.5191 11.0558 28.5191Z" fill="white"/>
</svg>
