<svg width="68" height="45" viewBox="0 0 68 45" fill="none" xmlns="http://www.w3.org/2000/svg">
<path d="M53.5835 20.0834C53.7502 19.9167 53.8335 19.6668 53.7502 19.4168L52.5835 11.9167C52.5002 11.5001 52.1668 11.1667 51.7502 11.1667H34.5002C30.0835 11.1667 24.7502 14.4168 24.1668 18.7501L24.0835 19.4168C24.0835 19.6668 24.1668 19.9167 24.2502 20.0834C24.4168 20.2501 24.6668 20.3334 24.9168 20.3334H53.0002C53.2502 20.4167 53.4168 20.3334 53.5835 20.0834ZM25.9168 18.7501C26.5835 15.5001 31.0835 12.9168 34.5002 12.9168H51.0835L52.0002 18.7501H25.9168Z" fill="white"/>
<path d="M0.833235 44.9167H52.6666C53.1666 44.9167 53.4999 44.5833 53.4999 44.0833V41.3333H62.9999C63.2499 41.3333 63.4999 41.25 63.6666 41.0833C63.8332 40.9167 63.9166 40.6667 63.8332 40.4167L63.2499 36.5H67.1666C67.6666 36.5 67.9999 36.1667 67.9999 35.6667C67.9999 35.1667 67.6666 34.8333 67.1666 34.8333H62.9999L58.6666 6.16667C58.5832 5.75 58.2499 5.41667 57.8332 5.41667H41.0832V2.33333C41.0832 1.83333 40.7499 1.5 40.2499 1.5H34.1666C33.6666 1.5 33.3332 1.83333 33.3332 2.33333V5.58333C16.4166 7.16667 2.58324 20.3333 0.416569 37.5L0.0832355 40.4167V44.0833C-9.77859e-05 44.5833 0.416569 44.9167 0.833235 44.9167ZM51.9166 43.25H1.66657V41.3333H51.8332V43.25H51.9166ZM34.9999 5.5V3.25H39.4166V5.5H36.6666H34.9999ZM1.9999 37.6667C4.2499 20.25 19.1666 7.16667 36.7499 7.16667H57.1666L62.0832 39.6667H52.7499H1.7499L1.9999 37.6667Z" fill="white"/>
<path d="M45.0836 24.5H41.5836C41.0836 24.5 40.7502 24.8333 40.7502 25.3333C40.7502 25.8333 41.0836 26.1667 41.5836 26.1667H45.0836C45.5836 26.1667 45.9169 25.8333 45.9169 25.3333C45.9169 24.8333 45.5836 24.5 45.0836 24.5Z" fill="white"/>
<path d="M54.5002 25.3336C54.5002 23.9169 53.3335 22.7502 51.9168 22.7502C50.5002 22.7502 49.3335 23.9169 49.3335 25.3336C49.3335 26.7502 50.5002 27.9169 51.9168 27.9169C53.2502 27.9169 54.5002 26.7502 54.5002 25.3336ZM51.8335 26.2502C51.3335 26.2502 50.9168 25.8336 50.9168 25.3336C50.9168 24.8336 51.3335 24.4169 51.8335 24.4169C52.3335 24.4169 52.7502 24.8336 52.7502 25.3336C52.7502 25.8336 52.3335 26.2502 51.8335 26.2502Z" fill="white"/>
<path d="M3.58333 12.5833C4.08333 12.5833 4.41667 12.25 4.41667 11.75C4.41667 11.25 4.08333 10.9167 3.58333 10.9167C2.5 10.9167 1.66667 10.0833 1.66667 9C1.66667 7.91667 2.5 7.08333 3.58333 7.08333C5.5 7.16667 7.16667 5.5 7.16667 3.58333C7.16667 1.66667 5.58333 0 3.58333 0C3.08333 0 2.75 0.333333 2.75 0.833333C2.75 1.33333 3.08333 1.66667 3.58333 1.66667C4.66667 1.66667 5.5 2.5 5.5 3.58333C5.5 4.66667 4.66667 5.5 3.58333 5.5C1.58333 5.5 0 7.08333 0 9.08333C0 11.0833 1.58333 12.5833 3.58333 12.5833Z" fill="white"/>
<path d="M10.6666 7.16667C12.6666 7.16667 14.2499 5.58333 14.2499 3.58333C14.2499 1.58333 12.6666 0 10.6666 0C10.1666 0 9.83325 0.333333 9.83325 0.833333C9.83325 1.33333 10.1666 1.66667 10.6666 1.66667C11.7499 1.66667 12.5833 2.5 12.5833 3.58333C12.5833 4.66667 11.7499 5.5 10.6666 5.5C8.66659 5.5 7.08325 7.08333 7.08325 9.08333C7.08325 11.0833 8.66659 12.6667 10.6666 12.6667C11.1666 12.6667 11.4999 12.3333 11.4999 11.8333C11.4999 11.3333 11.1666 11 10.6666 11C9.58325 11 8.74992 10.1667 8.74992 9.08333C8.74992 8 9.66659 7.16667 10.6666 7.16667Z" fill="white"/>
</svg>
