<svg width="64" height="95" viewBox="0 0 64 95" fill="none" xmlns="http://www.w3.org/2000/svg">
<path d="M21.2504 0.00025424C21.0951 0.00282617 20.9378 0.0291885 20.7825 0.0808106C19.9544 0.355782 19.5052 1.25297 19.7787 2.08488L36.1588 51.8515L1.57904 51.8503C0.706777 51.8503 0 52.5606 0 53.4367V77.7301C0 78.2041 0.211048 78.6531 0.57528 78.9546C0.860349 79.1904 1.21586 79.3165 1.57904 79.3165C1.67989 79.3165 1.78146 79.3066 1.8821 79.2867L2.92163 79.0826L4.5274 93.14C4.61899 93.941 5.29339 94.5455 6.09575 94.5455H32.0705C32.8731 94.5455 33.5479 93.941 33.6393 93.14L34.8182 82.8239C34.8273 82.8221 34.8363 82.8221 34.8454 82.8202C38.6275 82.0545 40.9134 80.3186 41.6397 77.6615C42.5122 74.4707 40.904 70.1905 36.8627 64.9306L37.7908 56.809L49.0477 91.01H39.323C38.4507 91.01 37.744 91.7203 37.744 92.5964C37.744 93.4725 38.4507 94.1828 39.323 94.1828H62.421C63.2932 94.1828 64 93.4725 64 92.5964C64 91.7203 63.2936 91.01 62.4214 91.01H52.3743L22.7772 1.08884C22.5548 0.412915 21.9236 -0.0119046 21.2504 0.00025424ZM13.655 33.2176C13.4182 33.2365 13.1786 33.3131 12.9518 33.4588C12.3187 33.8656 12.0522 34.7033 12.3449 35.4022C12.6013 36.0113 13.2188 36.4132 13.8803 36.3796C14.5395 36.346 15.1201 35.8894 15.313 35.2559C15.6544 34.1338 14.6809 33.1355 13.655 33.2176ZM21.5786 33.9761C18.5234 33.9761 16.0379 36.4731 16.0379 39.5425C16.0379 42.6119 18.5234 45.1089 21.5786 45.1089C24.6339 45.1089 27.1192 42.6119 27.1192 39.5425C27.1192 36.4731 24.6337 33.9761 21.5786 33.9761ZM21.5786 37.1484C22.8923 37.1484 23.9611 38.2222 23.9611 39.5421C23.9611 40.862 22.8923 41.9361 21.5786 41.9361C20.2648 41.9361 19.196 40.862 19.196 39.5421C19.196 38.2222 20.2648 37.1484 21.5786 37.1484ZM8.52517 42.2344C6.22714 42.2344 4.35757 44.1127 4.35757 46.4214C4.35757 48.7302 6.22714 50.6085 8.52517 50.6085C10.8232 50.6085 12.6928 48.7302 12.6928 46.4214C12.6928 44.1127 10.8232 42.2344 8.52517 42.2344ZM8.52517 45.4072C9.08204 45.4072 9.53468 45.8622 9.53468 46.4214C9.53468 46.9807 9.08204 47.4357 8.52517 47.4357C7.9685 47.4357 7.51565 46.9807 7.51565 46.4214C7.51565 45.8622 7.9685 45.4072 8.52517 45.4072ZM3.15808 55.0243H16.6017V73.1609L3.15808 75.8033V55.0243ZM19.7598 55.0243H34.8162L34.0682 61.5699C31.6333 58.8417 29.5479 56.9407 29.4367 56.8396C28.7904 56.2524 27.7918 56.3026 27.2068 56.9524C26.6221 57.6022 26.6725 58.6054 27.319 59.1932C29.2484 60.9467 31.5495 63.3384 33.5776 65.8614L30.6621 91.3727H7.50414L6.03037 78.4713L18.4838 76.0235C19.2249 75.878 19.7598 75.2256 19.7598 74.4668V55.0243ZM36.322 69.6618C38.0564 72.4079 39.0897 75.0114 38.5943 76.8216C38.2625 78.0345 37.1214 78.9227 35.2011 79.4714L36.322 69.6618Z" fill="white"/>
</svg>
