<svg width="194" height="311" viewBox="0 0 194 311" fill="none" xmlns="http://www.w3.org/2000/svg">
<g opacity="0.7">
<path opacity="0.7" fill-rule="evenodd" clip-rule="evenodd" d="M29.8385 108.228C39.5257 107.726 51.5059 113.38 52.5394 123.91C53.2901 131.561 53.0576 139.19 54.2195 146.829C55.1485 152.935 57.1134 158.796 59.7932 164.357C62.37 169.705 67.7152 174.257 69.1055 179.971C69.9915 183.611 69.4956 188.732 68.2736 192.293C66.7875 196.622 67.5774 196.28 70.5384 199.913C76.3407 207.032 81.5654 214.332 85.2601 222.835C90.582 235.082 94.0712 249.397 92.096 262.803C91.8446 264.505 91.5467 270.614 89.2026 271.041C86.5844 271.519 87.8087 268.025 87.9484 266.896C88.8392 259.695 89.6307 253.4 88.5562 246.086C84.4099 217.867 64.1658 199.274 50.9841 175.324C50.2595 174.089 48.7297 171.148 47.6661 169.208C45.9868 166.144 44.2986 160.316 42.0254 158.044C37.744 153.765 41.6801 162.368 42.5143 164.01C43.5691 166.087 44.7295 168.295 45.8104 170.115C50.756 178.553 56.2762 187.764 61.384 196.462C39.2933 201.495 23.7356 174.937 17.8075 157.477C12.9232 143.092 7.07928 109.459 29.8385 108.228Z" fill="#69A1AC"/>
<path opacity="0.7" fill-rule="evenodd" clip-rule="evenodd" d="M159.675 81.5147C143.481 82.7996 133.085 93.4852 128.246 108.431C125.637 116.485 125.338 124.76 123.889 133.037C121.709 145.49 117.017 154.927 107.848 163.8C105.009 166.547 102.916 169.368 101.428 172.387C98.4751 175.4 95.9044 178.81 94.0157 182.98C91.6032 188.304 90.9205 194.693 93.706 200.001C94.4549 201.428 96.3233 204.293 98.2596 205.595C91.01 221.035 87.0239 237.944 87.4733 254.833C87.7448 265.027 88.2424 275.226 88.823 285.408C88.9794 288.142 89.8697 292.657 91.207 288.072C92.4308 283.878 90.8961 277.294 90.754 272.913C90.063 251.569 89.4723 232.162 98.2585 212.221C99.1798 210.131 100.157 208.058 101.174 206.001C101.234 205.966 101.289 205.925 101.345 205.884C101.384 205.914 101.419 205.946 101.458 205.975C101.523 205.859 101.612 205.721 101.716 205.567C102.008 205.266 102.262 204.886 102.505 204.461C103.284 203.381 104.166 202.112 104.171 201.418C104.171 201.412 104.168 201.404 104.168 201.399C109.607 192.52 115.837 184.13 122.2 175.905C122.152 175.965 129.103 166.502 128.028 171.735C127.51 174.257 122.398 179.06 120.333 181.731C115.766 187.674 110.402 195.204 105.945 202.485C105.346 202.83 104.498 204.522 103.886 205.782C103.547 206.421 103.232 207.065 102.921 207.626C118.714 212.843 130.998 202.333 139.375 190.109C139.385 190.095 139.394 190.08 139.404 190.065C141.953 186.687 144.564 183.333 147.827 180.663C153.269 176.208 159.098 175.422 165.515 173.229C183.015 167.25 190.456 144.57 192.819 127.741C195.485 108.755 182.444 79.6427 159.675 81.5147Z" fill="#89C5CC"/>
<path opacity="0.7" fill-rule="evenodd" clip-rule="evenodd" d="M127.686 28.3475C111.066 45.6455 103.036 69.6382 96.6778 92.1938C89.5766 117.386 84.8862 142.967 84.7061 169.159C84.5882 186.368 84.12 203.683 85.1244 220.872C85.4807 226.976 86.0893 233.091 87.0568 239.13C87.1365 239.627 89.3013 253.11 91.3725 249.968C92.5505 248.181 89.1536 235.981 88.8969 233.949C87.453 222.503 87.1175 210.973 87.1879 199.445C87.3037 180.464 86.744 161.581 88.6678 142.67C88.9546 139.846 89.1816 136.881 89.8523 134.118C90.5643 131.182 89.6574 132.464 91.9769 131.301C94.2307 130.171 97.0158 130.332 99.3542 128.915C108.63 123.29 113.375 108.842 117.068 99.3629C121.292 88.5225 123.859 76.9628 125.909 65.5549C127.415 57.1732 128.491 48.8424 129.101 40.3528C129.293 37.6772 129.304 34.8792 129.83 32.2483C129.971 31.5386 130.682 30.2832 130.656 29.6548C130.602 28.3247 129.799 27.5424 129.733 26.4247C129.038 27.0509 128.354 27.6922 127.686 28.3475Z" fill="#89C5CC"/>
<path opacity="0.7" fill-rule="evenodd" clip-rule="evenodd" d="M37.0605 258.816C37.0605 287.423 60.251 310.614 88.8578 310.614C117.465 310.614 140.655 287.423 140.655 258.816" fill="#89C5CC"/>
<path opacity="0.7" fill-rule="evenodd" clip-rule="evenodd" d="M93.0143 258.981H90.2773C90.4672 255.548 90.7181 252.12 91.2921 248.724C93.4878 235.737 100.353 216.663 115.41 214.555C115.965 214.477 118.009 214.463 120.484 214.608C121.657 213.953 122.971 213.557 124.355 213.465C137.175 212.52 151.491 222.863 157.675 233.625C162.66 242.303 161.82 253.697 158.741 262.916C156.679 269.088 152.179 277.888 144.675 277.974C135.286 278.081 134.834 266.477 134.652 259.693C134.411 250.675 133.271 242.818 126.165 236.671C124.508 235.239 122.698 233.979 121.025 232.567C118.405 230.356 115.51 228.093 115.173 224.436C114.707 219.391 117.555 218.483 121.903 219.42C122.644 219.58 130.111 222.93 129.005 220.282C128.668 219.473 127.435 218.832 125.879 218.352C121.853 217.914 117.051 217.406 115.67 217.709C100.773 220.978 94.9726 241.614 93.4322 254.724C93.266 256.14 93.1315 257.559 93.0143 258.981Z" fill="#69A1AC"/>
<path fill-rule="evenodd" clip-rule="evenodd" d="M44.1695 13.9568C41.5451 10.9016 36.3064 10.9355 36.3086 16.0736C36.3116 21.576 43.6046 24.7342 47.7763 26.3928C47.3718 26.1958 47.8521 21.3547 47.6699 20.5153C47.133 18.039 45.7821 15.8369 44.1695 13.9568ZM47.0188 113.794C47.5534 114.865 47.0586 113.89 47.0188 113.794V113.794ZM32.0307 33.695C29.4567 34.3574 28.2521 36.9421 29.0877 39.3913C30.0829 42.3071 33.5687 43.6933 36.2337 44.5795C37.4393 44.9803 43.8766 47.1199 42.8325 45.4757C42.9279 45.5667 43.1209 45.7712 43.3147 46.0202C43.2398 46.5769 43.1725 47.1348 43.1122 47.6931C43.0665 47.699 43.0256 47.7087 42.9774 47.7134C43.0277 47.7128 43.066 47.7053 43.1113 47.7023C42.5124 53.2835 42.6478 58.8967 43.5713 64.4858C42.7014 63.6322 41.7518 62.8628 40.7137 62.2595C37.6397 60.4724 29.7372 60.1012 31.538 65.9654C33.265 71.5875 40.5732 69.4377 44.7869 70.4996C46.354 77.4769 48.4088 84.3979 50.7391 91.2335C50.4316 91.2036 50.1182 91.2798 49.8647 91.4977C48.4692 89.8426 47.1635 87.7675 45.6663 86.7211C43.5055 85.2118 38.7667 82.8439 36.0719 84.2086C32.7578 85.8864 34.2242 89.0112 36.6192 90.6172C40.0921 92.946 45.824 93.1959 49.9909 93.4893C50.3758 93.7392 50.8817 93.81 51.2941 93.5921C51.3857 93.5998 51.477 93.608 51.5659 93.6159C53.9627 100.451 56.6002 107.196 59.2536 113.825C59.2054 113.801 59.1574 113.777 59.1071 113.753C58.2349 112.449 57.2147 111.25 55.9545 110.314C53.0412 108.146 49.2204 106.522 45.5878 107.756C41.9698 108.984 39.305 112.683 40.9082 116.463C44.1172 124.028 57.2126 115.427 60.168 116.089C62.8855 122.775 66.0038 129.268 69.2377 135.705C68.7378 135.287 68.2036 134.909 67.6197 134.594C62.8647 132.019 48.6574 133.166 52.2066 141.721C55.2996 149.176 65.6828 141.749 71.44 140.053C74.5061 146.075 77.6098 152.08 80.5134 158.183C78.2606 156.434 75.8495 155.295 72.78 154.964C69.6033 154.623 64.159 154.824 64.3281 159.38C64.5003 164.013 70.7016 164.565 74.0634 164.542C75.8969 164.529 79.9618 163.587 83.0934 163.791C87.5491 173.95 90.7095 184.398 91.7246 195.559C92.3582 202.528 92.0939 209.574 91.0749 216.499C90.4246 220.92 89.6337 228.472 87.0292 233.48C93.3731 223.934 95.1274 209.984 95.2595 199.105C95.3813 189.101 93.3287 179.403 90.0645 170.074C93.5567 166.107 109.303 164.922 103.395 157.358C100.253 153.351 94.4564 155.335 91.8702 158.941C90.0934 161.42 89.5733 165.26 89.4426 168.341C88.3879 165.472 87.2291 162.637 85.9815 159.842C84.2573 155.979 82.4322 152.164 80.5655 148.369C87.3516 145.866 97.4692 134.776 91.8644 129.887C83.5842 122.675 80.6769 142.418 79.9352 146.035C80.1208 146.127 80.2936 146.132 80.4549 146.055C80.2716 146.337 80.0706 146.637 79.8551 146.934C76.2714 139.697 72.5637 132.521 69.134 125.213C69.7886 125.055 71.1777 123.983 72.118 123.498C74.2394 122.404 76.3319 121.209 78.1522 119.65C81.028 117.185 84.6361 112.838 81.2988 109.257C77.671 105.359 73.1568 110.092 71.7015 113.44C70.6953 115.755 70.3927 118.231 69.757 120.649C69.559 121.404 67.8049 124.438 69.3568 123.471C69.0959 123.959 68.9334 124.325 68.8455 124.595C68.2316 123.279 67.6296 121.956 67.0365 120.629C67.1306 120.533 67.2174 120.422 67.2867 120.279C67.7638 119.3 66.9191 118.486 66.0877 118.48C65.3157 116.705 64.5629 114.919 63.8434 113.118C62.318 109.302 60.7864 105.393 59.2985 101.433C60.0928 101.179 60.1547 100.389 60.9243 100.088C61.6925 99.7888 62.8876 99.9495 63.7354 99.7282C65.8683 99.1709 67.9665 97.9313 69.6834 96.5638C72.5189 94.3039 77.185 89.0198 73.1265 85.6503C68.9443 82.175 64 87.0697 62.1218 90.644C61.7577 91.3363 59.5548 98.0313 58.9712 100.554C56.2276 93.2039 53.6493 85.6917 51.5702 78.2793C52.9173 78.8354 57.8862 77.6983 58.9731 77.274C61.6248 76.2394 66.3208 73.4605 63.9376 69.9271C61.8166 66.7901 57.0465 68.0108 54.6638 70.1519C54.2719 70.5046 51.8123 74.2912 50.9774 76.104C50.1408 72.9798 49.3944 69.8775 48.7729 66.8191C48.3564 64.7844 48.0285 62.7381 47.7805 60.6851C48.0634 60.6525 48.3736 60.5179 48.6952 60.3234C53.9245 61.5626 63.3696 56.5864 58.7615 51.51C56.5668 49.0946 52.5066 50.4404 50.2684 52.0023C49.8101 52.3217 48.4391 54.3228 47.3465 55.8965C46.9378 49.2703 47.3081 42.5956 48.2384 35.9852C48.7078 36.0597 49.2049 35.8877 49.4887 35.3498C52.4294 35.0031 54.7762 34.6713 57.5299 32.7753C59.2404 31.5978 62.6516 28.6968 60.0128 26.5228C56.5786 23.6937 51.5693 28.6475 49.9959 31.4662C49.8132 31.7934 49.3918 32.7915 49.0174 33.7112C48.8889 33.6348 48.7502 33.5785 48.6049 33.5451C49.2609 29.4858 50.119 25.4563 51.1271 21.4829C53.5633 21.7013 58.7046 10.5997 57.9565 8.39178C56.287 3.45034 51.8389 7.68184 50.848 10.4945C49.6801 13.8111 49.8988 17.371 50.537 20.7185C50.607 21.0741 50.5593 21.038 50.7708 20.6737C50.717 20.8753 50.7212 21.0427 50.7725 21.1843C49.9618 22.8471 49.0485 24.5143 48.495 26.0551C46.91 30.4677 45.5751 35.0159 44.5012 39.5796C44.24 40.6896 44.0082 41.802 43.8047 42.916C42.7037 40.7179 40.9331 38.4292 40.1969 37.6362C38.2856 35.5789 35.1333 32.8964 32.0307 33.695ZM87.2998 233.612C86.5534 235.069 85.6991 236.33 84.7117 237.25C85.639 236.119 86.4995 234.899 87.2998 233.612Z" fill="#F2F2F2"/>
</g>
</svg>
