<svg width="118" height="213" viewBox="0 0 118 213" fill="none" xmlns="http://www.w3.org/2000/svg">
<path fill-rule="evenodd" clip-rule="evenodd" d="M62.3096 100.604L39.3155 158.978L23.8933 208.328L17.8033 208.328L41.3805 100.604L62.3096 100.604Z" fill="#D2B090"/>
<path fill-rule="evenodd" clip-rule="evenodd" d="M66.9391 100.604C67.184 121.117 70.7548 148.735 71.3253 150.013C71.7057 150.866 84.8355 161.706 110.715 182.535L106.52 187.037C75.9852 169.179 60.011 159.059 58.598 156.677C56.4785 153.105 49.578 120.229 44.0379 100.604L66.9391 100.604Z" fill="#E7C4A3"/>
<path fill-rule="evenodd" clip-rule="evenodd" d="M111.278 181.032C112.686 181.531 113.657 182.005 114.189 182.452C114.836 182.997 115.69 183.9 116.75 185.161C116.121 185.914 110.459 192.682 99.7658 205.464C97.5854 204.528 96.9014 203.433 97.7137 202.18C98.526 200.926 99.1908 199.877 99.708 199.031L103.408 186.064C103.479 185.815 103.739 185.671 103.987 185.742C103.992 185.743 103.996 185.745 104 185.746L105.975 186.374C107.344 185.734 108.305 185.085 108.855 184.427C109.302 183.892 109.704 182.973 110.062 181.669L110.062 181.669C110.199 181.168 110.715 180.874 111.214 181.012C111.235 181.018 111.257 181.024 111.278 181.032Z" fill="#E4E4E4"/>
<path fill-rule="evenodd" clip-rule="evenodd" d="M26.3867 206.05C26.9108 207.453 27.1729 208.503 27.1729 209.2C27.1729 210.047 27.0321 211.284 26.7506 212.91C25.7706 212.91 16.9628 212.91 0.327143 212.91C-0.35951 210.633 0.0368653 209.403 1.51627 209.222C2.99567 209.04 4.22464 208.876 5.20317 208.73L17.4846 203.239C17.7209 203.133 17.9979 203.239 18.1032 203.476C18.105 203.48 18.1067 203.485 18.1084 203.489L18.8979 205.409C20.2674 206.05 21.3803 206.371 22.2366 206.371C22.9322 206.371 23.893 206.089 25.1188 205.525L25.1188 205.525C25.5892 205.309 26.1453 205.516 26.361 205.988C26.3703 206.008 26.3788 206.029 26.3867 206.05Z" fill="#E4E4E4"/>
<path fill-rule="evenodd" clip-rule="evenodd" d="M46.8494 203.245L17.8948 200.093L39.3536 100.604L65.2871 100.604L46.8494 203.245Z" fill="#69A1AC"/>
<path fill-rule="evenodd" clip-rule="evenodd" d="M104.727 175.271L85.7341 197.819C65.7297 175.905 54.0672 161.606 50.7463 154.923C47.4255 148.239 44.4402 130.133 41.7906 100.604L70.987 100.604C72.4344 126.582 73.41 140.175 73.9139 141.384C74.4178 142.593 84.6887 153.889 104.727 175.271Z" fill="#89C5CC"/>
<path fill-rule="evenodd" clip-rule="evenodd" d="M53.5006 28.1896C54.8764 25.1119 55.4139 21.6766 54.1919 18.3616C50.6708 8.81008 37.7619 14.919 36.5622 20.6117C35.3625 26.3044 39.3099 38.6969 42.9683 38.58C44.4273 38.5334 47.0676 36.8275 49.4916 34.1873L51.4597 47.8309L62.3627 44.6376L53.5006 28.1896Z" fill="#E7C4A3"/>
<mask id="mask0" mask-type="alpha" maskUnits="userSpaceOnUse" x="36" y="9" width="32" height="24">
<path d="M36.7197 18.4946C36.6421 17.872 36.368 17.6355 38.2641 15.2619C40.1603 12.8883 43.4339 9.78505 47.5608 9.50959C52.9166 9.15211 55.8839 11.8954 58.295 12.9453C60.4686 13.8919 62.2728 13.5481 63.8397 15.0536C65.4066 16.5592 67.476 21.6047 67.1745 23.94C66.7586 27.1613 64.5227 28.6509 62.9666 29.9997C60.2979 32.3128 55.511 32.0974 55.3337 31.8814C53.9621 30.2105 48.003 26.1093 44.7032 24.6194C42.2767 23.5238 37.084 21.4171 36.7197 18.4946Z" fill="white"/>
</mask>
<g mask="url(#mask0)">
<path fill-rule="evenodd" clip-rule="evenodd" d="M57.9998 11.7947C58.6917 17.2195 57.9256 22.5906 55.7015 27.908C58.8361 23.5669 60.2224 18.3746 59.8604 12.331L57.9998 11.7947ZM60.6014 13.18C60.8818 19.1437 58.9312 25.428 54.7496 32.0327C60.1109 26.186 62.7191 19.9035 62.5742 13.1851L60.6014 13.18Z" fill="black" fill-opacity="0.2"/>
</g>
<path fill-rule="evenodd" clip-rule="evenodd" d="M62.3665 39.0023C62.2515 38.6429 62.1348 38.2824 62.0164 37.921L61.5987 38.1246C61.5323 38.0576 61.4654 37.9923 61.398 37.9288L48.178 40.1504C48.2718 47.6218 42.4328 54.6872 38.7589 60.7491C33.0479 70.1725 22.807 80.6668 29.631 94.473C35.7797 106.913 51.4119 108.748 76.5276 99.9789C76.4429 93.2377 70.8337 86.5306 70.5547 78.336C70.2892 70.5351 68.5376 46.9118 62.3665 39.0023Z" fill="#F19259"/>
<path fill-rule="evenodd" clip-rule="evenodd" d="M46.559 90.71C45.6156 86.1359 45.0025 83.082 44.7197 81.5483C37.7634 89.6357 33.7374 93.7327 32.6419 93.8393C30.5815 94.0399 29.0343 92.2246 28.6069 92.7458C27.9164 94.8908 30.0094 100.212 33.8916 100.94C35.7454 101.288 38.5589 97.4273 39.7208 96.0572C40.1778 95.5183 42.4572 93.7359 46.559 90.71ZM34.0625 66.4172C32.2332 66.4403 31.2601 67.2112 30.1977 68.7553C29.1353 70.2993 28.2025 77.5299 29.939 77.5079C31.6756 77.486 38.9162 74.604 38.8926 72.7283C38.8691 70.8525 33.8946 70.1209 33.8769 68.7088C33.8592 67.2967 35.8918 66.3941 34.0625 66.4172Z" fill="#E7C4A3"/>
<path fill-rule="evenodd" clip-rule="evenodd" d="M50.3401 97.6407C50.4537 98.0295 50.5694 98.4256 50.6874 98.829C71.2304 84.0384 71.0192 66.4315 64.6075 46.7745C69.4974 66.1443 67.8105 82.5543 50.3401 97.6407Z" fill="black" fill-opacity="0.2"/>
<path fill-rule="evenodd" clip-rule="evenodd" d="M42.0491 11.9279C43.6179 11.4385 45.8952 11.2725 46.8533 11.3848C46.3083 10.0489 46.092 8.56049 46.2683 7.1113C46.4397 5.70313 47.0547 4.50412 47.6234 3.2477C47.8856 2.66858 48.1827 2.0926 48.6257 1.64964C49.077 1.19835 49.6482 0.900459 50.2472 0.758341C50.8601 0.612869 51.5011 0.624981 52.115 0.756999C52.3866 0.815393 52.6303 0.94244 52.8966 1.01306C53.1694 1.08543 53.3017 0.910757 53.4997 0.73522C53.9768 0.312258 54.6762 0.10346 55.2798 0.0287311C55.957 -0.0550723 56.6597 0.0494452 57.3056 0.277221C57.9342 0.498961 58.5381 0.859031 58.9927 1.38359C59.195 1.61709 59.3787 1.88286 59.4981 2.17629C59.5471 2.29671 59.5552 2.36804 59.6726 2.41215C59.7812 2.45299 59.9083 2.45417 60.0204 2.49304C61.1043 2.86865 62.031 3.72555 62.5357 4.82576C62.8301 5.46762 62.9695 6.59771 62.9313 7.86436C62.8931 9.131 61.7753 12.436 60.7298 13.6416C59.7965 14.7176 58.4248 15.4277 57.101 15.7385C57.9797 16.7661 58.5646 18.0502 58.9971 19.3562C59.4669 20.7748 59.7577 22.2488 59.8651 23.7507C59.9671 25.1777 59.9765 26.6867 59.6496 28.0832C59.3437 29.3891 58.6896 30.4604 57.5977 31.1401C57.0975 31.4514 56.5593 31.6853 56.0181 31.8991C55.4846 32.1097 54.9496 32.3146 54.3908 32.4328C53.3333 32.6564 52.1148 32.618 51.3002 31.7568C51.0066 31.4463 50.6837 31.0562 50.4695 30.6769C50.3925 30.5405 50.346 30.4513 50.4396 30.318C50.5517 30.1583 50.733 30.0359 50.877 29.911C51.6982 29.1988 52.2065 28.248 52.3346 27.1181C52.4646 25.9716 52.1636 24.4918 51.0742 23.9915C49.7294 23.3739 48.2485 24.0828 47.0532 24.7436C46.5452 22.9093 45.5022 21.2576 43.867 20.4162C42.0578 19.4853 39.9818 19.3764 38.1227 18.5777C37.6382 18.3696 37.1448 18.1333 36.7881 17.7093C36.639 17.532 36.4641 17.3021 36.4046 17.0677C36.3264 16.7598 36.5205 16.5016 36.6705 16.2616C37.4655 14.9888 40.4802 12.4174 42.0491 11.9279Z" fill="#AE8F53"/>
</svg>
