<svg width="78" height="78" viewBox="0 0 78 78" fill="none" xmlns="http://www.w3.org/2000/svg">
<path d="M76.5 10.5H70.0032L70 8.99805C69.999 8.44629 69.5513 8 69 8H64C62.0684 8 60.5215 6.63477 58.7305 5.05469C56.3105 2.91992 53.5679 0.5 49 0.5C43.343 0.5 40.3452 3.06433 39 4.71582C37.6548 3.06433 34.657 0.5 29 0.5C24.4321 0.5 21.6895 2.91992 19.2695 5.05469C17.4785 6.63477 15.9316 8 14 8H9C8.44873 8 8.00098 8.44629 8 8.99805L7.99683 10.5H1.5C0.947754 10.5 0.5 10.9473 0.5 11.5V74C0.5 74.5527 0.947754 75 1.5 75H33V76.5C33 77.0527 33.4478 77.5 34 77.5H39H44C44.5522 77.5 45 77.0527 45 76.5V75H76.5C77.0522 75 77.5 74.5527 77.5 74V11.5C77.5 10.9473 77.0522 10.5 76.5 10.5ZM29 2.5C35.1564 2.5 37.52 5.92944 38 6.75452V37.6953C36.0082 34.8607 32.7198 33 29 33C25.2802 33 21.9918 34.8607 20 37.6953V17.5H24C24.5522 17.5 25 17.0527 25 16.5C25 15.9473 24.5522 15.5 24 15.5H19C18.4478 15.5 18 15.9473 18 16.5V44C18 50.0654 22.9346 55 29 55C32.7198 55 36.0082 53.1393 38 50.3047V63.6583C36.3643 62.1521 33.5394 60.5 29 60.5C24.4321 60.5 21.6895 62.9199 19.2695 65.0547C17.4785 66.6348 15.9316 68 14 68H9.87549L9.99481 11.5256C9.99506 11.5166 10 11.5091 10 11.5C10 11.4911 9.99518 11.4837 9.99493 11.4749L9.99805 10H14C16.6875 10 18.5845 8.32617 20.5928 6.55469C22.8521 4.56152 25.1885 2.5 29 2.5ZM49 2.5C52.8115 2.5 55.1479 4.56152 57.4072 6.55469C59.4155 8.32617 61.3125 10 64 10H68.002L68.0051 11.4749C68.0048 11.4837 68 11.4911 68 11.5C68 11.5091 68.0049 11.5166 68.0052 11.5256L68.1245 68H64C62.0684 68 60.5215 66.6348 58.7305 65.0547C56.3105 62.9199 53.5679 60.5 49 60.5C44.4606 60.5 41.6357 62.1521 40 63.6583V50.3047C41.9918 53.1393 45.2802 55 49 55C55.0654 55 60 50.0654 60 44V16.5C60 15.9473 59.5522 15.5 59 15.5H54C53.4478 15.5 53 15.9473 53 16.5C53 17.0527 53.4478 17.5 54 17.5H58V37.6953C56.0082 34.8607 52.7198 33 49 33C45.2802 33 41.9918 34.8607 40 37.6953V6.75482C40.4758 5.94672 42.865 2.5 49 2.5ZM40 44C40 39.0371 44.0376 35 49 35C53.9624 35 58 39.0371 58 44C58 48.9629 53.9624 53 49 53C44.0376 53 40 48.9629 40 44ZM38 44C38 48.9629 33.9624 53 29 53C24.0376 53 20 48.9629 20 44C20 39.0371 24.0376 35 29 35C33.9624 35 38 39.0371 38 44ZM75.5 73H44C43.4478 73 43 73.4473 43 74V75.5H39H35V74C35 73.4473 34.5522 73 34 73H2.5V12.5H7.99261L7.87354 68.998C7.87305 69.2637 7.97803 69.5186 8.16553 69.7061C8.35352 69.8945 8.60791 70 8.87354 70H14C16.6875 70 18.5845 68.3262 20.5928 66.5547C22.8521 64.5615 25.1885 62.5 29 62.5C35.8467 62.5 38.0107 66.7539 38.0967 66.9287C38.1164 66.9702 38.1514 66.997 38.1758 67.0344C38.2085 67.085 38.2343 67.1379 38.2761 67.1823C38.2899 67.197 38.3033 67.2103 38.3179 67.2241C38.3616 67.2652 38.4135 67.2903 38.4631 67.3226C38.5011 67.3476 38.5286 67.3832 38.5708 67.4033C38.5775 67.4065 38.5848 67.4055 38.5915 67.4084C38.6077 67.4157 38.6237 67.421 38.6403 67.4274C38.6989 67.4501 38.7608 67.4542 38.8228 67.4656C38.8748 67.475 38.925 67.4943 38.9771 67.4954C38.9852 67.4955 38.9919 67.5 39 67.5C39.0076 67.5 39.0139 67.4958 39.0214 67.4957C39.0763 67.4946 39.1293 67.4745 39.1841 67.4642C39.243 67.4528 39.3022 67.4493 39.358 67.4277C39.3751 67.4211 39.3918 67.416 39.4085 67.4084C39.4152 67.4055 39.4225 67.4065 39.4292 67.4033C39.4727 67.3826 39.501 67.3461 39.54 67.3203C39.5881 67.2888 39.6388 67.2645 39.6813 67.2247C39.6962 67.2106 39.7099 67.1972 39.7239 67.1823C39.766 67.1376 39.7919 67.0845 39.8247 67.0335C39.8489 66.9964 39.8837 66.9698 39.9033 66.9287C39.9243 66.8848 42.0869 62.5 49 62.5C52.8115 62.5 55.1479 64.5615 57.4072 66.5547C59.4155 68.3262 61.3125 70 64 70H69.1265C69.3921 70 69.6465 69.8945 69.8345 69.7061C70.022 69.5186 70.127 69.2637 70.1265 68.998L70.0074 12.5H75.5V73Z" fill="white"/>
</svg>
