<svg width="61" height="62" viewBox="0 0 61 62" fill="none" xmlns="http://www.w3.org/2000/svg">
<path d="M34.2527 28.68V36.382C34.2527 38.1472 35.6892 39.5838 37.4552 39.5838H40.3497C42.1156 39.5838 43.5522 38.1472 43.5522 36.382V28.68C43.5522 28.2583 43.2113 27.9175 42.7897 27.9175H35.0152C34.5935 27.9175 34.2527 28.2583 34.2527 28.68ZM35.7777 29.4425H42.0272V31.3785H35.7777V29.4425ZM35.7777 32.9035H42.0272V36.382C42.0272 37.3069 41.2746 38.0588 40.3497 38.0588H37.4552C36.5303 38.0588 35.7777 37.3069 35.7777 36.382V32.9035V32.9035Z" fill="white"/>
<path d="M60.4072 1.50645C60.8182 1.41266 61.0744 1.00396 60.9806 0.593737C60.8869 0.181986 60.4705 -0.0749781 60.0679 0.0203346C29.9773 6.90116 1.22944 0.0920101 0.942739 0.0226224C0.530988 -0.079553 0.121524 0.17436 0.0216363 0.583061C-0.077489 0.992525 0.173374 1.40504 0.582075 1.50416C0.709413 1.53466 6.31991 2.86599 15.1352 3.77795L16.375 12.1662C11.5179 13.7644 3.73807 16.9288 3.73807 20.8115V35.0283C3.73807 35.3288 3.91421 35.601 4.18795 35.7237L11.5979 39.0536V60.239C11.5979 60.6606 11.9388 61.0015 12.3604 61.0015H48.6182C49.0399 61.0015 49.3807 60.6606 49.3807 60.239V39.0536L56.7915 35.7237C57.0644 35.601 57.2413 35.328 57.2413 35.0283V20.8115C57.2413 17.0646 49.9938 13.9863 45.1214 12.3393L46.3818 3.82065C50.956 3.32959 55.6622 2.59226 60.4072 1.50645ZM31.2995 4.61746C35.5672 4.61746 40.114 4.43065 44.8156 3.98306L43.6505 11.8597C42.7225 11.5692 41.96 11.3519 41.4568 11.2131C41.5651 10.9485 41.5246 10.6443 41.3333 10.4247L39.0114 7.77193C38.9779 7.73152 38.9398 7.69492 38.8971 7.66137V7.66061C38.8963 7.66061 38.8963 7.65985 38.8955 7.65985C38.8955 7.65985 38.8948 7.65908 38.894 7.65908V7.65832C38.8932 7.65832 38.8925 7.65756 38.8925 7.65756C38.8925 7.65756 38.8925 7.65756 38.8917 7.6568L38.891 7.65603H38.8902C38.8894 7.65527 38.8894 7.65527 38.8887 7.65451H38.8871C38.7468 7.54852 38.5959 7.49591 38.4197 7.49972H22.3927C22.241 7.48905 22.0732 7.547 21.9352 7.64688C21.9253 7.65375 21.9169 7.66137 21.907 7.66823L21.9062 7.669C21.8673 7.70026 21.8323 7.73457 21.8018 7.77117L19.4792 10.4247C19.2779 10.655 19.2397 10.9813 19.3709 11.255C18.9774 11.3641 18.4612 11.512 17.8474 11.6988L16.6991 3.93045C20.9767 4.33 25.9177 4.61746 31.2995 4.61746ZM23.9352 9.02473H36.878L30.4074 17.4344L23.9352 9.02473ZM29.0692 18.1969L26.4439 20.8801L20.9805 11.0263L22.3485 9.46316L29.0692 18.1969ZM38.464 9.46316L39.8311 11.0263L34.3678 20.8801L31.7433 18.1976L38.464 9.46316ZM55.7156 20.8115V34.535L49.3799 37.3814V29.6969C49.3799 29.2753 49.0391 28.9344 48.6174 28.9344C48.1958 28.9344 47.8549 29.2753 47.8549 29.6969V59.4765H13.123V29.6969C13.123 29.2753 12.7821 28.9344 12.3604 28.9344C11.9388 28.9344 11.5979 29.2753 11.5979 29.6969V37.3814L5.26308 34.535V20.8115C5.26308 17.7333 14.2568 14.2029 20.1258 12.6306L25.6059 22.5142C25.7225 22.7238 25.9322 22.868 26.1709 22.9C26.2052 22.9046 26.2395 22.9068 26.2731 22.9068C26.4774 22.9068 26.6734 22.8253 26.8183 22.6773L30.4058 19.0112L33.9934 22.6773C34.1619 22.8489 34.3968 22.9312 34.6408 22.9C34.8787 22.868 35.0891 22.7246 35.2058 22.5142L40.708 12.5917C46.5716 14.1442 55.7156 17.7073 55.7156 20.8115Z" fill="white"/>
</svg>
