<svg width="58" height="58" viewBox="0 0 58 58" fill="none" xmlns="http://www.w3.org/2000/svg">
<path d="M57.2605 24.2208H35.9955L37.6066 22.6946C38.5053 21.8454 38.5072 20.4593 37.6113 19.6075L36.6287 18.6718C35.7583 17.8422 34.2317 17.8414 33.3589 18.6682L31.6264 20.3086V7.42661C31.6264 5.44285 30.8134 3.58129 29.3373 2.18267C27.8502 0.775129 25.8776 0 23.7825 0C19.466 0 15.9541 3.33154 15.9541 7.42661V9.30423C15.9541 9.68242 16.2781 9.98927 16.6776 9.98927H20.5315C20.9309 9.98927 21.255 9.68242 21.255 9.30423V7.44178C21.255 6.81115 21.5244 6.1939 21.9945 5.7488C22.4646 5.3037 23.116 5.0486 23.7825 5.0486C25.1762 5.0486 26.31 6.12254 26.31 7.44178V20.2591L24.6397 18.6709C23.7679 17.8431 22.2432 17.8405 21.3704 18.6673L20.3817 19.603C19.4798 20.4579 19.4781 21.8418 20.3855 22.6982L21.9994 24.2208H0.723493C0.324071 24.2208 0 24.5276 0 24.9058V25.0253C0 33.1682 3.78233 40.8419 10.3767 46.0769C10.5071 46.1804 10.6715 46.2375 10.8416 46.2375H24.0888L22.5182 57.2231C22.49 57.4193 22.5531 57.6164 22.6902 57.7654C22.8277 57.9144 23.0265 58 23.2351 58H34.7649C34.7719 58 34.7776 58 34.7842 58C35.1836 58 35.5077 57.6932 35.5077 57.315C35.5077 57.2284 35.4907 57.1455 35.4596 57.0697L33.9113 46.2375H47.142C47.3115 46.2375 47.4764 46.1804 47.6064 46.0778C54.212 40.8339 58 33.1611 58 25.0253C58 24.9781 57.9944 24.9183 57.984 24.9058C57.984 24.5276 57.6599 24.2208 57.2605 24.2208ZM34.3824 19.6369C34.7079 19.3265 35.2769 19.3292 35.6028 19.6378L36.5854 20.5735C36.9198 20.8919 36.9189 21.4084 36.5835 21.7259L33.95 24.2208H31.6264V22.2459L34.3824 19.6369ZM23.7825 3.67852C22.7354 3.67852 21.7109 4.07991 20.9714 4.78011C20.2319 5.48031 19.808 6.4499 19.808 7.44178V8.61919H17.401V7.42661C17.401 4.08704 20.2639 1.37008 23.7825 1.37008C25.4913 1.37008 27.1004 2.00249 28.3142 3.15136C29.5172 4.29042 30.1795 5.80945 30.1795 7.42661C30.1795 11.705 30.1795 19.9511 30.1795 24.2208H27.757C27.757 19.9462 27.757 11.7409 27.757 7.44178C27.757 5.36703 25.9741 3.67852 23.7825 3.67852ZM21.4066 21.7277C21.0689 21.4088 21.0675 20.8915 21.4052 20.5717L22.3934 19.636C22.7194 19.3265 23.287 19.3274 23.6143 19.6378L26.31 22.2004V24.2208H24.0495L21.4066 21.7277ZM33.9368 56.6299H24.0632L25.5488 46.2375H32.4512L33.9368 56.6299ZM46.8772 44.8674C34.9039 44.8674 24.1528 44.8674 11.1068 44.8674C5.1158 40.0195 1.62221 33.0344 1.45359 25.5909C11.9756 25.5909 46.1095 25.5909 56.5464 25.5909C56.3778 33.0273 52.8781 40.0124 46.8772 44.8674Z" fill="white"/>
<path d="M47.4067 39.9346C49.3059 37.8358 50.7783 35.447 51.7826 32.8353C51.9192 32.4794 51.7251 32.0861 51.3502 31.9567C50.9724 31.8283 50.5598 32.012 50.4222 32.3662C49.4783 34.8236 48.0944 37.0696 46.3083 39.0426C46.0483 39.3298 46.0832 39.7624 46.3865 40.0086C46.69 40.2544 47.1459 40.2222 47.4067 39.9346Z" fill="white"/>
<path d="M43.8881 6.67017H42.2678V8.04024H43.8881V6.67017Z" fill="white"/>
<path d="M49.4311 6.67017H47.8098V8.04024H49.4311V6.67017Z" fill="white"/>
<path d="M46.573 3.96484H45.126V5.49905H46.573V3.96484Z" fill="white"/>
<path d="M46.573 9.2124H45.126V10.7466H46.573V9.2124Z" fill="white"/>
<path d="M25.7579 34.6277L22.4725 32.9267L20.6751 29.8146C20.4203 29.3748 19.6591 29.3748 19.4052 29.8155L17.6083 32.9267L14.3229 34.6277C14.0907 34.7481 13.9465 34.9782 13.9465 35.2289C13.9465 35.4795 14.0907 35.7096 14.3229 35.8301L17.6083 37.532L19.4052 40.6432C19.5324 40.8626 19.7754 40.9991 20.0402 40.9991C20.3044 40.9991 20.5479 40.8626 20.6751 40.6432L22.4725 37.532L25.7579 35.8301C25.9901 35.7096 26.1343 35.4795 26.1343 35.2289C26.1343 34.9782 25.9901 34.7481 25.7579 34.6277ZM21.5922 36.4259C21.4707 36.4892 21.3708 36.5838 21.3044 36.698L20.0402 38.8869L18.7764 36.698C18.71 36.5838 18.6101 36.4892 18.4886 36.4259L16.1778 35.2289L18.4886 34.0327C18.6101 33.9694 18.71 33.8748 18.7764 33.7598L20.0402 31.5718L21.3044 33.7607C21.3708 33.8748 21.4707 33.9694 21.5922 34.0327L23.903 35.2289L21.5922 36.4259Z" fill="white"/>
</svg>
