<svg width="140" height="159" viewBox="0 0 140 159" fill="none" xmlns="http://www.w3.org/2000/svg">
<path fill-rule="evenodd" clip-rule="evenodd" d="M83.5012 20.8761C85.666 18.335 87.1312 15.221 86.8863 11.7316C86.1809 1.67762 72.1855 3.88936 69.4631 8.96373C66.7407 14.0381 67.0642 26.9096 70.5826 27.8166C71.9858 28.1783 74.9749 27.2923 78.0172 25.4586L76.1076 38.968H87.3828L83.5012 20.8761Z" fill="#B28B67"/>
<path fill-rule="evenodd" clip-rule="evenodd" d="M65.2895 4.78194C65.4821 4.08866 66.0003 3.49508 66.6986 3.31897C66.8679 3.27626 67.0428 3.25901 67.217 3.2662C67.2795 3.26875 67.2971 3.28721 67.3263 3.24246C67.3479 3.20928 67.3484 3.12823 67.3573 3.08924C67.3851 2.968 67.4198 2.84827 67.4626 2.73164C67.6087 2.33386 67.8543 1.98181 68.1503 1.68525C68.7039 1.13045 69.452 0.747544 70.2292 0.678271C70.6545 0.640377 71.0768 0.711135 71.4789 0.852808C71.6871 0.926146 71.889 1.01747 72.0857 1.11843C72.1449 1.14882 72.3369 1.29766 72.3963 1.28802C72.462 1.27738 72.5938 1.11043 72.6472 1.06852C73.3067 0.550489 74.121 0.346815 74.9425 0.353044C75.8696 0.360054 76.7624 0.407487 77.5357 0.986167C77.6994 1.10868 77.8553 1.24283 78.0037 1.38406C78.0819 1.45841 78.1576 1.53555 78.2298 1.6159C78.2733 1.66438 78.3158 1.71395 78.3566 1.76485C78.4259 1.85124 78.4148 1.87962 78.5118 1.81934C78.8839 1.58786 79.3152 1.4796 79.7495 1.53425C80.0074 1.56672 80.2584 1.646 80.4967 1.75036C80.5778 1.78588 80.7656 1.92758 80.8521 1.92896C80.9378 1.93031 81.123 1.79896 81.2113 1.76558C81.6886 1.5852 82.203 1.54074 82.7046 1.62409C83.222 1.71009 83.7303 1.92145 84.1687 2.21353C84.3796 2.35403 84.5635 2.5097 84.7113 2.71861C84.7751 2.80881 84.8328 2.90422 84.9051 2.98786C84.9474 3.03683 85.0313 3.08707 85.054 3.14905C85.0404 3.11194 85.6199 2.88322 85.6745 2.8686C85.9659 2.7907 86.2625 2.80649 86.5478 2.90261C87.0842 3.08335 87.5455 3.48866 87.9246 3.90422C88.1194 4.11767 88.2898 4.35361 88.4344 4.60498C88.5038 4.72538 88.5672 4.84923 88.6252 4.97571C88.6533 5.03698 88.6719 5.11363 88.7089 5.16883C88.7566 5.23995 88.7887 5.24131 88.8752 5.27232C89.3142 5.42979 89.7144 5.69632 90.0191 6.05647C90.3274 6.42085 90.5274 6.86955 90.6113 7.34208C90.6162 7.36992 90.6191 7.48527 90.6351 7.50033C90.6569 7.52108 90.7452 7.5119 90.7786 7.51592C90.8942 7.52981 91.009 7.55048 91.1223 7.57794C91.3312 7.62856 91.5345 7.70304 91.7268 7.80046C92.4765 8.18021 93.0125 8.89215 93.2749 9.69324C93.5502 10.5339 93.5453 11.4971 93.2163 12.3221C93.1632 12.4554 93.0999 12.5847 93.0256 12.7071C92.98 12.7822 92.9653 12.7824 92.9949 12.8612C93.0279 12.9489 93.0882 13.0341 93.1274 13.1197C93.2553 13.3993 93.3447 13.6958 93.4012 13.9987C93.4938 14.4954 93.5398 15.0175 93.4484 15.518C93.4059 15.7504 93.332 15.9776 93.2192 16.1847C93.1616 16.2902 93.0943 16.3903 93.0183 16.4829C92.9789 16.531 92.937 16.5769 92.8932 16.6209C92.8681 16.646 92.8352 16.668 92.8139 16.6961C92.7619 16.7645 92.751 16.7083 92.7778 16.8088C92.8153 16.9493 92.9003 17.0879 92.9524 17.2246C93.0061 17.3655 93.0546 17.5083 93.0989 17.6525C93.1888 17.9446 93.2647 18.2419 93.3122 18.5444C93.4035 19.1251 93.3874 19.7438 93.1192 20.2767C93.0045 20.5047 92.8399 20.7047 92.6403 20.8602C92.5426 20.9363 92.4368 21.0019 92.3258 21.0558C92.2688 21.0835 92.196 21.0954 92.17 21.1519C92.142 21.2126 92.1835 21.3332 92.193 21.4011C92.2755 21.9917 92.3169 22.6118 92.1454 23.1906C91.9874 23.7237 91.6397 24.1944 91.1882 24.506C90.3124 25.1105 89.1318 25.0765 88.2115 24.5925C87.9716 24.4663 87.7472 24.3097 87.547 24.125C87.0372 24.8276 85.9881 24.8054 85.243 24.6051C84.3148 24.3557 83.5699 23.6949 83.1408 22.8266C82.554 23.558 81.3225 23.3207 80.9155 22.5273C80.8159 22.3331 80.7569 22.119 80.7278 21.9025C80.7125 21.7886 80.7222 21.6737 80.7107 21.5607C80.6961 21.4167 80.6021 21.2768 80.5482 21.1376C80.443 20.8665 80.3777 20.5865 80.3749 20.2942C80.3735 20.1415 80.3923 19.9928 80.4065 19.8414C80.4193 19.7051 80.3823 19.5781 80.3614 19.4435C80.5994 19.4837 80.8895 19.4179 81.1138 19.3472C81.3339 19.2779 81.54 19.0952 81.6954 18.9284C82.0561 18.541 82.2765 18.0332 82.4272 17.5278C82.758 16.4185 82.6224 15.0876 81.5326 14.4788C81.025 14.1952 79.504 14.1961 78.8994 14.3363C78.2636 14.4836 77.5429 15.9199 77.5074 16.0549C77.4854 16.1385 77.4965 16.2419 77.4215 16.2976C77.2568 16.42 76.985 16.2076 76.8635 16.1027C76.6538 15.9218 76.5042 15.681 76.3747 15.437C76.0924 14.9053 75.8648 14.3351 75.7041 13.7531C75.5801 13.3044 75.5009 12.8416 75.3389 12.4043C75.1777 11.9692 74.9237 11.5803 74.5286 11.3338C74.0988 11.0656 73.6062 10.9244 73.1344 10.7559C72.6668 10.5889 72.2072 10.3848 71.8447 10.0304C71.765 9.95248 71.6875 9.86968 71.6234 9.77794C71.5727 9.70551 71.5227 9.56686 71.4455 9.52094C71.3255 9.44951 71.1505 9.63528 71.0467 9.70273C70.5349 10.0355 70.1079 10.4997 69.7635 11.0068C69.421 11.5111 69.14 11.9963 68.9117 12.5594C68.7423 12.9771 68.6366 13.5119 68.3387 13.8542C68.2057 14.007 67.217 14.0995 66.8968 13.9661C66.5766 13.8326 66.2177 13.4862 66.1102 13.2691C66.0002 13.0468 65.9739 12.8027 66.0209 12.5594C66.0486 12.4163 66.1051 12.2826 66.136 12.142C66.162 12.0239 66.1856 11.9123 66.2417 11.8041C66.3481 11.5991 66.5299 11.4518 66.7491 11.3902C66.521 11.1748 66.3319 10.9172 66.2011 10.6292C66.0652 10.33 65.95 9.96616 65.9173 9.63778C65.8908 9.37106 65.9318 9.09473 66.0744 8.86551C66.224 8.62506 66.489 8.4682 66.7183 8.31821C66.3681 8.03763 66.0683 7.6964 65.8218 7.3186C65.3426 6.58392 65.0461 5.65783 65.2895 4.78194Z" fill="#191847"/>
<path fill-rule="evenodd" clip-rule="evenodd" d="M23.7199 154.379C29.7393 141.056 34.0925 129.455 35.8399 123.335C38.8318 112.855 41.1079 103.633 41.6831 100.189C43.0549 91.9765 31.1305 91.4983 29.5544 95.5797C27.1688 101.757 23.0041 122.053 17.9999 152.71L23.7199 154.379ZM93.542 112.568C88.0191 110.385 68.6785 103.554 59.3505 101.621C56.67 101.066 54.072 100.55 51.6294 100.083C44.3691 98.6974 40.6076 111.795 47.6001 112.802C65.0142 115.308 89.7016 117.896 91.8143 118.186C94.7754 118.593 97.0129 113.94 93.542 112.568Z" fill="#B28B67"/>
<path fill-rule="evenodd" clip-rule="evenodd" d="M47.1727 96.4793L77.0459 81.2721V77.9615H73.4932C44.5922 85.326 29.8238 90.0456 29.188 92.1203C29.1812 92.1426 29.1749 92.165 29.1692 92.1874C29.1547 92.2064 29.1404 92.2256 29.1263 92.245C23.3988 100.122 19.9685 138.578 18.8427 141.458L29.818 143.095C34.0163 127.527 47.4485 116.682 47.0917 98.0356C47.188 97.4887 47.2124 96.97 47.1727 96.4793Z" fill="#2B2842"/>
<path fill-rule="evenodd" clip-rule="evenodd" d="M74.5645 105.511C77.2978 104.964 79.8149 104.475 81.9687 104.098C95.8811 101.657 99.9381 94.2102 97.5394 77.9615L71.9061 77.9615C67.7188 79.1644 45.958 88.29 34.6675 93.1438C27.1948 96.3562 29.5504 107.937 33.7822 110.951C33.8052 111.136 33.8813 111.261 34.017 111.317C56.7808 120.752 74.7891 115.802 80.8049 117.383L83.5875 108.606L74.5645 105.511Z" fill="#524F61"/>
<path fill-rule="evenodd" clip-rule="evenodd" d="M91.654 111.173C93.1454 111.316 94.2042 111.54 94.8303 111.845C95.5917 112.217 96.641 112.885 97.9781 113.852C97.5472 114.735 93.6753 122.674 86.3623 137.668C84.0144 137.288 83.0841 136.392 83.5713 134.98C84.0585 133.567 84.4514 132.387 84.7501 131.441L85.2142 117.965C85.2232 117.705 85.4406 117.502 85.6999 117.511C85.7044 117.511 85.7088 117.512 85.7132 117.512L87.7863 117.642C88.9643 116.689 89.7414 115.826 90.1179 115.054C90.4237 114.427 90.5928 113.438 90.6252 112.086L90.6252 112.086C90.6376 111.567 91.0682 111.157 91.587 111.169C91.6094 111.17 91.6317 111.171 91.654 111.173Z" fill="#E4E4E4"/>
<path fill-rule="evenodd" clip-rule="evenodd" d="M26.4587 151.909C26.9843 153.312 27.2471 154.362 27.2471 155.058C27.2471 155.906 27.1059 157.142 26.8237 158.767C25.8409 158.767 17.0084 158.767 0.326107 158.767C-0.362471 156.491 0.035017 155.262 1.51857 155.08C3.00212 154.899 4.23453 154.735 5.2158 154.589L17.5316 149.098C17.7686 148.992 18.0463 149.099 18.152 149.336C18.1538 149.34 18.1556 149.344 18.1572 149.348L18.9489 151.268C20.3223 151.909 21.4383 152.23 22.2969 152.23C22.9946 152.23 23.958 151.948 25.1872 151.384L25.1872 151.384C25.659 151.168 26.2167 151.375 26.4329 151.847C26.4422 151.867 26.4508 151.888 26.4587 151.909Z" fill="#E4E4E4"/>
<path fill-rule="evenodd" clip-rule="evenodd" d="M47.9183 65.097L30.8953 57.6212C27.9132 54.6496 25.0337 52.3911 22.2565 50.8456C21.4261 50.5812 20.0074 50.5013 21.5211 52.7122C23.0347 54.9231 24.5274 57.3166 23.9226 58.0915C23.3178 58.8663 21.5658 58.0111 20.8736 59.2711C20.4122 60.1112 23.3654 61.116 29.7335 62.2857L42.4827 72.0605L47.9183 65.097ZM116.74 67.1561L107.113 69.0663C116.795 87.109 121.987 96.6717 122.689 97.7543C124.27 100.19 122.795 104.654 122.25 107.005C125.668 107.801 124.32 102.657 128.645 103.731C132.593 104.711 135.94 107.227 139.621 103.834C140.074 103.417 140.405 102.113 138.862 101.444C135.018 99.7777 129.338 96.6578 128.417 95.4466C127.161 93.7948 123.269 84.3647 116.74 67.1561Z" fill="#B28B67"/>
<path fill-rule="evenodd" clip-rule="evenodd" d="M80.9478 31.1375L76.8854 30.4407C68.0371 39.024 64.4262 59.6451 58.5294 62.3747C52.9543 64.9554 45.0511 62.4581 35.6568 59.0861L32.7799 65.5139C41.3155 74.7483 59.4995 82.5499 66.8702 78.0961C78.6545 70.9754 81.375 45.5423 80.9478 31.1375Z" fill="#D6814E"/>
<path fill-rule="evenodd" clip-rule="evenodd" d="M98.6562 82.1896C82.3675 82.1896 70.3858 82.1896 62.7112 82.1896C61.0687 82.1896 61.3782 79.8179 61.6156 78.6211C64.3559 64.8088 75.0529 49.9198 75.0529 30.2583L85.4211 28.6324C93.997 42.425 96.9627 59.4065 98.6562 82.1896Z" fill="#DDE3E9"/>
<path fill-rule="evenodd" clip-rule="evenodd" d="M102.242 68.2052C109.569 81.4228 115.729 90.9389 120.72 96.7534L128.254 95.2777C123.401 65.1785 109.346 42.9634 86.0903 28.6324L85.9719 28.6324L81.985 28.6324C72.6771 60.3613 70.1111 81.5023 74.2869 92.0554H106.643C106.131 84.3335 104.49 76.1674 102.242 68.2052H102.242Z" fill="#F19259"/>
</svg>
