<svg width="187" height="364" viewBox="0 0 187 364" fill="none" xmlns="http://www.w3.org/2000/svg">
<path fill-rule="evenodd" clip-rule="evenodd" d="M132.22 60.1566C136.633 56.1021 139.926 50.8733 140.253 44.6015C141.196 26.5307 115.771 27.4098 109.81 35.8568C103.848 44.3038 101.608 67.3121 107.68 69.6981C110.101 70.6497 115.622 69.7249 121.444 67.1228L115.085 90.7792L135.178 93.2463L132.22 60.1566Z" fill="#915B3C"/>
<path fill-rule="evenodd" clip-rule="evenodd" d="M115.024 26.8886C117.801 26.0314 121.832 25.7407 123.528 25.9374C122.564 23.5979 122.181 20.9914 122.493 18.4535C122.796 15.9875 123.885 13.8877 124.892 11.6875C125.356 10.6733 125.882 9.66463 126.666 8.88889C127.465 8.09858 128.476 7.57691 129.536 7.32803C130.621 7.07327 131.756 7.09449 132.843 7.32568C133.323 7.42794 133.755 7.65043 134.226 7.77411C134.709 7.90083 134.943 7.59494 135.294 7.28754C136.138 6.54683 137.376 6.18118 138.445 6.05031C139.644 5.90356 140.888 6.08659 142.031 6.48548C143.144 6.87379 144.213 7.50436 145.017 8.42298C145.376 8.83189 145.701 9.29732 145.912 9.81118C145.999 10.0221 146.013 10.147 146.221 10.2242C146.413 10.2957 146.638 10.2978 146.837 10.3659C148.755 11.0237 150.396 12.5243 151.289 14.451C151.81 15.5751 152.057 17.5541 151.99 19.7723C151.922 21.9905 149.943 27.7783 148.092 29.8895C146.44 31.7739 144.012 33.0174 141.669 33.5617C143.224 35.3613 144.26 37.6101 145.025 39.8971C145.857 42.3815 146.372 44.9628 146.562 47.5929C146.742 50.0918 146.759 52.7345 146.18 55.18C145.639 57.467 144.481 59.3432 142.548 60.5334C141.663 61.0786 140.71 61.4882 139.752 61.8626C138.807 62.2315 137.86 62.5902 136.871 62.7972C134.999 63.1888 132.842 63.1216 131.4 61.6134C130.88 61.0696 130.309 60.3864 129.93 59.7222C129.793 59.4834 129.711 59.3271 129.877 59.0937C130.075 58.814 130.396 58.5998 130.651 58.381C132.105 57.1338 133.005 55.4687 133.231 53.4899C133.462 51.4822 132.929 48.8908 131 48.0146C128.62 46.933 125.998 48.1745 123.882 49.3318C122.983 46.1194 121.137 43.227 118.242 41.7535C115.039 40.1233 111.365 39.9325 108.073 38.5338C107.216 38.1693 106.342 37.7556 105.711 37.013C105.447 36.7026 105.138 36.3 105.032 35.8895C104.894 35.3502 105.237 34.8982 105.503 34.4778C106.91 32.2488 112.247 27.7457 115.024 26.8886Z" fill="#191847"/>
<path fill-rule="evenodd" clip-rule="evenodd" d="M128.299 162.209L97.4013 268.68L82.8686 348.619H68.2822L82.8426 162.209H128.299Z" fill="#784931"/>
<path fill-rule="evenodd" clip-rule="evenodd" d="M142.184 162.209C140.028 217.52 140.879 247.688 141.361 252.713C141.844 257.739 144.583 291.394 163.25 350.306H148.078C123.358 293.79 114.728 260.135 111.893 252.713C109.057 245.292 100.683 215.124 88.458 162.209H142.184Z" fill="#915B3C"/>
<path fill-rule="evenodd" clip-rule="evenodd" d="M128.962 162.209C120.925 198.846 107.025 257.328 87.2606 337.654H65.9263C64.3505 255.207 71.0538 200.943 82.6622 162.209H128.962Z" fill="#69A1AC"/>
<path fill-rule="evenodd" clip-rule="evenodd" d="M142.292 162.209C140.181 217.52 145.653 272.012 162.603 338.515H139.841C115.074 282.843 97.3236 228.62 85.1922 162.209H142.292Z" fill="#C5CFD6"/>
<path fill-rule="evenodd" clip-rule="evenodd" d="M165.412 361.272L164.575 347.776C159.674 349.21 153.535 348.647 146.159 346.089C138.228 351.707 128.243 355.543 116.206 357.598L116.206 357.598C115.287 357.754 114.67 358.626 114.826 359.544C114.837 359.604 114.85 359.663 114.866 359.721L116.024 363.802H146.159H163.738L165.412 361.272Z" fill="#191847"/>
<path fill-rule="evenodd" clip-rule="evenodd" d="M86.1245 361.272L85.2874 347.776C80.3864 349.21 74.2477 348.647 66.8714 346.089C58.9401 351.707 48.9556 355.543 36.9179 357.598L36.9179 357.598C35.9995 357.754 35.382 358.626 35.5388 359.544C35.5489 359.604 35.5623 359.663 35.5787 359.721L36.736 363.802H66.8714H84.4503L86.1245 361.272Z" fill="#191847"/>
<path fill-rule="evenodd" clip-rule="evenodd" d="M58.6429 143.061L28.7151 157.846C21.1867 158.518 14.7572 159.872 9.42657 161.908C8.1046 162.745 6.35743 164.604 11.1451 165.074C15.9327 165.544 20.9474 166.253 21.3151 167.979C21.6828 169.705 18.4846 171.128 19.4188 173.534C20.0416 175.138 24.8319 172.236 33.7897 164.827L61.9472 158.573L58.6429 143.061ZM160.259 161.671L142.889 158.679C147.506 195.169 150.055 214.548 150.536 216.816C151.618 221.918 146.271 228.456 143.845 232.048C149.063 235.582 150.115 226.087 156.675 230.672C162.663 234.857 166.655 241.231 175.012 237.909C176.039 237.501 177.434 235.527 175.277 233.413C169.904 228.144 162.39 219.256 161.626 216.632C160.583 213.054 160.128 194.733 160.259 161.671Z" fill="#915B3C"/>
<path fill-rule="evenodd" clip-rule="evenodd" d="M123.772 80.1331L116.806 77.6345C86.0962 95.9577 67.3511 138.256 30.5526 155.926L36.6968 167.058C94.6056 170.034 118.165 118.563 123.772 80.1331Z" fill="#D6814E"/>
<path fill-rule="evenodd" clip-rule="evenodd" d="M139.167 175.922C110.366 170.843 89.1812 167.108 75.6114 164.715C72.7072 164.203 73.9939 160.106 74.7869 158.064C83.9383 134.496 107.494 111.505 113.624 76.741L132.463 77.0988C143.326 104.16 143.276 135.11 139.167 175.922Z" fill="#DDE3E9"/>
<path fill-rule="evenodd" clip-rule="evenodd" d="M151.127 105.107C153.925 104.811 156.348 103.397 158.397 100.867C167.229 89.9577 165.983 82.8743 159.208 79.4236C152.433 75.9729 145.253 79.354 133.844 77.3422C133.223 77.2328 132.648 77.1715 132.118 77.1583L126.321 76.4738C100.015 129.375 88.9092 165.807 93.0025 185.768L143.026 194.588C144.771 202.022 146.582 208.337 148.458 213.533L162.089 215.936C170.685 174.685 167.031 137.741 151.127 105.107Z" fill="#F19259"/>
<path fill-rule="evenodd" clip-rule="evenodd" d="M137.187 164.008C133.292 176.893 129.051 185.996 124.462 191.315L143.026 194.588C140.99 185.917 139.044 175.724 137.187 164.008L137.187 164.008Z" fill="black" fill-opacity="0.1"/>
</svg>
