<svg width="240" height="346" viewBox="0 0 240 346" fill="none" xmlns="http://www.w3.org/2000/svg">
<g filter="url(#filter0_d)">
<path fill-rule="evenodd" clip-rule="evenodd" d="M154.596 20.5004C157.088 31.1022 159.996 54.8408 156.079 58.4151L132.097 57.5962C132.096 57.5536 132.095 57.511 132.094 57.4686C123.238 56.1814 116.582 48.4088 116.895 39.2576L117.488 21.8908C117.823 12.0711 126.055 4.38242 135.875 4.71773L137.529 4.77421C146.447 5.07871 153.607 11.8959 154.596 20.5004Z" fill="#191847"/>
<path fill-rule="evenodd" clip-rule="evenodd" d="M126.322 36.2595C122.664 31.6564 120.272 26.0867 120.913 19.959C122.759 2.30348 147.262 7.03803 151.749 16.1341C156.236 25.2301 154.893 47.8684 148.645 49.2534C146.153 49.8057 140.945 48.0664 135.7 44.6557L138.249 68.5511L118.401 67.8734L126.322 36.2595Z" fill="#D4A181"/>
<path fill-rule="evenodd" clip-rule="evenodd" d="M131.789 33.4531C132.368 43.3073 131.618 54.5124 128.802 57.0821L104.819 56.2632C104.276 33.001 116.883 42.4325 117.629 20.5735C118.461 19.8143 119.249 19.0617 120.024 18.4159L120.02 17.7721C124.463 9.41211 129.877 5.34111 136.261 5.55912C145.838 5.88612 148.708 10.4454 151.153 14.3166C149.003 20.8544 141.501 21.5786 134.724 25.4681C133.963 24.8059 132.979 24.3909 131.892 24.3538C129.38 24.268 127.274 26.2349 127.189 28.7469C127.103 31.259 129.07 33.3649 131.582 33.4507C131.651 33.453 131.72 33.4538 131.789 33.4531Z" fill="#191847"/>
<path fill-rule="evenodd" clip-rule="evenodd" d="M81.3722 216.541C101.022 222.768 118.043 226.127 132.437 226.618C146.831 227.11 160.347 223.293 172.984 215.17C153.764 208.811 137.873 205.418 125.31 204.989C112.748 204.56 98.1017 208.41 81.3722 216.541Z" fill="#D6814E"/>
<path fill-rule="evenodd" clip-rule="evenodd" d="M149.339 235.202C149.157 234.908 149.007 234.59 148.89 234.247C146.478 227.143 106.585 150.038 102.826 136.061L150.648 137.694C153.506 148.321 165.733 214.811 167.322 228.048C173.042 249.038 183.985 316.756 185.515 321.473C187.126 326.436 176.948 331.201 174.488 325.084C170.574 315.349 161.373 288.47 157.426 272.115C153.726 256.783 150.757 243.001 149.339 235.202Z" fill="#BA8B72"/>
<path fill-rule="evenodd" clip-rule="evenodd" d="M109.899 243.103C90.3122 247.348 18.9782 253.796 14.0562 255.021C8.99306 256.281 4.94941 245.796 11.2238 243.769C21.2074 240.543 48.6627 233.24 65.2532 230.443C78.5976 228.194 90.7656 226.402 98.9284 225.389C99.0194 202.56 97.7441 147.722 100.209 135.972L142.522 137.417C140.158 148.685 120.629 230.822 117.241 238.995C116.155 241.917 113.17 243.123 109.899 243.103Z" fill="#D4A181"/>
<path fill-rule="evenodd" clip-rule="evenodd" d="M11.7679 241.032C9.19147 240.461 7.29585 240.262 6.08105 240.433C4.60357 240.642 2.48234 241.193 -0.282628 242.086C-0.0403922 243.8 2.13663 259.204 6.24843 288.297C10.3882 288.937 12.4335 287.941 12.3844 285.309C12.3353 282.677 12.3174 280.487 12.3306 278.74L18.8703 255.908C18.9962 255.469 18.742 255.01 18.3027 254.885C18.2952 254.882 18.2876 254.88 18.2801 254.878L14.7359 253.971C13.2798 251.734 12.446 249.866 12.2343 248.369C12.0624 247.152 12.3163 245.403 12.9961 243.12L12.9961 243.12C13.2569 242.244 12.7583 241.322 11.8823 241.062C11.8445 241.05 11.8064 241.04 11.7679 241.032Z" fill="#E4E4E4"/>
<path fill-rule="evenodd" clip-rule="evenodd" d="M171.479 324.2C170.47 326.638 169.944 328.47 169.902 329.696C169.851 331.188 170.025 333.372 170.424 336.25C172.154 336.309 187.702 336.84 217.068 337.843C218.417 333.877 217.791 331.69 215.19 331.281C212.59 330.873 210.43 330.51 208.712 330.194L187.362 319.788C186.952 319.588 186.456 319.759 186.256 320.17C186.253 320.177 186.249 320.184 186.246 320.191L184.737 323.524C182.281 324.569 180.297 325.066 178.786 325.014C177.558 324.973 175.879 324.419 173.749 323.353L173.749 323.353C172.931 322.944 171.937 323.275 171.528 324.092C171.511 324.127 171.494 324.163 171.479 324.2Z" fill="#E4E4E4"/>
<path fill-rule="evenodd" clip-rule="evenodd" d="M100.345 135.977C119.174 131.279 136.816 131.881 153.273 137.784C158.16 164.394 171.868 175.357 172.959 215.935C144.364 228.946 110.448 203.825 81.0381 216.461C73.419 197.122 86.564 151.622 100.345 135.977Z" fill="#F19259"/>
<path fill-rule="evenodd" clip-rule="evenodd" d="M181.683 105.893L214.487 102.555C221.143 99.1445 227.236 96.8902 232.766 95.7915C234.311 95.7992 236.748 96.4442 232.985 99.3694C229.222 102.294 225.395 105.542 225.991 107.192C226.587 108.842 230.01 108.352 230.489 110.875C230.807 112.557 225.276 112.64 213.895 111.123L187.042 120.722L181.683 105.893ZM78.8538 109.949L96.9603 110.635C75.5776 154.642 64.425 177.685 63.5026 179.764C61.427 184.441 65.2298 191.802 66.829 195.742C61.1027 198.073 62.0228 188.747 54.795 191.815C48.1977 194.614 43.0708 199.92 35.7259 195.034C34.8229 194.433 33.8852 192.256 36.3847 190.664C42.612 186.7 51.6298 179.697 52.8967 177.334C54.6242 174.112 63.2766 151.65 78.8538 109.949Z" fill="#D4A181"/>
<path fill-rule="evenodd" clip-rule="evenodd" d="M130.417 54.2084L144.564 55.6371C146.977 87.3483 165.316 107.953 208.132 102.651L212.401 143.528C172.422 147.313 138.06 130.185 132.379 86.7961C130.908 75.5639 129.843 63.8906 130.417 54.2084Z" fill="#AFB9C5"/>
<path fill-rule="evenodd" clip-rule="evenodd" d="M123.563 49.8478L144.877 55.5014C143.616 92.4505 154.581 116.426 159.69 143.799L101.672 141.818C100.534 151.177 99.7025 160.808 99.1026 170.708L55.6604 169.225C67.2932 117.183 89.4547 77.37 122.145 49.7862L123.552 49.8342L123.563 49.8478Z" fill="#C5CFD6"/>
<path fill-rule="evenodd" clip-rule="evenodd" d="M112.625 89.4174C110.344 112.391 110.623 129.992 113.464 142.22L101.672 141.818C103.926 123.277 107.383 105.804 112.625 89.4174L112.625 89.4174Z" fill="black" fill-opacity="0.1"/>
</g>
<defs>
<filter id="filter0_d" x="-4.28271" y="4.70715" width="243.297" height="341.136" filterUnits="userSpaceOnUse" color-interpolation-filters="sRGB">
<feFlood flood-opacity="0" result="BackgroundImageFix"/>
<feColorMatrix in="SourceAlpha" type="matrix" values="0 0 0 0 0 0 0 0 0 0 0 0 0 0 0 0 0 0 127 0"/>
<feOffset dy="4"/>
<feGaussianBlur stdDeviation="2"/>
<feColorMatrix type="matrix" values="0 0 0 0 0 0 0 0 0 0 0 0 0 0 0 0 0 0 0.25 0"/>
<feBlend mode="normal" in2="BackgroundImageFix" result="effect1_dropShadow"/>
<feBlend mode="normal" in="SourceGraphic" in2="effect1_dropShadow" result="shape"/>
</filter>
</defs>
</svg>
