<svg width="58" height="58" viewBox="0 0 58 58" fill="none" xmlns="http://www.w3.org/2000/svg">
<path d="M52.212 0H49.3897C46.1982 0 43.6017 2.80045 43.6017 6.24306V22.4739H2.64115C1.18455 22.4739 0 23.7519 0 25.3224V26.296C0 27.8409 1.14731 29.096 2.57068 29.1373V35.2077C2.57068 39.6729 5.93879 43.3056 10.0794 43.3056H11.5636V46.4466C11.5636 48.7131 9.85368 50.5573 7.75218 50.5573C4.89518 50.5573 2.57068 53.0643 2.57068 56.1457V57.2612C2.57068 57.6691 2.87752 58 3.25572 58H44.2867H51.3235C51.7017 58 52.0086 57.6691 52.0086 57.2612V46.7741C52.0086 42.9309 52.9278 38.9797 54.9022 35.3544C56.9287 31.6708 58 27.4615 58 23.1805V6.24306C58 2.80045 55.4034 0 52.212 0ZM1.37008 26.296V25.3224C1.37008 24.5667 1.94005 23.9515 2.64115 23.9515H43.6017V27.6674C39.4737 27.6674 6.66577 27.6674 2.64115 27.6674C1.94005 27.6674 1.37008 27.0521 1.37008 26.296ZM3.94076 35.2077V29.145H43.6017V35.2077C43.6017 38.8581 40.8535 41.8279 37.4747 41.8279C29.3756 41.8279 22.5297 41.8279 10.0794 41.8279C6.6943 41.8279 3.94076 38.8581 3.94076 35.2077ZM3.94076 56.1457C3.94076 53.8792 5.65068 52.035 7.75218 52.035C10.6092 52.035 12.9337 49.5279 12.9337 46.4466V43.3056H37.4747C39.9123 43.3056 42.223 41.9769 43.6017 39.8697V56.5223H3.94076V56.1457ZM56.6299 23.1805C56.6299 27.196 55.6256 31.1451 53.723 34.6031C51.6362 38.4336 50.6385 42.6366 50.6385 46.7741V56.5223H44.9718V35.2077C44.9718 24.3053 44.9718 17.0144 44.9718 6.24306C44.9718 3.61529 46.9537 1.47767 49.3897 1.47767H52.212C54.6479 1.47767 56.6299 3.61529 56.6299 6.24306V23.1805V23.1805Z" fill="white"/>
<path d="M52.212 0H49.3897C46.1982 0 43.6017 2.80045 43.6017 6.24306V22.4739H2.64115C1.18455 22.4739 0 23.7519 0 25.3224V26.296C0 27.8409 1.14731 29.096 2.57068 29.1373V35.2077C2.57068 39.6729 5.93879 43.3056 10.0794 43.3056H11.5636V46.4466C11.5636 48.7131 9.85368 50.5573 7.75218 50.5573C4.89518 50.5573 2.57068 53.0643 2.57068 56.1457V57.2612C2.57068 57.6691 2.87752 58 3.25572 58H44.2867H51.3235C51.7017 58 52.0086 57.6691 52.0086 57.2612V46.7741C52.0086 42.9309 52.9278 38.9797 54.9022 35.3544C56.9287 31.6708 58 27.4615 58 23.1805V6.24306C58 2.80045 55.4034 0 52.212 0ZM1.37008 26.296V25.3224C1.37008 24.5667 1.94005 23.9515 2.64115 23.9515H43.6017V27.6674C39.4737 27.6674 6.66577 27.6674 2.64115 27.6674C1.94005 27.6674 1.37008 27.0521 1.37008 26.296ZM3.94076 35.2077V29.145H43.6017V35.2077C43.6017 38.8581 40.8535 41.8279 37.4747 41.8279C29.3756 41.8279 22.5297 41.8279 10.0794 41.8279C6.6943 41.8279 3.94076 38.8581 3.94076 35.2077ZM3.94076 56.1457C3.94076 53.8792 5.65068 52.035 7.75218 52.035C10.6092 52.035 12.9337 49.5279 12.9337 46.4466V43.3056H37.4747C39.9123 43.3056 42.223 41.9769 43.6017 39.8697V56.5223H3.94076V56.1457ZM56.6299 23.1805C56.6299 27.196 55.6256 31.1451 53.723 34.6031C51.6362 38.4336 50.6385 42.6366 50.6385 46.7741V56.5223H44.9718V35.2077C44.9718 24.3053 44.9718 17.0144 44.9718 6.24306C44.9718 3.61529 46.9537 1.47767 49.3897 1.47767H52.212C54.6479 1.47767 56.6299 3.61529 56.6299 6.24306V23.1805V23.1805Z" fill="white"/>
<path d="M50.7813 4.6543C49.0963 4.6543 47.7253 6.13293 47.7253 7.95019C47.7253 9.76794 49.0963 11.2466 50.7813 11.2466H50.8205C52.5055 11.2466 53.8764 9.76794 53.8764 7.95019C53.8764 6.13293 52.5055 4.6543 50.7813 4.6543ZM50.8205 9.7689H50.7813C49.8518 9.7689 49.0954 8.9531 49.0954 7.95019C49.0954 6.94776 49.8518 6.13197 50.8205 6.13197C51.7499 6.13197 52.5063 6.94776 52.5063 7.95019C52.5063 8.9531 51.7499 9.7689 50.8205 9.7689Z" fill="white"/>
<path d="M50.7813 4.6543C49.0963 4.6543 47.7253 6.13293 47.7253 7.95019C47.7253 9.76794 49.0963 11.2466 50.7813 11.2466H50.8205C52.5055 11.2466 53.8764 9.76794 53.8764 7.95019C53.8764 6.13293 52.5055 4.6543 50.7813 4.6543ZM50.8205 9.7689H50.7813C49.8518 9.7689 49.0954 8.9531 49.0954 7.95019C49.0954 6.94776 49.8518 6.13197 50.8205 6.13197C51.7499 6.13197 52.5063 6.94776 52.5063 7.95019C52.5063 8.9531 51.7499 9.7689 50.8205 9.7689Z" fill="white"/>
<path d="M3.05585 13.1394L7.38373 15.6921L9.75015 20.3594C9.87057 20.5965 10.1007 20.7437 10.3513 20.7437C10.602 20.7437 10.8321 20.5965 10.9525 20.3594L13.3198 15.6921L17.6477 13.1394C17.8672 13.0095 18.0036 12.7608 18.0036 12.491C18.0036 12.2211 17.8672 11.9724 17.6477 11.8426L13.3198 9.28982L10.9525 4.62255C10.7117 4.14828 9.99098 4.14828 9.75015 4.62255L7.38373 9.28982L3.05585 11.8426C2.83642 11.9724 2.69995 12.2211 2.69995 12.491C2.69995 12.7608 2.83642 13.0095 3.05585 13.1394ZM8.21773 10.4827C8.3319 10.4149 8.42645 10.3129 8.48978 10.1888L10.3513 6.51678L12.2138 10.1888C12.2771 10.3129 12.3717 10.4149 12.4858 10.4827L15.8914 12.491L12.4858 14.4992C12.3717 14.567 12.2771 14.669 12.2138 14.7931L10.3513 18.4651L8.48978 14.7931C8.42645 14.669 8.3319 14.567 8.21773 14.4992L4.81216 12.491L8.21773 10.4827Z" fill="white"/>
<path d="M3.05585 13.1394L7.38373 15.6921L9.75015 20.3594C9.87057 20.5965 10.1007 20.7437 10.3513 20.7437C10.602 20.7437 10.8321 20.5965 10.9525 20.3594L13.3198 15.6921L17.6477 13.1394C17.8672 13.0095 18.0036 12.7608 18.0036 12.491C18.0036 12.2211 17.8672 11.9724 17.6477 11.8426L13.3198 9.28982L10.9525 4.62255C10.7117 4.14828 9.99098 4.14828 9.75015 4.62255L7.38373 9.28982L3.05585 11.8426C2.83642 11.9724 2.69995 12.2211 2.69995 12.491C2.69995 12.7608 2.83642 13.0095 3.05585 13.1394ZM8.21773 10.4827C8.3319 10.4149 8.42645 10.3129 8.48978 10.1888L10.3513 6.51678L12.2138 10.1888C12.2771 10.3129 12.3717 10.4149 12.4858 10.4827L15.8914 12.491L12.4858 14.4992C12.3717 14.567 12.2771 14.669 12.2138 14.7931L10.3513 18.4651L8.48978 14.7931C8.42645 14.669 8.3319 14.567 8.21773 14.4992L4.81216 12.491L8.21773 10.4827Z" fill="white"/>
<path d="M24.0041 35.9344L25.9174 37.0629L26.9637 39.1259C27.0841 39.3631 27.3142 39.5103 27.5649 39.5103C27.8155 39.5103 28.0456 39.3626 28.1661 39.1259L29.2115 37.0629L31.1248 35.9344C31.3442 35.8046 31.4807 35.5559 31.4807 35.286C31.4807 35.0157 31.3442 34.7675 31.1239 34.6376L29.2115 33.5096L28.1661 31.4466C28.0456 31.2099 27.8155 31.0623 27.5649 31.0623C27.3142 31.0623 27.0841 31.2094 26.9637 31.4466L25.9174 33.5096L24.005 34.6376C23.7847 34.7675 23.6482 35.0157 23.6482 35.286C23.6482 35.5559 23.7847 35.8046 24.0041 35.9344ZM26.7505 34.7026C26.8656 34.6347 26.9601 34.5328 27.0234 34.4087L27.5649 33.3413L28.1054 34.4087C28.1687 34.5328 28.2633 34.6347 28.3784 34.7026L29.3676 35.286L28.3775 35.87C28.2633 35.9378 28.1687 36.0398 28.1054 36.1639L27.5649 37.2312L27.0234 36.1639C26.9601 36.0398 26.8656 35.9378 26.7514 35.87L25.7613 35.286L26.7505 34.7026Z" fill="white"/>
<path d="M24.0041 35.9344L25.9174 37.0629L26.9637 39.1259C27.0841 39.3631 27.3142 39.5103 27.5649 39.5103C27.8155 39.5103 28.0456 39.3626 28.1661 39.1259L29.2115 37.0629L31.1248 35.9344C31.3442 35.8046 31.4807 35.5559 31.4807 35.286C31.4807 35.0157 31.3442 34.7675 31.1239 34.6376L29.2115 33.5096L28.1661 31.4466C28.0456 31.2099 27.8155 31.0623 27.5649 31.0623C27.3142 31.0623 27.0841 31.2094 26.9637 31.4466L25.9174 33.5096L24.005 34.6376C23.7847 34.7675 23.6482 35.0157 23.6482 35.286C23.6482 35.5559 23.7847 35.8046 24.0041 35.9344ZM26.7505 34.7026C26.8656 34.6347 26.9601 34.5328 27.0234 34.4087L27.5649 33.3413L28.1054 34.4087C28.1687 34.5328 28.2633 34.6347 28.3784 34.7026L29.3676 35.286L28.3775 35.87C28.2633 35.9378 28.1687 36.0398 28.1054 36.1639L27.5649 37.2312L27.0234 36.1639C26.9601 36.0398 26.8656 35.9378 26.7514 35.87L25.7613 35.286L26.7505 34.7026Z" fill="white"/>
</svg>
