<svg width="57" height="67" viewBox="0 0 57 67" fill="none" xmlns="http://www.w3.org/2000/svg">
<path d="M56.1641 11.45H40.27V10.5814C40.27 4.74701 35.5234 0 29.6886 0H27.3114C21.4766 0 16.73 4.74701 16.73 10.5814V11.45H0.83593C0.374291 11.45 0 11.8238 0 12.2859V23.5456C0 24.0077 0.374291 24.3816 0.83593 24.3816H5.28819L7.7495 66.0728C7.77521 66.5152 8.14134 66.8597 8.5838 66.8597H48.4162C48.8587 66.8597 49.2248 66.5152 49.2505 66.0728L51.7118 24.3816H56.1641C56.6257 24.3816 57 24.0077 57 23.5456V12.2859C57 11.8238 56.6257 11.45 56.1641 11.45ZM18.4019 10.5814C18.4019 5.66865 22.3987 1.67186 27.3114 1.67186H29.6886C34.6013 1.67186 38.5981 5.66865 38.5981 10.5814V11.45H18.4019V10.5814ZM47.628 65.1879H9.37197L6.96255 24.3816H50.0375L47.628 65.1879ZM55.3281 22.7097H50.924H6.07601H1.67186V13.1218H17.566H39.434H55.3281V22.7097Z" fill="white"/>
<path d="M19.2371 58.2123C19.2555 58.2123 19.2738 58.2115 19.2926 58.2106C19.753 58.1804 20.102 57.7829 20.0722 57.3217L18.4004 31.7474C18.3697 31.287 17.9775 30.9523 17.5114 30.9678C17.0509 30.998 16.702 31.3956 16.7318 31.8568L18.4036 57.431C18.4326 57.8727 18.8004 58.2123 19.2371 58.2123Z" fill="white"/>
<path d="M28.5002 58.2124C28.9619 58.2124 29.3362 57.8385 29.3362 57.3765V31.8022C29.3362 31.3402 28.9619 30.9663 28.5002 30.9663C28.0386 30.9663 27.6643 31.3402 27.6643 31.8022V57.3765C27.6643 57.8385 28.0386 58.2124 28.5002 58.2124Z" fill="white"/>
<path d="M37.7074 58.2108C37.7262 58.2116 37.7445 58.2124 37.7629 58.2124C38.1997 58.2124 38.5674 57.8728 38.5964 57.4312L40.2683 31.857C40.2981 31.3957 39.9491 30.9982 39.4887 30.968C39.0311 30.95 38.6303 31.288 38.5997 31.7476L36.9278 57.3218C36.898 57.783 37.247 58.1806 37.7074 58.2108Z" fill="white"/>
</svg>
