<svg width="64" height="60" viewBox="0 0 64 60" fill="none" xmlns="http://www.w3.org/2000/svg">
<path d="M10.1616 40.0488V53.269C10.1616 53.6831 10.4976 54.019 10.9116 54.019H28.1479C28.562 54.019 28.8979 53.6831 28.8979 53.269V40.0488C28.8979 39.6348 28.562 39.2988 28.1479 39.2988H10.9116C10.4976 39.2988 10.1616 39.6348 10.1616 40.0488ZM11.6616 40.7988H27.3979V52.519H11.6616V40.7988Z" fill="white"/>
<path d="M24.1196 42.5879H14.9399C14.5259 42.5879 14.1899 42.9238 14.1899 43.3379C14.1899 43.752 14.5259 44.0879 14.9399 44.0879H24.1196C24.5337 44.0879 24.8696 43.752 24.8696 43.3379C24.8696 42.9238 24.5337 42.5879 24.1196 42.5879Z" fill="white"/>
<path d="M24.1196 45.9092H14.9399C14.5259 45.9092 14.1899 46.2451 14.1899 46.6592C14.1899 47.0732 14.5259 47.4092 14.9399 47.4092H24.1196C24.5337 47.4092 24.8696 47.0732 24.8696 46.6592C24.8696 46.2451 24.5337 45.9092 24.1196 45.9092Z" fill="white"/>
<path d="M24.1196 49.23H14.9399C14.5259 49.23 14.1899 49.5659 14.1899 49.98C14.1899 50.394 14.5259 50.73 14.9399 50.73H24.1196C24.5337 50.73 24.8696 50.394 24.8696 49.98C24.8696 49.5659 24.5337 49.23 24.1196 49.23Z" fill="white"/>
<path d="M57.9902 53.6489C56.8643 53.6489 55.9482 52.7329 55.9482 51.6064C55.7784 49.7019 56.4351 47.8403 55.1982 47.8403H54.6172V18.7876C54.6172 8.42822 46.1895 0 35.8296 0C25.4346 0 17.042 8.3893 17.042 18.7876V23.3198C8.12659 25.021 4.271 35.7959 4.271 43.8306V48.9279C3.94629 48.7789 3.58856 48.6904 3.2085 48.6904H2.5625C1.14941 48.6904 0 49.8398 0 51.2529V57.3477C0 58.7607 1.14941 59.9102 2.5625 59.9102H3.2085C4.18048 59.9102 5.01758 59.3599 5.45178 58.5605C6.23322 59.386 7.33148 59.9082 8.55518 59.9082H30.5044C31.7281 59.9082 32.8264 59.386 33.6078 58.5605C34.042 59.3599 34.8791 59.9102 35.8511 59.9102H36.4971C37.9102 59.9102 39.0596 58.7607 39.0596 57.3477V51.2529C39.0596 49.8398 37.9102 48.6904 36.4971 48.6904H35.8511C35.471 48.6904 35.1133 48.7789 34.7886 48.9279V43.8306C34.7886 41.2261 34.418 38.6382 33.687 36.1396C31.8754 29.9233 28.4513 24.6069 22.0767 23.3428V18.7876C22.0767 11.2041 28.2461 5.03467 35.8296 5.03467C43.4015 5.03467 49.582 11.1526 49.582 18.7876V47.8403H49.0127C48.5986 47.8403 48.2627 48.1763 48.2627 48.5903V51.6064C48.2627 52.7329 47.3467 53.6489 46.209 53.6489C43.1709 53.6489 40.6992 56.1206 40.6992 59.1582C40.6992 59.5723 41.0352 59.9082 41.4492 59.9082H62.75C62.7578 59.9087 62.7646 59.9082 62.7695 59.9082C63.1846 59.9082 63.5195 59.5723 63.5195 59.1582C63.5195 59.0942 63.5117 59.0322 63.4971 58.9731C63.4006 56.0427 61.0189 53.6489 57.9902 53.6489ZM18.1509 29.374C18.5783 29.1408 19.0697 29.029 19.5598 29.0338C19.5753 29.0339 19.5899 29.039 19.6054 29.0394C20.0698 29.0509 20.5298 29.1656 20.9325 29.3827C20.9427 29.3882 20.9547 29.3899 20.9648 29.3955C21.917 29.9204 22.5088 30.9238 22.5088 32.0142C22.5088 33.6597 21.1699 34.9985 19.5239 34.9985C17.8848 34.9985 16.5508 33.6597 16.5508 32.0142C16.5508 30.9033 17.1597 29.8936 18.1509 29.374ZM4.271 57.3477C4.271 57.9336 3.79443 58.4102 3.2085 58.4102H2.5625C1.97656 58.4102 1.5 57.9336 1.5 57.3477V51.2529C1.5 50.667 1.97656 50.1904 2.5625 50.1904H3.2085C3.79443 50.1904 4.271 50.667 4.271 51.2529V55.624V57.3477ZM35.8511 50.1904H36.4971C37.083 50.1904 37.5596 50.667 37.5596 51.2529V57.3477C37.5596 57.9336 37.083 58.4102 36.4971 58.4102H35.8511C35.2651 58.4102 34.7886 57.9336 34.7886 57.3477C34.7886 55.137 34.7886 51.1306 34.7886 51.2529C34.7886 50.667 35.2651 50.1904 35.8511 50.1904ZM32.2471 36.5601C32.938 38.9229 33.2886 41.3687 33.2886 43.8306V51.2529V55.624C33.2886 57.1592 32.0396 58.4082 30.5044 58.4082H8.55518C7.02002 58.4082 5.771 57.1592 5.771 55.624C5.771 51.5403 5.771 47.916 5.771 43.8306C5.771 36.545 9.11283 26.5595 17.042 24.8374V28.2985C15.8062 29.1223 15.0508 30.5031 15.0508 32.0142C15.0508 34.4868 17.0576 36.4985 19.5239 36.4985C21.9971 36.4985 24.0088 34.4868 24.0088 32.0142C24.0088 30.5322 23.275 29.1627 22.0767 28.3312V24.8564C27.5812 26.0963 30.5917 30.8798 32.2471 36.5601ZM35.8296 3.53467C27.4189 3.53467 20.5767 10.377 20.5767 18.7876V23.9556V27.6523C19.917 27.4951 19.2065 27.4878 18.542 27.6392V23.9434V18.7876C18.542 9.22143 26.2598 1.5 35.8296 1.5C45.3623 1.5 53.1172 9.25537 53.1172 18.7876V47.8403H51.082V18.7876C51.082 10.3425 44.2468 3.53467 35.8296 3.53467ZM42.2695 58.4082C42.6221 56.5547 44.2559 55.1489 46.2207 55.1489C48.1738 55.1489 49.7627 53.5596 49.7627 51.6064V49.3403C51.6477 49.3403 52.8586 49.3403 54.4482 49.3403V51.6064C54.4482 53.5596 56.0371 55.1489 57.9902 55.1489C59.9925 55.1489 61.5842 56.573 61.9297 58.4082H42.2695V58.4082Z" fill="white"/>
</svg>
