<svg width="58" height="58" viewBox="0 0 58 58" fill="none" xmlns="http://www.w3.org/2000/svg">
<path d="M57.275 17.7363H55.8285C56.9318 16.8002 57.635 15.4062 57.635 13.8493C57.635 11.0375 55.3471 8.74956 52.5352 8.74956H52.4647C53.4163 7.82256 54.01 6.52996 54.01 5.09978C54.01 2.28793 51.7225 0 48.9102 0H9.0894C6.27755 0 3.98998 2.28793 3.98998 5.09978C3.98998 6.52996 4.58369 7.82256 5.53525 8.74956H5.4644C2.65255 8.74956 0.364978 11.0375 0.364978 13.8493C0.364978 15.4062 1.06816 16.8002 2.17137 17.7363H0.725C0.324622 17.7363 0 18.0609 0 18.4613V26.5984C0 26.9988 0.324622 27.3234 0.725 27.3234H2.98841L5.50476 53.7364C5.73663 56.167 7.75269 58 10.1943 58H47.8058C50.2473 58 52.2634 56.167 52.4952 53.7364L55.0116 27.3234H57.275C57.6754 27.3234 58 26.9988 58 26.5984V18.4613C58 18.0609 57.6754 17.7363 57.275 17.7363ZM5.43998 5.09978C5.43998 3.08727 7.07725 1.45 9.0894 1.45H48.9102C50.9228 1.45 52.56 3.08727 52.56 5.09978C52.56 7.11229 50.9228 8.74956 48.9102 8.74956H9.0894C7.07725 8.74956 5.43998 7.11229 5.43998 5.09978ZM1.81498 13.8493C1.81498 11.8368 3.45225 10.1996 5.4644 10.1996H9.0894H48.9102H52.5352C54.5478 10.1996 56.185 11.8368 56.185 13.8493C56.185 15.8615 54.5478 17.4988 52.5352 17.4988H5.4644C3.45225 17.4988 1.81498 15.8615 1.81498 13.8493ZM51.0516 53.599C50.8912 55.2813 49.4958 56.55 47.8058 56.55H10.1943C8.50424 56.55 7.10875 55.2813 6.94839 53.599L4.44509 27.3234H53.5549L51.0516 53.599ZM56.55 25.8734H1.45V19.1863H56.55V25.8734Z" fill="white"/>
<path d="M22.1708 39.6921H35.829C37.9601 39.6921 39.6937 37.9585 39.6937 35.8274C39.6937 33.6963 37.9601 31.9624 35.829 31.9624H22.1708C20.0397 31.9624 18.3062 33.6963 18.3062 35.8274C18.3062 37.9585 20.0397 39.6921 22.1708 39.6921ZM22.1708 33.4124H35.829C37.1604 33.4124 38.2437 34.4957 38.2437 35.8274C38.2437 37.1588 37.1604 38.2421 35.829 38.2421H22.1708C20.8394 38.2421 19.7562 37.1588 19.7562 35.8274C19.7562 34.4957 20.8394 33.4124 22.1708 33.4124Z" fill="white"/>
<path d="M12.5556 52.0457C12.9559 52.0457 13.2806 51.7211 13.2806 51.3207V43.6876C13.2806 43.2873 12.9559 42.9626 12.5556 42.9626C12.1552 42.9626 11.8306 43.2873 11.8306 43.6876V51.3207C11.8306 51.7211 12.1552 52.0457 12.5556 52.0457Z" fill="white"/>
<path d="M19.0202 52.0457C19.4205 52.0457 19.7452 51.7211 19.7452 51.3207V43.6876C19.7452 43.2873 19.4205 42.9626 19.0202 42.9626C18.6198 42.9626 18.2952 43.2873 18.2952 43.6876V51.3207C18.2952 51.7211 18.6198 52.0457 19.0202 52.0457Z" fill="white"/>
<path d="M25.4848 42.9626C25.0844 42.9626 24.7598 43.2873 24.7598 43.6876V51.3207C24.7598 51.7211 25.0844 52.0457 25.4848 52.0457C25.8851 52.0457 26.2098 51.7211 26.2098 51.3207V43.6876C26.2098 43.2873 25.8851 42.9626 25.4848 42.9626Z" fill="white"/>
<path d="M31.9491 42.9626C31.5487 42.9626 31.2241 43.2873 31.2241 43.6876V51.3207C31.2241 51.7211 31.5487 52.0457 31.9491 52.0457C32.3495 52.0457 32.6741 51.7211 32.6741 51.3207V43.6876C32.6741 43.2873 32.3495 42.9626 31.9491 42.9626Z" fill="white"/>
<path d="M38.414 42.9626C38.0136 42.9626 37.689 43.2873 37.689 43.6876V51.3207C37.689 51.7211 38.0136 52.0457 38.414 52.0457C38.8143 52.0457 39.139 51.7211 39.139 51.3207V43.6876C39.139 43.2873 38.8143 42.9626 38.414 42.9626Z" fill="white"/>
<path d="M44.8786 52.0457C45.2789 52.0457 45.6036 51.7211 45.6036 51.3207V43.6876C45.6036 43.2873 45.2789 42.9626 44.8786 42.9626C44.4782 42.9626 44.1536 43.2873 44.1536 43.6876V51.3207C44.1536 51.7211 44.4782 52.0457 44.8786 52.0457Z" fill="white"/>
</svg>
