<svg width="49" height="62" viewBox="0 0 49 62" fill="none" xmlns="http://www.w3.org/2000/svg">
<path d="M0.756927 61.084H47.6864C48.1406 61.084 48.4434 60.7813 48.4434 60.3271V0.756927C48.4434 0.302771 48.1406 0 47.6864 0H0.756927C0.302771 0 0 0.302771 0 0.756927V60.3271C0 60.7056 0.378464 61.084 0.756927 61.084ZM46.9295 52.6822H1.51385V8.25051H46.9295V52.6822ZM46.9295 59.5702H1.51385V54.196H46.9295V59.5702ZM46.9295 1.51385V6.73665H1.51385V1.51385H46.9295Z" fill="white"/>
<path d="M24.2217 45.4913C32.1695 45.4913 38.679 38.9817 38.679 31.034C38.679 23.0862 32.1695 16.6523 24.2217 16.6523C16.274 16.6523 9.7644 23.1619 9.7644 31.1097C9.7644 39.0574 16.274 45.4913 24.2217 45.4913ZM24.2217 43.9774C17.8635 43.9774 12.565 39.3602 11.5053 33.3047C12.7921 32.3964 18.242 29.293 25.13 31.7909C31.3368 34.0617 35.1972 33.4561 36.9381 32.9263C36.1055 39.2088 30.7313 43.9774 24.2217 43.9774ZM24.2217 18.1662C31.3368 18.1662 37.1652 23.9945 37.1652 31.1097C37.1652 31.1854 37.1652 31.261 37.1652 31.3367C36.3326 31.7152 32.6236 33.002 25.7356 30.5041C18.9232 28.0063 13.549 30.4284 11.354 31.7152C11.354 31.5638 11.354 31.3367 11.354 31.1854C11.2783 23.9188 17.1066 18.1662 24.2217 18.1662Z" fill="white"/>
<path d="M24.2218 48.292C33.7591 48.292 41.4798 40.5713 41.4798 31.0341C41.4798 21.4968 33.7591 13.8518 24.2218 13.8518C14.6845 13.8518 6.96387 21.5725 6.96387 31.1098C6.96387 40.647 14.6845 48.292 24.2218 48.292ZM24.2218 15.3657C32.8508 15.3657 39.9659 22.4051 39.9659 31.1098C39.9659 39.8144 32.8508 46.7781 24.2218 46.7781C15.5928 46.7781 8.47772 39.7387 8.47772 31.0341C8.47772 22.3294 15.5928 15.3657 24.2218 15.3657Z" fill="white"/>
<path d="M39.1331 4.99579H42.2366C42.6907 4.99579 42.9935 4.69302 42.9935 4.23886C42.9935 3.7847 42.6907 3.48193 42.2366 3.48193H39.1331C38.679 3.48193 38.3762 3.7847 38.3762 4.23886C38.3762 4.69302 38.7547 4.99579 39.1331 4.99579Z" fill="white"/>
<path d="M31.7152 4.99579H34.8186C35.2727 4.99579 35.5755 4.69302 35.5755 4.23886C35.5755 3.7847 35.2727 3.48193 34.8186 3.48193H31.7152C31.261 3.48193 30.9583 3.7847 30.9583 4.23886C30.9583 4.69302 31.261 4.99579 31.7152 4.99579Z" fill="white"/>
</svg>
