<svg width="58" height="58" viewBox="0 0 58 58" fill="none" xmlns="http://www.w3.org/2000/svg">
<path d="M0.725106 22.4155H1.51536V57.275C1.51536 57.6757 1.83967 58 2.24046 58H34.8157C35.2165 58 35.5408 57.6757 35.5408 57.275V42.8529L48.3789 30.0167C49.171 30.6694 50.1561 31.0249 51.1958 31.0249C52.3826 31.0249 53.4978 30.5626 54.3362 29.7236L57.7876 26.2728C58.0708 25.9896 58.0708 25.5308 57.7876 25.2476L45.8821 13.3438C45.5988 13.0606 45.14 13.0606 44.8567 13.3438L41.4054 16.7947C40.5663 17.6336 40.1046 18.7488 40.1046 19.9347C40.1046 20.9743 40.4596 21.9594 41.1126 22.7515L35.5408 28.3219V22.4155H36.3311C36.7319 22.4155 37.0562 22.0913 37.0562 21.6905V15.1075C37.0562 14.7067 36.7319 14.3825 36.3311 14.3825H34.4953C34.0935 6.38751 27.0858 0 18.5277 0C9.97043 0 2.96269 6.38751 2.56089 14.3825H0.725106C0.324315 14.3825 0 14.7067 0 15.1075V21.6905C0 22.0913 0.324315 22.4155 0.725106 22.4155ZM34.0906 56.55H2.96557V31.1832C10.5436 31.2388 14.5234 32.1491 18.3649 33.0335C22.2857 33.9357 26.3479 34.865 34.0906 34.9207V56.55V56.55ZM42.4308 17.8198L45.3694 14.8816L56.2496 25.7602L53.3109 28.6984C52.7458 29.2634 51.9952 29.5749 51.1958 29.5749C50.397 29.5749 49.6464 29.2634 49.0813 28.6984L42.4308 22.0488C41.8657 21.4838 41.5548 20.7333 41.5548 19.9347C41.5548 19.136 41.8657 18.3848 42.4308 17.8198ZM42.123 23.7915L47.3387 29.0064L35.5408 40.8025V30.3721L42.123 23.7915ZM34.0906 33.4707C26.5118 33.415 22.5321 32.5047 18.6906 31.6203C14.7698 30.7182 10.7083 29.7889 2.96557 29.7332V22.4155H34.0906V33.4707V33.4707ZM18.5277 1.45C26.2831 1.45 32.6206 7.18924 33.0255 14.3825H4.0307C4.43561 7.18924 10.7731 1.45 18.5277 1.45ZM1.45021 15.8325H35.606V20.9655H1.45021V15.8325Z" fill="white"/>
</svg>
