<svg width="58" height="58" viewBox="0 0 58 58" fill="none" xmlns="http://www.w3.org/2000/svg">
<path d="M43.3821 36.9157C43.0948 36.6574 42.6556 36.6684 42.3824 36.942L41.9317 37.3922L32.2992 27.771L46.3656 13.7206C48.6836 11.4053 48.6836 7.63775 46.3656 5.32238L44.8324 3.79121C44.5486 3.50772 44.0888 3.50772 43.805 3.79121L42.4191 5.1755L38.4864 1.24728C38.2026 0.963797 37.7428 0.963797 37.459 1.24728L1.18624 37.4788C0.902437 37.7623 0.902437 38.2215 1.18624 38.505L5.11894 42.4332L3.73271 43.8179C3.59648 43.954 3.51986 44.1386 3.51986 44.331C3.51986 44.5234 3.59648 44.708 3.73271 44.8441L5.26598 46.3753C6.38845 47.4968 7.88128 48.1148 9.46989 48.1148C11.0578 48.1148 12.5506 47.4972 13.6738 46.3753L27.7399 32.3252L37.3723 41.9464L36.9212 42.3969C36.6481 42.6698 36.6367 43.1088 36.895 43.3955L48.6134 56.3929C49.6862 57.4642 51.0953 57.9999 52.5044 57.9999C53.9128 57.9999 55.3219 57.4642 56.3947 56.3929C58.5396 54.2501 58.5396 50.7636 56.367 48.5946L43.3821 36.9157ZM2.72732 37.9919L37.9727 2.78661L41.3917 6.20172L6.14632 41.407L2.72732 37.9919ZM12.6464 45.3491C11.7978 46.1967 10.6697 46.6634 9.46989 46.6634C8.27009 46.6634 7.14196 46.1967 6.29337 45.3491L5.27379 44.331L44.3187 5.33053L45.3383 6.3486C47.0894 8.09806 47.0894 10.945 45.3383 12.6944L12.6464 45.3491ZM28.7672 31.299L31.2718 28.7973L40.9043 38.4184L38.3997 40.9201L28.7672 31.299ZM55.3673 55.3667C53.7886 56.944 51.2195 56.9436 49.667 55.3944L38.436 42.9363L42.9223 38.4551L55.3673 49.6471C56.9453 51.2239 56.9453 53.7898 55.3673 55.3667Z" fill="white"/>
<path d="M8.42348 26.1468C8.60938 26.1468 8.79527 26.076 8.93718 25.9342C9.22098 25.6507 9.22098 25.1915 8.93718 24.908L1.25733 17.2365C0.973523 16.9531 0.513754 16.9531 0.229946 17.2365C-0.0538622 17.52 -0.0538622 17.9793 0.229946 18.2628L7.90979 25.9342C8.05169 26.076 8.23759 26.1468 8.42348 26.1468Z" fill="white"/>
<path d="M14.6496 18.7468C14.8355 18.7468 15.0214 18.6759 15.1633 18.5342C15.4471 18.2507 15.4471 17.7914 15.1633 17.508L8.07447 10.4272C7.79066 10.1437 7.33089 10.1437 7.04708 10.4272C6.76328 10.7107 6.76328 11.1699 7.04708 11.4534L14.1359 18.5342C14.2778 18.6759 14.4637 18.7468 14.6496 18.7468Z" fill="white"/>
<path d="M1.90151 26.4116C2.08741 26.4116 2.2733 26.3407 2.41521 26.199C2.69901 25.9155 2.69901 25.4559 2.41521 25.1728L1.24024 23.9995C0.956433 23.716 0.496664 23.716 0.212856 23.9995C-0.070952 24.283 -0.070952 24.7426 0.212856 25.0257L1.38782 26.199C1.52973 26.3407 1.71562 26.4116 1.90151 26.4116Z" fill="white"/>
<path d="M3.46749 27.2502C3.18369 27.5333 3.18369 27.9929 3.46749 28.2764L4.81771 29.6255C4.95962 29.7672 5.14551 29.8381 5.3314 29.8381C5.5173 29.8381 5.70319 29.7672 5.8451 29.6255C6.1289 29.3423 6.1289 28.8827 5.8451 28.5992L4.49488 27.2502C4.21107 26.9667 3.7513 26.9667 3.46749 27.2502Z" fill="white"/>
<path d="M2.92105 13.8717C3.10694 13.8717 3.29283 13.8008 3.43474 13.659C3.71855 13.3756 3.71855 12.9163 3.43474 12.6328L2.25977 11.4592C1.97596 11.1757 1.5162 11.1757 1.23239 11.4592C0.948579 11.7427 0.948579 12.2019 1.23239 12.4854L2.40735 13.659C2.54926 13.8008 2.73515 13.8717 2.92105 13.8717Z" fill="white"/>
<path d="M7.70188 18.647C7.88778 18.647 8.07367 18.5761 8.21558 18.4343C8.49938 18.1512 8.49938 17.6916 8.21558 17.4081L5.51514 14.7104C5.23134 14.4269 4.77157 14.4269 4.48776 14.7104C4.20395 14.9935 4.20395 15.4531 4.48776 15.7366L7.18819 18.4343C7.3301 18.5761 7.51599 18.647 7.70188 18.647Z" fill="white"/>
<path d="M21.9356 12.593C22.1215 12.593 22.3074 12.5221 22.4493 12.3804C22.7331 12.0969 22.7331 11.6377 22.4493 11.3542L17.9439 6.85422C17.66 6.57073 17.2003 6.57073 16.9165 6.85422C16.6327 7.1377 16.6327 7.59695 16.9165 7.88043L21.4219 12.3804C21.5638 12.5221 21.7497 12.593 21.9356 12.593Z" fill="white"/>
<path d="M28.7526 5.78381C28.9385 5.78381 29.1244 5.71293 29.2663 5.57119C29.5501 5.28771 29.5501 4.82846 29.2663 4.54498L24.929 0.212614C24.6452 -0.0708713 24.1854 -0.0708713 23.9016 0.212614C23.6178 0.496099 23.6178 0.955345 23.9016 1.23883L28.2389 5.57119C28.3808 5.71293 28.5667 5.78381 28.7526 5.78381Z" fill="white"/>
<path d="M9.67495 7.12605C9.86085 7.12605 10.0467 7.05518 10.1886 6.91344C10.4725 6.62995 10.4725 6.1707 10.1886 5.88722L9.01368 4.71359C8.72987 4.43011 8.2701 4.43011 7.98629 4.71359C7.70249 4.99708 7.70249 5.45632 7.98629 5.73981L9.16126 6.91344C9.30316 7.05518 9.48906 7.12605 9.67495 7.12605Z" fill="white"/>
<path d="M17.3385 14.7813C17.5244 14.7813 17.7103 14.7105 17.8522 14.5687C18.136 14.2852 18.136 13.826 17.8522 13.5425L12.2683 7.96457C11.9845 7.68108 11.5247 7.68108 11.2409 7.96457C10.9571 8.24805 10.9571 8.7073 11.2409 8.99078L16.8249 14.5687C16.9668 14.7105 17.1527 14.7813 17.3385 14.7813Z" fill="white"/>
<path d="M20.4577 4.33772C20.6436 4.33772 20.8295 4.26685 20.9714 4.12511C21.2552 3.84162 21.2552 3.38237 20.9714 3.09889L19.7964 1.92526C19.5126 1.64178 19.0528 1.64178 18.769 1.92526C18.4852 2.20875 18.4852 2.66799 18.769 2.95148L19.944 4.12511C20.0859 4.26685 20.2718 4.33772 20.4577 4.33772Z" fill="white"/>
<path d="M24.8156 8.99074C24.9575 9.13248 25.1434 9.20335 25.3293 9.20335C25.5152 9.20335 25.7011 9.13248 25.843 8.99074C26.1268 8.70725 26.1268 8.24765 25.843 7.96452L23.8755 5.99997C23.5917 5.71648 23.1319 5.71648 22.8481 5.99997C22.5643 6.28345 22.5643 6.74305 22.8481 7.02618L24.8156 8.99074Z" fill="white"/>
</svg>
